<?xml version="1.0" encoding="utf-8"?>
<!-- Generator: Adobe Illustrator 24.0.2, SVG Export Plug-In . SVG Version: 6.00 Build 0)  -->
<svg version="1.1" xmlns="http://www.w3.org/2000/svg" xmlns:xlink="http://www.w3.org/1999/xlink" x="0px" y="0px"
	 viewBox="0 0 547.2 389.5" style="enable-background:new 0 0 547.2 389.5;" xml:space="preserve">
<style type="text/css">
	.st0{fill:#EFCD25;stroke:#000000;stroke-miterlimit:10;}
	.st1{display:none;}
	.st2{display:inline;fill:#FAEDA1;}
	.st3{display:inline;fill:#5D2815;}
	.st4{fill:url(#SVGID_1_);}
	.st5{fill:url(#SVGID_2_);}
	.st6{opacity:0.7;fill:url(#SVGID_3_);stroke:url(#SVGID_4_);stroke-miterlimit:10;}
	.st7{opacity:0.7;}
	.st8{opacity:0.7;fill:url(#SVGID_5_);stroke:url(#SVGID_6_);stroke-miterlimit:10;}
	.st9{fill:#BC6C0C;}
	.st10{fill:#7F4409;}
	.st11{fill:#FF4B4B;}
	.st12{fill:#C49162;}
	.st13{fill:#CB2D2F;}
	.st14{fill:#FCA2A3;}
	.st15{fill:none;stroke:#000000;stroke-width:5;stroke-miterlimit:10;}
	.st16{fill:#A4CE39;}
	.st17{fill:#CC823A;}
</style>
<g id="Layer_2">
	<g>
		<path class="st0" d="M15.7,111.4c-0.1-0.7-0.2-1.5-0.2-2.2c-0.5-8.5,0.9-16.9,2.5-25.2c0.9-4.7,1.6-9.4,2.2-14.1
			c0.8-5.6,1.4-11.2,2.2-16.8c0.2-1.6-0.1-2.7-1.6-3.4c-0.2-0.1-0.4-0.3-0.7-0.4c-5.5-3.2-4.7-1.7-4.7-8.3c0-6.3,0-12.5,0-18.8
			c0-1.7-0.6-2.3-2.3-2.3C8,19.9,8,19.8,8,25c0,116.4,0,232.9,0,349.3c0,4.1-0.3,3.8,3.8,3.8c0.3,0,0.7,0,1,0c2.5,0,2.6-0.2,2.6-2.7
			c0-27.1,0-54.1,0-81.2c0-0.9,0.1-1.8,0.2-3.3c0.9,1,1.5,1.4,1.8,2c8.1,14.9,18.1,28.6,29.4,41.2c9.5,10.6,20,20.1,31.7,28.3
			c9.4,6.6,19.5,12,30.2,16c7.6,2.7,15.3,5.2,23.4,5.6c7.2,0.4,14.5,1,21.6,0.6c11.3-0.6,21.6-4.2,29.5-12.8
			c7.4-8.1,9.6-17.8,8-28.5c-1.8-12.2-7.3-22.8-14.2-32.8c-3.7-5.4-7.9-10.5-12-15.6c-1.1-1.4-1.3-2.4-0.2-4
			c5.2-7.5,8.3-15.9,9.1-25c0.6-6.6,0.6-13.2,0.8-19.9c0.1-2.2,0.2-2.7,2.4-2.3c4.4,0.8,8.8,1.6,13.2,2.7c7.4,1.8,14.7,3.9,22.2,5.5
			c2.2,0.5,4.8,0.2,7.1-0.4c1.2-0.3,2.3-1.8,2.8-3.1c0.2-0.5-1.2-2-2.1-2.6c-8.8-5.8-18.6-9.3-28.8-11.5c-5.1-1.1-10.3-1.8-15.5-2.6
			c-1.6-0.2-2.5-0.8-2.9-2.5c-2-8.5-4-16.9-6.2-25.3c-1.4-5.1-3.2-10.2-4.9-15.2c-2.1-6-4.3-11.9-6.3-17.9c-0.2-0.7-0.1-1.7,0.3-2.3
			c5.8-8.7,15.4-15.3,27.3-13.9c9,1.1,16.9,4.2,23.5,10.4c5.2,4.9,9.2,10.7,12.1,17.1c4.1,9.4,7.9,18.9,11.6,28.5
			c3.2,8.4,6.7,16.6,11.8,24.1c7.7,11.3,17.7,19.4,31.4,22c4,0.8,8.1,0.8,12.2,0.8c3.4,0,5.9-1.8,7.1-5.1c0.7-1.9,0.2-2.5-1.8-2.6
			c-9.7-0.5-18.5-3.3-25.9-9.9c-7.7-6.9-12.5-15.7-16.6-25c-2.9-6.5-5.7-13.1-8.3-19.8c-3.2-8.5-6.8-16.9-11.4-24.7
			c-6.3-10.9-14.3-20.2-25.9-25.7c-9-4.3-18.6-5.9-28.5-4.9c-8.3,0.8-15.8,4.2-22.1,9.9c-1.9,1.7-2.6,1.6-3.1-1
			c-1.7-9.2-3.8-18.4-3.2-27.9c0.5-8.3,2.1-16.2,7.7-22.9c3.7-4.5,8.7-6.9,13.7-9.4c9.2-4.5,18.9-5.4,28.9-4.5
			c8.3,0.7,16.4,2.8,24.2,5.8c9.9,3.7,19.6,8,29.5,11.7c3.4,1.3,7.2,1.8,10.9,2.3c1.5,0.2,3.2-0.5,4.6-1.2c1.5-0.7,1.4-1.8,0.1-2.9
			c-6.9-5.6-14.4-10.2-22.2-14.4c-10.5-5.6-21.4-10.1-32.9-12.8c-8.5-2-17.2-3.4-26.1-2.8c-3.4,0.2-6.8,0.9-10.1,1.7
			c-4.5,1.1-9,2.1-13.2,3.9c-13.1,5.4-22.7,14.2-27,28.1c-2.3,7.4-3.4,15-2.9,22.7c0.5,7.4,1.6,14.7,2.9,22c1.1,6.2,3,12.3,4.3,18.6
			c0.3,1.3-0.4,2.9-1,4.2c-4.2,8.1-7.3,16.6-10.3,25.2c-2.5,7.1-5.4,14.1-8.2,21.1c-2.9,7.2-6.4,14.1-10.9,20.5
			c-4.7,6.8-10.7,12.3-18.5,15.3c-4.7,1.8-9.7,2.5-14.8,2.3c-0.6,0-1.2-0.3-1.8-0.9c1.2-0.4,2.3-0.9,3.5-1.3
			c11.4-4,19.4-11.7,24-22.8c1.4-3.5,2.2-7.3,3.1-11c1.6-6.8,2-13.8,1.7-20.7c-0.2-4.9-0.8-9.8-1.4-14.7c-0.8-6.6-1.6-13.2-2.5-19.8
			c-0.6-4.1-1.5-8.2-2.3-12.2c-0.9-4.6-1.7-9.2-2.6-13.8c-0.7-3.7-1.7-7.3-2.4-11c-0.9-4.7-1.6-9.4-2.3-14c-0.4-2.6-0.8-5.1-1-7.7
			c-0.6-5.8-1.6-11.7-1.4-17.5c0.4-10.5,2-20.9,8.4-29.8c5.8-8.2,13.2-14.5,22.2-18.9c9.5-4.6,19.7-5.8,30.1-4.8
			c6.5,0.6,13,1.8,19.4,3.1c5.1,1.1,10,2.8,15,4.1c5.1,1.4,10.2,2.7,15.6,1.5c0.6-0.1,1.3-0.4,1.8-0.7c2.9-1.7,2.9-3.2,0-4.9
			c-9.6-5.6-19.6-10.2-30.3-13.2c-12.7-3.6-25.5-5.2-38.7-3.6c-17.8,2.2-32.1,10.5-43.7,24c-4.7,5.6-8.4,11.8-10.7,18.7
			c-1.2,3.7-1.8,7.7-2.6,11.6C74,83.1,74.9,91.6,75,100c0.1,4.7,1.1,9.4,1.8,14.1c0.6,4.3,1.3,8.6,2.1,12.9
			c0.8,4.2,1.8,8.4,2.6,12.6c0.8,3.9,1.5,7.8,2.2,11.6c0.9,4.8,1.9,9.6,2.7,14.4c0.5,3,0.8,6,1.2,9.1c0.3,2.4,0.8,4.7,1,7.1
			c0.6,6.3,1.4,12.7,1.6,19c0.1,4.9-0.1,9.9-0.9,14.8c-1.1,6.6-3.3,12.9-8.3,17.7c-3.7,3.6-8.4,5-13.3,5.1
			c-4.8,0.1-9.5-0.9-14.3-1.4c-0.9-0.1-1.8-0.1-2.7-0.2c-0.6-0.1-1.1-0.5-1.7-0.7c0.4-0.5,0.8-1.1,1.3-1.5c1.9-1.4,4-2.5,5.6-4.1
			c4.9-4.9,7.6-10.8,8.2-17.7c0.4-4.1,0.7-8.2,0.7-12.2c0-3.1-1.5-5.7-3.5-8c-1-1.1-1.9-1.2-2.8,0.2c-4,6.4-7.7,12.9-10.1,20.2
			c-0.7,2.2-2.5,3.2-4.2,4.5c-0.2-0.1-0.4-0.2-0.6-0.3c0.3-1.5,0.5-2.9,1-4.4c2.6-8.1,6.2-15.7,11-22.8c0.7-1,0.4-1.6-0.4-2.3
			c-1.7-1.3-3.3-2.5-4.9-3.8c-1.8-1.6-2.3-3.6-1.5-5.8c0.4-1.2,0.2-2.1-0.7-3c-10.2-10.7-20.3-21.5-30.5-32.2
			c-1.7-1.8-2.6-3.7-1.7-6.6c0.8,0.6,1.6,1,2.1,1.6c8.8,9.4,17.6,18.8,26.4,28.2c1.5,1.6,3.2,3.2,5.2,5c0.5-1.8,1.1-3.4,1.5-5
			c0.8-3.1,1.5-6.2,2.1-9.3c0.1-0.8-0.1-1.9-0.6-2.5c-6.7-7.4-13.4-14.7-20.1-22.1c-0.4-0.4-0.6-0.9-1.1-1.1
			c-2.9-1.9-2.3-4.5-1.7-7.3c2.2-9.3,4.3-18.6,6.2-27.9c1.3-6.6,2.3-13.3,3.3-20c0.5-3.1,0.6-6.2,0.8-9.4c0-0.7-0.2-1.7-0.7-2.1
			c-4-3.6-8.2-7.2-12.7-10.6c-2.9,19.5-5.9,38.7-10.2,57.7C16.1,111.4,15.9,111.4,15.7,111.4z M43.3,284.6c0.2-0.2,0.4-0.3,0.6-0.5
			c0.6,0.4,1.2,0.8,1.9,1.2c4.5,3.1,8.8,6.5,13.5,9.2c6.3,3.7,12.6,7.3,19.3,10.2c6.8,2.9,14.1,5,21.2,7c3.8,1,7.8,1.1,11.8,1.6
			c14.3,1.9,28,0.3,40.8-6.9c1.1-0.6,2.1-0.4,2.9,0.6c4.4,5.6,9.3,10.9,12.8,17.2c3.5,6.4,6.3,12.9,5.5,20.5
			c-0.6,5.6-3.3,10-7.6,13.4c-4.6,3.7-10.3,5.2-16,5.3c-5.4,0-10.9-0.5-16.2-1.7c-9.2-2-17.8-5.7-26-10.3c-14-7.7-26-17.9-36.9-29.4
			c-9.1-9.7-17-20.4-24.1-31.6C45.4,288.5,44.4,286.6,43.3,284.6z M146,189.7c0.7,1.8,1.1,3,1.5,4.2c2.2,6.9,4.4,13.7,6.4,20.7
			c1.4,5,2.5,10.2,3.8,15.3c0.3,1.2-0.2,2-1.6,2.2c-1.4,0.2-2.8,0.5-4.2,0.8c-4.7,0.8-9.2,2.4-13.2,4.9c-11.4,7-17.1,18.7-11.2,32.4
			c3.1,7.3,8,13.5,13,19.6c1.5,1.8,1.5,2.3-0.8,3.1c-4.5,1.7-9.2,2.8-14.1,2.9c-6,0.1-11.9-0.7-17.7-2.4c-5-1.5-10-2.8-14.8-4.6
			c-9.5-3.4-18.3-8.3-27-13.4c-2.3-1.3-4.4-2.8-6.6-4.2c0.1-0.2,0.1-0.4,0.2-0.6c0.6,0,1.2,0,1.8,0.1c1.4,0.2,2.8,0.6,4.2,0.6
			c3.6,0.1,7.2,0,10.7,0.1c6.2,0.2,12.1-1,18-3c10.2-3.5,18.2-10,24.5-18.5c5.9-8,10.2-16.8,13.7-26c4.1-10.6,7.9-21.3,11.9-31.9
			C144.8,191.3,145.3,190.8,146,189.7z M160.4,253.2c-0.8,5.2-1.6,11.4-2.8,17.5c-0.6,3-2.2,5.8-3.4,8.6c-0.5,1.1-1.2,1.9-2.5,0.5
			c-4.5-5.2-8.6-10.6-10.5-17.5c-2-6.8,1.4-11.9,6.5-14.6c3.1-1.6,6.7-2.4,10-3.5c1.2-0.4,1.7,0.3,1.8,1.4
			C159.8,247.8,160.1,250,160.4,253.2z"/>
		<path class="st0" d="M42.7,69.5c-0.2,1.2-0.5,2.4-0.7,3.6c-1.7,11.2-3.3,22.4-5.2,33.5c-1.1,6.1-2.8,12.2-4.3,18.2
			c-0.4,1.6-0.3,2.8,0.9,4.1c6.1,6.5,11.6,12.5,16.7,18c1.1,1.2,2.1,2.3,3.2,3.5c0.2-0.1,0.4-0.1,0.6-0.2c0.3-1.2,0.6-2.4,0.9-3.7
			c0.7-3.5,1.5-6.9,2.1-10.4c0.7-4,1.5-8,1.7-12c0.4-8,0.9-16,0.4-24c-0.4-7.1-3.4-13.7-7.3-19.7c-2.5-3.8-5.3-7.5-8-11.2
			C43.2,69.4,43,69.5,42.7,69.5z"/>
	</g>
</g>
<g id="Layer_1">
	<g class="st1">
		<polygon class="st2" points="176.1,377 130.2,303.5 176.1,230 249.8,230 295.7,303.5 249.8,377 		"/>
		<path class="st3" d="M248.9,231.5l45,72l-45,72h-72l-45-72l45-72H248.9 M250.6,228.5H249h-72h-1.7l-0.9,1.4l-45,72l-1,1.6l1,1.6
			l45,72l0.9,1.4h1.7h72h1.7l0.9-1.4l45-72l1-1.6l-1-1.6l-45-72L250.6,228.5L250.6,228.5z"/>
	</g>
	<g>
		<linearGradient id="SVGID_1_" gradientUnits="userSpaceOnUse" x1="456.895" y1="380" x2="456.895" y2="231">
			<stop  offset="0" style="stop-color:#FFCE00"/>
			<stop  offset="1" style="stop-color:#000000"/>
		</linearGradient>
		<polygon class="st4" points="419.5,380 373,305.5 419.5,231 494.3,231 540.8,305.5 494.3,380 		"/>
		<path d="M490,231.5l45,72l-45,72h-72l-45-72l45-72H490 M492.7,226.5H490h-72h-2.8l-1.5,2.4l-45,72l-1.7,2.6l1.7,2.6l45,72l1.5,2.4
			h2.8h72h2.8l1.5-2.4l45-72l1.7-2.6l-1.7-2.6l-45-72L492.7,226.5L492.7,226.5z"/>
	</g>
	<g>
		<linearGradient id="SVGID_2_" gradientUnits="userSpaceOnUse" x1="453.955" y1="82" x2="453.955" y2="231">
			<stop  offset="0" style="stop-color:#FFCE00"/>
			<stop  offset="1" style="stop-color:#000000"/>
		</linearGradient>
		<polygon class="st5" points="416.6,231 370,156.5 416.6,82 491.3,82 537.9,156.5 491.3,231 		"/>
		<path d="M490,84.5l45,72l-45,72h-72l-45-72l45-72H490 M492.7,79.5H490h-72h-2.8l-1.5,2.3l-45,72l-1.7,2.6l1.7,2.6l45,72l1.5,2.4
			h2.8h72h2.8l1.5-2.4l45-72l1.7-2.6l-1.7-2.6l-45-72L492.7,79.5L492.7,79.5z"/>
	</g>
	<g class="st1">
		<polygon class="st2" points="57.1,451 11.2,377.5 57.1,304 130.8,304 176.7,377.5 130.8,451 		"/>
		<path class="st3" d="M129.9,305.5l45,72l-45,72h-72l-45-72l45-72H129.9 M131.6,302.5H130H58h-1.7l-0.9,1.4l-45,72l-1,1.6l1,1.6
			l45,72l0.9,1.4H58h72h1.7l0.9-1.4l45-72l1-1.6l-1-1.6l-45-72L131.6,302.5L131.6,302.5z"/>
	</g>
	<g>
		<linearGradient id="SVGID_3_" gradientUnits="userSpaceOnUse" x1="297.9" y1="156.5" x2="130.01" y2="156.5">
			<stop  offset="4.475343e-07" style="stop-color:#FFCE00"/>
			<stop  offset="1" style="stop-color:#000000"/>
		</linearGradient>
		<linearGradient id="SVGID_4_" gradientUnits="userSpaceOnUse" x1="129.4204" y1="156.5" x2="298.4896" y2="156.5">
			<stop  offset="0" style="stop-color:#FFFFFF"/>
			<stop  offset="1" style="stop-color:#000000"/>
		</linearGradient>
		<polygon class="st6" points="176.6,231 130,156.5 176.6,82 251.3,82 297.9,156.5 251.3,231 		"/>
		<path class="st7" d="M249.9,84.5l45,72l-45,72h-72l-45-72l45-72H249.9 M252.7,79.5H250h-72h-2.8l-1.5,2.3l-45,72l-1.7,2.6l1.7,2.6
			l45,72l1.5,2.4h2.8h72h2.8l1.5-2.4l45-72l1.7-2.6l-1.7-2.6l-45-72L252.7,79.5L252.7,79.5z"/>
	</g>
	<g>
		<linearGradient id="SVGID_5_" gradientUnits="userSpaceOnUse" x1="10.01" y1="83.5" x2="177.9" y2="83.5">
			<stop  offset="0" style="stop-color:#FFCE00"/>
			<stop  offset="1" style="stop-color:#000000"/>
		</linearGradient>
		<linearGradient id="SVGID_6_" gradientUnits="userSpaceOnUse" x1="9.4204" y1="83.5" x2="178.4896" y2="83.5">
			<stop  offset="0" style="stop-color:#FFCE00"/>
			<stop  offset="1" style="stop-color:#000000"/>
		</linearGradient>
		<polygon class="st8" points="56.6,158 10,83.5 56.6,9 131.3,9 177.9,83.5 131.3,158 		"/>
		<path class="st7" d="M129.9,11.5l45,72l-45,72h-72l-45-72l45-72H129.9 M132.7,6.5H130H58h-2.8l-1.5,2.4l-45,72l-1.7,2.7l1.7,2.7
			l45,72l1.5,2.4H58h72h2.8l1.5-2.4l45-72l1.7-2.7l-1.7-2.7l-45-72L132.7,6.5L132.7,6.5z"/>
	</g>
	<path class="st9" d="M430.5,341h-320c-8.3,0-15-6.8-15-15V136c0-8.3,6.8-15,15-15h320c8.3,0,15,6.8,15,15v190
		C445.5,334.3,438.7,341,430.5,341z"/>
	<path class="st10" d="M95.9,272.5v54l349,1v-6c0,0-132-4-242-13S95.9,272.5,95.9,272.5z"/>
	<path class="st11" d="M445.5,326c0,8.3-6.8,15-15,15h-320c-8.3,0-15-6.8-15-15"/>
	<path class="st12" d="M445,185.5v-54c-6-10-14-9-30-9c-46.9,0-97.1-0.9-144-1c-45.4-0.1-90.6,0.1-136,0c-13,0-34,0-39,9
		c0,2,0,4,0,6c0,0,132,4,242,13S445,185.5,445,185.5z"/>
	<polygon class="st13" points="93.9,326.5 144.8,326.5 153,340.2 105.9,340.5 96.9,335.5 	"/>
	<polygon class="st14" points="445.5,326.1 385.3,326.1 394.6,340.8 433.5,341.1 442,335.7 	"/>
	<path class="st15" d="M430.5,341h-320c-8.3,0-15-6.8-15-15V136c0-8.3,6.8-15,15-15h320c8.3,0,15,6.8,15,15v190
		C445.5,334.3,438.7,341,430.5,341z"/>
	<g>
		<circle class="st16" cx="490.5" cy="83" r="11"/>
		<path d="M490.5,74.5c4.7,0,8.5,3.8,8.5,8.5s-3.8,8.5-8.5,8.5S482,87.7,482,83S485.8,74.5,490.5,74.5 M490.5,69.5
			c-7.5,0-13.5,6-13.5,13.5s6,13.5,13.5,13.5S504,90.5,504,83S497.9,69.5,490.5,69.5L490.5,69.5z"/>
	</g>
	<g>
		<circle class="st17" cx="57.5" cy="157" r="11"/>
		<path d="M57.5,148.5c4.7,0,8.5,3.8,8.5,8.5s-3.8,8.5-8.5,8.5s-8.5-3.8-8.5-8.5S52.8,148.5,57.5,148.5 M57.5,143.5
			c-7.5,0-13.5,6-13.5,13.5s6,13.5,13.5,13.5s13.5-6,13.5-13.5S64.9,143.5,57.5,143.5L57.5,143.5z"/>
	</g>
	<g>
		<circle class="st11" cx="491.5" cy="231" r="11"/>
		<path d="M491.5,222.5c4.7,0,8.5,3.8,8.5,8.5s-3.8,8.5-8.5,8.5s-8.5-3.8-8.5-8.5S486.8,222.5,491.5,222.5 M491.5,217.5
			c-7.5,0-13.5,6-13.5,13.5s6,13.5,13.5,13.5s13.5-6,13.5-13.5S498.9,217.5,491.5,217.5L491.5,217.5z"/>
	</g>
</g>
<g id="Layer_3">
	
		<image style="overflow:visible;" width="1294" height="445" xlink:href="FEEECEBF.png"  transform="matrix(0.24 0 0 0.24 110.6487 177.5)">
	</image>
</g>
</svg>
