<?xml version="1.0" encoding="utf-8"?>
<!-- Generator: Adobe Illustrator 24.0.2, SVG Export Plug-In . SVG Version: 6.00 Build 0)  -->
<svg version="1.1" id="Layer_1" xmlns="http://www.w3.org/2000/svg" xmlns:xlink="http://www.w3.org/1999/xlink" x="0px" y="0px"
	 viewBox="0 0 137.5 87.4" style="enable-background:new 0 0 137.5 87.4;" xml:space="preserve">
<style type="text/css">
	.st0{fill:#FFFFFF;}
	.st1{fill:#B7B7B7;}
	.st2{fill:#1A1819;}
	.st3{fill:#D9D9D9;}
	.st4{fill:#EFCD25;}
	.st5{font-family:'Arial-BoldMT';}
	.st6{font-size:21.9128px;}
	.st7{font-family:'ArialMT';}
	.st8{fill:#666666;}
	.st9{font-size:7.0608px;}
	.st10{letter-spacing:1;}
</style>
<g id="Layer_1_1_">
	<title>awl-logo-small</title>
	<path class="st0" d="M33,87.3l0.4-0.4c0.9-1.3,1.6-2.6,2.1-4l0.4-0.7l-0.6,0.4c-1.6,1.1-3.4,2-5.3,2.4l0,0l0,0h-0.1h-0.1
		c-0.6,0.1-1.1,0.3-1.7,0.4h-0.5l0.4-0.3c1.6-1.7,2.8-3.7,3.7-5.8l0.3-0.6l-0.6,0.4c-3,1.7-6.2,2.6-9.7,2.6c-0.4,0-1,0-1.4,0h-0.4
		l0.3-0.3c1.7-1.4,3.1-2.8,4.4-4.5l0.4-0.6l-0.7,0.3c-2.8,0.9-5.8,1.3-8.8,1.3c-1,0-1.7,0-1.7,0h-0.6l0.4-0.3c2-1.3,3.7-3,5.3-4.7
		l0.7-0.9l-1,0.4c-2.7,1.3-5.7,1.8-8.7,1.8c-1.6,0-3.1-0.1-4.7-0.6L4.8,73l0.6-0.1c2.1-0.6,6.2-3.8,8.5-5.8l0.7-0.6l-1,0.3
		c-2.6,0.6-5.1,1-7.7,1c-3,0-6-0.4-8.9-1.3l-0.7-0.4L-3,66c2.1-0.1,5.7-1.8,10.6-4.7l0.7-0.4H7c-8.5,0-15.5-5.5-15.5-5.5L-8.9,55
		h0.6c1.3,0.1,2.4,0.1,3.7,0.3c2.6,0,5.3-0.4,7.7-1.3l0.7-0.3l-0.7-0.1C-8,51.8-17.8,43-17.8,42.8l-0.4-0.4l0.6,0.1l22.4,4.7
		l1.1,0.3l-1-0.6c-2.1-1.6-4.3-3.3-6-5.3l0,0l0,0C-15.8,38.9-26.3,25.1-26.4,25l-0.9-1l1,0.9c5.8,4.7,19.9,8.9,25.7,10.6l0.7,0.3
		l-0.6-0.6c-0.3-0.4-0.7-0.7-1-1.1l-0.1-0.3l-0.1,0.3c-0.1,0.1-0.3,0.3-0.4,0.4h-0.2h0.1c-4.1-1.8-8.7-8.2-9.2-9.1l0,0l0,0
		c-7-2.1-13.2-6.2-18-11.8c-2.1-2.3-3.8-5-5.1-7.8l-0.3-1l0.6,0.6c5.8,5.5,19.3,11.8,24.8,14.2l0.9,0.4l-0.6-0.7
		c-1.9-2.1-3.3-4.7-4.3-7.4l0,0l0,0C-31-1.1-37.7-20.9-37.8-21l-0.4-1.3l0.7,1.1C-31.7-12.1-16.8,0.9-8.3,8l1.4,1.1l-1-1.4
		c-2.3-3-4-6.4-4.8-9.9l0,0l0,0l-2-1.7l0,0l0,0v-2.3v-0.1L-15-6.9v-0.4l-0.3,0.4c-0.3,0.6-0.7,1-1.1,1.3h-0.1l-0.1-0.1
		c-7.9-8.9-13.8-19.6-17.5-30.9l-0.1-0.9l0.6,0.9c13.8,20,23.4,29,26.8,31.8l0.7,0.6l-0.4-1l-0.3-0.7L-7-6.4c-0.1-0.4-0.3-1-0.4-1.4
		l0,0l0,0C-21.5-26-23.3-41-23.3-41.2l-0.3-1l0.4,1C-18.1-29.9-11.4-19.6-3-10.5l0.9,0.9l-0.5-1.3V-11l-0.7-1.6l1,1.4
		C0.5-7,7.5-0.6,11.5,2.8l1.1,1l-0.7-1.2c-2.4-3.8-4.1-8.1-5-12.5L6.8-11l0.4,1C9-5.9,13.9-0.3,20.1,5.3c2.8,2.7,5.5,5.5,7.9,8.5
		c0.6,0.7,1.1,1.4,1.7,2.1l0.1,0.3l0.3,0.6c2.6,4,4.4,8.2,5.5,12.8c0.4,1.7,0.4,3.4,0.3,5.1c-0.4,1.1-1,2.1-2,2.8l0,0l0,0
		c-0.1,0.3-0.3,0.4-0.4,0.7c0,0.1-0.1,0.3-0.3,0.4l-0.1,0.1l-0.3,0.6l0,0c-0.4,6.1,2,11.9,6.5,15.9c3.3,2.7,8.1,2.8,10.6,2.8
		c0.6,0,1,0,1.6,0.1c1,0.3,1.8,1,2.6,1.8l0,0h0.1c1.6,0.1,3,0.7,4.3,1.6c2.4,1.8,4,4.4,4.7,7.2c0,0.3,0,0.4,0,0.7v0.1l0,0l0,0
		c0.1,0.1,0.1,0.3,0.3,0.3c0.3,0.3,0.6,0.6,0.7,0.9l0.1,0.1l0.1,0.1h0.1c0.1,0,0.4,0,0.6,0h0.1h0.1l0.4-0.4c1,1.1,1.6,2.7,1.7,4.3
		c0.1,0.6,0.1,1.3,0,1.8l-0.1,0.9l0.6-0.7l0.7-1.1l-1.4,2c0,0.1-1.4,3-3.7,3c-1.4,0-2.7-1.1-4.1-3.3l0,0l0,0c-0.3-0.3-0.6-0.6-0.9-1
		h0.1l-0.1,0.1c-1.1,0.9-2.4,1.3-3.8,1.3c-1,0-2-0.3-2.8-0.6v-0.1v0.1c-0.9,1.4-2,2.6-3.4,3.3l-0.4,0.1l0.1-0.4
		c0-0.1,0.1-0.3,0.1-0.4l-0.4-0.2c-2,5.5-6.1,6.7-6.4,6.7l-0.4,0.1l0.3-0.4c0.6-1.1,0.9-2.4,1-3.7l0.1-0.9l-0.7,0.9
		c-2.3,2.3-5.1,4-8.2,4.8L33,87.3z"/>
	<path class="st1" d="M67.4,77.1c0.1-0.7,0.1-1.3,0-2c-0.1-1.7-0.7-3.3-1.8-4.5L65,71.2l0,0c-0.1,0-0.4,0-0.6,0l-0.1-0.1
		c-0.3-0.3-0.4-0.6-0.7-0.9c-0.1-0.1-0.1-0.1-0.3-0.3l0,0v-0.1c0-0.3,0-0.4-0.1-0.7c-0.7-3-2.4-5.5-4.8-7.4
		c-1.3-0.9-2.8-1.4-4.4-1.6c-0.7-0.9-1.6-1.6-2.7-1.8c-0.6-0.1-1-0.1-1.6-0.1c-2.6-0.1-7.2-0.3-10.5-2.8c-4.5-4-7-9.8-6.5-15.8
		L33,39c0,0,0-0.1,0.1-0.1c0.1-0.1,0.3-0.3,0.3-0.6c0.1-0.3,0.3-0.4,0.4-0.7c1-0.7,1.7-1.8,2.1-3l0,0c0.3-1.7,0.1-3.4-0.3-5.1
		c-1-4.5-2.8-8.9-5.5-12.9l-0.3-0.4l-0.2-0.3c-0.6-0.7-1.1-1.4-1.7-2.1l0,0c-2.4-3-5.1-5.8-7.9-8.5C13.7-0.4,9-6,7.2-9.9l-1.1-2.4
		l0.4,2.6c0.9,4.4,2.6,8.7,5,12.5c-4-3.6-11-10-13.8-14.2l-2.1-3.2l1.6,3.7v0.1c-8.2-9.1-14.9-19.4-20-30.5l-1-2.3l0.3,2.4
		c0,0.1,2,15.2,15.9,33.4c0,0.6,0.1,1,0.4,1.6l0.1,0.4l0.3,0.7c-3.6-2.8-13.1-11.8-26.9-31.8l-1.1-1.8l0.6,2.1
		c3.5,11.4,9.5,22,17.5,30.9l0.1,0.1l0.3-0.1c0.5-0.3,0.9-0.7,1.2-1.3l0.3,0.6L-14.9-4v0.1l0.1,0.1l1.8,1.6c1,3.5,2.6,7,4.8,9.9
		c-7.6-6.3-23.2-19.8-29-29.1L-39-24l1,3.1c0.1,0.1,7,19.9,24.6,32.8c1,2.7,2.4,5.3,4.3,7.4c-5.7-2.6-19-8.7-24.7-14.1l-1.3-1.3
		l0.7,1.7c1.3,2.8,3.1,5.5,5.1,7.8c4.8,5.5,10.9,9.7,18,11.8c0.7,1,5.3,7.2,9.4,9.1l0.1,0.1l0.1-0.1c0.1-0.1,0.3-0.3,0.4-0.4
		c0.3,0.4,0.7,0.9,1,1.1c-5.3-1.4-19.8-5.8-25.6-10.4l-2.4-2l1.8,2.6c0.1,0.1,10.6,13.9,25.4,16.6c1.8,2,3.8,3.7,6,5.3l0,0
		l-22.4-4.7l-1.4-0.3l1,1C-17.8,43.2-8.1,52.2,3,54c-2.4,0.9-5,1.3-7.7,1.3c-1.3,0-2.4-0.1-3.7-0.3l-1.3-0.1l1,0.9
		c0,0,7.1,5.7,15.6,5.7h0.4C2.5,64.3-1.2,66-3.1,66.2l-1.8,0.1l1.7,0.6c3,0.9,6,1.3,8.9,1.3c2.6,0,5.3-0.3,7.8-1
		c-2.4,2-6.4,5.3-8.5,5.8l-1.4,0.3L5,73.7c1.6,0.4,3.1,0.6,4.8,0.6c3,0,6-0.6,8.7-1.8c-1.4,1.8-3.1,3.4-5.1,4.7l-1.1,0.6l1.3,0.1
		c0,0,0.7,0,1.7,0c3,0,6-0.4,8.9-1.3c-1.3,1.7-2.7,3.3-4.4,4.5l-0.7,0.7l1,0.1c0.4,0,1,0,1.4,0c3.4,0,6.8-0.9,9.8-2.6
		c-1,2.1-2.1,4-3.7,5.8L26.7,86l1.1-0.1c0.6-0.1,1.1-0.3,1.7-0.4l0,0c0.1,0,0.3,0,0.3-0.1l0,0c1.8-0.6,3.7-1.4,5.4-2.6
		c-0.6,1.4-1.3,2.8-2.1,4l-1,1l1.4-0.4c3.1-0.9,6-2.6,8.2-5c-0.1,1.3-0.4,2.4-1,3.5l-0.4,1l1-0.3c0.1,0,4.4-1.1,6.5-6.8
		c0,0.1,0,0.3-0.1,0.4l-0.3,0.9l0.7-0.4c1.4-0.7,2.7-2,3.5-3.3c1,0.4,2,0.7,3,0.7c1.4,0,2.8-0.4,4-1.3c0.3,0.3,0.6,0.7,0.9,1
		c1.4,2.3,2.8,3.4,4.3,3.4c2.4,0,3.8-3,3.8-3.1l1.8-3.8L67.4,77.1z M58.2,72.8c-0.4,0.4-0.4,1.1-0.3,1.6c0.1,0.4,0.3,0.7,0.6,1.1
		c-1.7,1.7-4.4,1.7-6.1,0l0,0c0.4-1.6,0.6-3.1,0.1-4.7c0.3,2.8-0.9,5.5-2.8,7.5c0.4-1.6,0.6-3.1,0.6-4.7c-0.1,1.6-0.6,3.1-1.3,4.5
		c-0.3-1.4-0.7-3-1.3-4.4c0.3-1,0.6-2.1,0.6-3.3c-0.6,3.1-2.1,6-4.5,7.9c0.6-1.4,0.9-3,1-4.4c-0.4,1.6-1.1,3-2,4.4
		c-0.1-1-0.4-3.4-0.4-4.4c0.6-1.3,1-2.6,1.3-3.8c0,0-2,6.1-5.4,7.7c0.7-1.4,1.3-3,1.7-4.5c-0.7,1.4-1.4,2.8-2.4,4.1
		c0.1-1.7,0.3-6.2,0.1-7.9c0.4-0.7,0.7-1.4,1-2.3c0,0-3,5.8-8.2,7.2c1.1-1.6,2.1-3.1,3-5c-1,1.6-2.1,3-3.5,4.3
		c0.6-1.8,1.8-6.1,2.3-8.4c0.9-1.4,1.3-3,1.6-4.5c-0.6,1.8-1.6,3.7-2.8,5.3c-2,2-4.7,3.3-7.5,3.5c1.6-1,3-2.3,4-3.8
		c-1.4,1.4-3,2.4-4.7,3.3c2.8-3.8,5.1-7.9,6.8-12.4c0,0-1,1.7-2.3,4c-1.1,1-4.3,3.4-10.1,2.7c2.3-0.7,4.4-2,6-3.8
		c-1.8,1.7-4.3,2.8-6.8,3.1c3.1-3,5.7-6.2,7.8-9.9c1.3-0.3,2.4-0.9,3.5-1.4c-2,0.7-4.1,1.1-6.2,1.1l0.1-0.3l0.4-0.3l1.4-1l-2.1,1
		l-0.3,0.6c-2.6-0.1-5.1-0.7-7.4-1.7c2.8,0.3,5.8-0.1,8.5-1c-3,0.6-6,0.6-8.8,0l6.1-2.1l2.1,0.4l1.7-0.3l-1.6-0.1l-1-0.1l0.9-0.4
		l-1,0.1c2-0.7,3.5-1.3,4-1.4h-2.7c-4.1-0.9-7.9-2.3-11.6-4.4c2.6,0.9,5.1,1.3,7.8,1.1c-2.8-0.1-5.5-0.9-8.1-2.1
		c3.8,0.3,7.7,0.3,11.5,0c0.7,0.1,1.4,0.3,2.1,0.3c-5.8-1.7-11.2-4.7-15.9-8.7c3,1.7,6.2,2.8,9.7,3.4c-3.4-0.7-6.5-2.1-9.5-4.1
		c3.1,1,10.4,3.3,14.5,3.1l-1.7-0.3l-1.8-0.9c-6.1-2.8-11.5-7-15.8-12.2c4.5,3.4,9.7,6.1,14.9,8.1c-5.1-2.1-10.1-5-14.3-8.5
		c4,1.7,15.6,6.7,18.5,7.2c0,0-4.1-1.6-8.8-3.5C8.1,20.1,3.6,15.3-0.1,9.6c4.7,5.1,10.1,9.5,16.2,13.1C10,18.9,4.6,14.3,0.1,8.9
		c2.6,2.3,5.4,4.4,8.1,6.4l1.1,1.6l-0.8-1.3c1.7,1.1,3.4,2.3,5.4,3.4l1,1.6l-0.6-1.4c2.6,1.4,5.1,2.7,7.8,3.7
		c-2.7-1.3-5.4-2.8-8.1-4.4c-0.9-0.7-2.1-1.8-3.5-3.3v-0.6L10.2,15h-0.1l0.4-1.1l-0.6,0.7c-4.1-4-7.5-8.5-10.4-13.5
		C2.3,5.2,5.7,8.9,9.6,12.2C6.2,8.8,3.1,5.1,0.2,1.3c4,3.5,8.1,6.8,12.4,9.9l1.1,1.6L13,11.6c2,1.4,4.1,2.7,6.2,3.7
		c0,0-3.8-2.4-8.7-6.1c-0.7-1-2-2.4-3.3-4.1l2,1.4l-2.4-2C4.4,1.3,2.1-2.3,0.2-6C3.5-1.3,7.3,2.9,11.4,6.8c-4-4-7.5-8.4-10.6-13.1
		c1.7,1.7,4.7,4.7,7.5,7.4l1.6,2.6L9.2,2c1.6,1.6,3.1,3,5,4.3c1.4,1.8,3,3.4,4.7,5c-1.6-1.8-3.1-3.7-4.5-5.7l1.3,1L14,4.9
		C11.5,1.6,9.5-2,8.2-5.8c1.8,3.3,4,6.4,6.5,9.1C12.4,0.6,10.6-2.4,9-5.5c0.4,0.7,1.1,1.4,1.8,2.4c3,4.3,6.5,8.2,10.4,11.8
		c-1.8-2-3.5-4-5-6.1c1.3,1.4,2.8,2.7,4.3,4c4,3.7,7.4,7.9,10.4,12.5l0,0c0.9,1.7,1.7,3.4,2.4,5.1l-4-6.5c0,0,3.5,6.7,5.3,10.5
		c0.3,1.1,0.4,2.1,0.7,3.3c0,1,0,1.8-0.3,2.8s-1.8,3.7-4.3,4c0.6,0,1.3,0,1.8-0.3c-0.3,0.6-0.4,1.1-0.6,1.7
		c-0.1,2.8,0.3,5.7,1.1,8.4c-1.3-1.8-2.4-4-3.1-6.1c0.7,3.7,2.4,7,5,9.8c1.3,2,3,3.7,5,5c-2.4-0.9-4.7-2.3-6.5-4
		c3,3.4,7.2,5.5,11.8,5.8l0.6,0.1c0.9,0.1,1.7,0.1,2.7,0.3c1.7,1,2.8,2.8,3.1,4.7c-1.6,0.3-4,0.1-7.8-2.1c0,0,4.4,3.5,7.8,2.4
		c0,0.6,0,1.3,0,1.8c0.1-0.6,0.1-1.3,0-1.8c0.7-0.3,1.3-0.7,1.8-1.3c-0.6,0.4-1.1,0.9-1.8,1c0-1.8-0.9-3.5-2.4-4.7h0.6
		c1.3,0.1,3-0.1,5.3,4.1c-0.1-0.7-0.4-1.3-0.9-1.8c0.3-0.1,0.6-0.1,0.9,0c2,0.3,3.8,1.4,4.8,3.1c1.6,2.7,3,4.3,1.7,8.2
		c0.4-0.6,0.7-1.3,1-2c0.4,0.6,0.7,1,1,1.7c-0.3,0.7,0.7,1.8,0.7,1.8c-0.6-1.8-0.1-1.8,0-1.8c0.4-0.1,0.9,0,1.1,0.3
		c0.6,1.4,2,5.4-0.3,7.4c-1.8,0.7-3.5-0.7-4.1-1.6c0.6,0.3,1,0.4,1.6,0.4C57.6,76.1,58.2,72.7,58.2,72.8L58.2,72.8z M42.5,84
		c0.1-1.1,0.4-3,0.6-4.1c2-1.6,3.4-3.5,4.3-6c0.1,0.6,0.4,1.4,0.6,2.4c-0.6,3.1-2.3,5.8-4.5,7.8c0.6-1.1,1.1-2.3,1.4-3.5
		C44.2,81.9,43.5,83,42.5,84L42.5,84z M35.6,84.8c0.4-1.1,1.3-3.3,1.7-4.3c0.4-0.6,0.7-1.1,1-1.7c1.6-1.1,2.7-2.6,3.5-4.1
		c0.3,2,0.3,4.1,0,6.1l0,0c-1.3,2.1-3.3,3.7-5.7,4.5c1.3-1.3,2.4-2.8,3.3-4.5C38.4,82.3,37.1,83.6,35.6,84.8L35.6,84.8z M30.3,83.3
		c1-1.7,1.8-3.5,2.4-5.4c1.3-0.9,2.4-2,3.4-3.1c0,0-5.7,5.8-13.2,6.1c1.7-0.9,3.4-1.8,5-3c-1.7,1-3.4,1.7-5.3,2.3
		c1.4-1.6,2.6-3.1,3.7-4.8c1-0.4,2-1.1,2.8-2c-0.3,0.9-0.7,1.7-1.1,2.4c3.7-0.4,7-2.4,8.9-5.5c0.1,3.1-0.1,6.4-0.9,9.5
		c0.7-0.3,1.4-0.6,2-1c-1.8,2.4-4.4,4.3-7.4,5.1c1.4-1.4,2.7-2.8,3.8-4.4C33.3,80.9,31.9,82.2,30.3,83.3L30.3,83.3z M22.7,76.1
		c-1.8,0.6-3.8,0.9-5.8,0.9c1.8-0.9,3.7-1.8,5.4-3.1c-1.8,1-3.8,1.7-5.8,2.3c1.7-1.7,3.3-3.4,4.8-5.3c2.7,0,5.3-0.9,7.5-2.3
		c1-0.4,1.8-1.1,2.6-2c-0.3,1.1-1,3.7-1.8,6c-1.8,1.4-4,2.6-6.2,3.3l0.4-1.3L22.7,76.1z M8.5,72.4c3.1-1.8,6-4.1,8.4-6.7
		c1-0.3,1.8-0.7,2.7-1.1c2.4,0,4.7-0.9,6.7-2.3c-1.7,3-3.5,5.8-5.8,8.5c-1.3,0.6-2.4,1-3.7,1.4l0.3-1l-0.7,1.1c-2.4,0.7-5,1.1-7.5,1
		c2.8-0.9,5.7-2.1,8.4-3.5C14.3,71,11.5,71.8,8.5,72.4L8.5,72.4z M1.2,65.9c5.1-2.3,9.9-5.1,14.5-8.2c1.3,0.3,2.7,0.3,4,0.1
		c-1.8,2.3-4,4.7-5.3,6c1.1,0.4,2.3,0.7,3.5,0.9c-3,1.3-6.1,2-9.4,2.4l1-1.1l-1.7,1.3c-2,0.1-4,0.1-6.1-0.3c3.5-0.6,6.8-1.8,9.9-3.5
		C8.5,64.6,4.9,65.6,1.2,65.9z M4.2,60.1C1.6,59.7-0.8,59-3,58c3.4,0.7,7,0.6,10.2-0.4c-3.7,0.7-7.7,0.3-11.2-1
		c3.4,0,6.7-0.9,9.7-2.6c0.9,0,1.6,0,2.4,0l0,0c0.6,0.6,1.1,1,1.8,1.4l0,0c1.4,0.9,2.8,1.6,4.5,2C13.7,58,12,59,9.9,60.2
		c-1.8,0.1-3.7,0-5.5-0.3L5.1,59L4.2,60.1z M-0.8,46.8l12.6,2.7l-1.4,0.1c0,0,5.8,4.8,12.9,3.4c-0.6,0.7-1.7,2.1-3.1,4
		c-3.1,0.3-6.4-0.3-9.2-1.6l0.3-1l-0.6,1h-0.1l0,0c0,0-3-1.6-3.8-3.5c0.1,0.6,0.4,1.1,0.7,1.7c-1.1,0-2.1,0-3.3-0.1l0.1-0.7
		l-0.4,0.6c-3.8-0.6-10.3-2.3-18.1-8.1c4.8,2.6,9.9,4.3,15.3,4.8c-5.5-1-10.8-3-15.6-5.8l9.2,2l9.5,3.1L-0.8,46.8z M6.3,46.6
		c-0.6-0.4-1.1-0.7-1.7-1.1c-1.4-1.4-2.7-3.1-3.7-4.8c0.3,1.3,0.9,2.4,1.7,3.4c-2-1.4-3.5-3.4-4.8-5.5l0.3,2.3
		c-7.7-1.7-14.5-5.7-19.9-11.4c4.3,3.1,9.1,5.4,14.2,6.8c-5.1-1.7-9.9-4.4-14.2-7.8c5.3,2.6,10.6,4.7,16.2,6.4l0.2,0.7l0.1-0.9
		c2.3,0.7,4.7,1.4,7.1,2c2,1.6,4.1,3,6.4,4.1c2.7,2,7.9,5.1,13.5,5.4h0.1c-2.7,1.1-5.5,2.1-8.4,2.8l-4.3-0.9
		c-0.6-0.4-1.4-0.9-2.4-1.4l0.1-1.3L6.3,46.6z M0,34.4c-0.4-0.6-0.9-1-1.1-1.6c0.3-0.9,0.4-1.8,0.3-2.8c0,0-0.4,3.3-1.6,3.4
		c-1.4-1-2.7-2.1-4-3.4c-1-1.4-1.8-2.8-2.4-4.5c0,0,0.4,1.7,0.6,2.3s-0.7-0.9-0.7-0.9l-1-1.6l1.3,2.4c-1.4-1.6-2.6-3.3-3.7-5
		l0.3,1.4c-2.7-0.7-5.3-1.8-7.5-3.3c-2-1.4-3.8-3.1-5.5-5c1,1.3,2,2.4,3.1,3.4c-3.7-2.6-6.8-5.8-9.2-9.5c4.5,4.1,9.7,7.4,15.2,9.9
		c-5.8-2.8-11.2-6.8-15.8-11.5c4.5,3.1,9.4,6,14.3,8.5c-1.3-0.3-2.4-0.7-2.4-0.7c2,1.1,4.1,2,6.4,2.7c2,1,4.1,1.7,6.2,2.4
		c3.4,3.5,7.4,6.5,11.6,8.9c2.1,2.3,8.1,7.9,15.3,10.2c-2.7,0.1-10.5,0.3-13.5-1l0,0c-2.3-1.1-4.3-2.7-6.1-4.5l0.4-1L0,34.4z
		 M-9.7,16.9c-0.3-0.4-0.6-0.7-0.7-1.1l0.6-1l-0.9,0.6c-0.6-1-1.1-2-1.7-3.1c-0.4-1-0.6-2.1-0.4-3.3c-0.3,0.5-0.6,1.1-0.6,1.7
		c-1.4-1-2.7-2.1-4-3.3V6.8L-18,6.1l0.3-1.8l-0.6,1.8l0.3,0.6v0.4c-3.7-3.4-7-7.2-9.9-11.2l0.7,0.3l0,0l0.4,0.9l-0.1-0.6l0.3,0.3
		l0.3,0.6l1,1l3.3,3l-3.8-3.8l0.9,0.9l0.9,0.6l-1.6-1.6l-1.6-1.4l-1-0.9c-0.4-0.7-1-1.3-1.4-2l1.1,0.3l-1.6-1
		c-1.4-2.1-2.8-4.5-4.1-7.1c8.1,10.9,18,20.2,29.5,27.3c-10.9-7.1-20.4-16-28-26.5c3.7,4.1,7.5,8.1,11.5,11.9l2.4,3.4l-1-2l1.6,1.8
		l-0.4-0.9c4.1,3.7,9.1,7.9,14.8,12.2c2.8,3,6,5.7,9.4,8.1c-5-4.1-9.5-8.8-13.3-14.1l1-1.6l-1,1.1c-2-2.5-3.4-5.2-4.4-8.2l1.4,0.6
		l-2.7-2.3l0.1-1l-0.6,0.7l-0.3-0.3v-2l-0.9-1.7c0-0.3,0-0.7,0-1c0,0-0.3,1.6-1.1,2.1l-0.3-1.1V-7c-0.1,0-0.4,0-0.6,0
		c0,0-2.6-3.3-5.7-8.1V-16l0.4,0.3l0.7,1.1l-0.3-1.1l0.1-0.4l0.6-1c3.1,3.7,6.4,7.1,10.1,10.2c-3.5-3.3-6.8-6.8-9.8-10.5l0.1-0.1
		l-0.1,0.1c-3-3.7-5.8-7.7-8.2-11.8c6.8,9.8,14.9,18.6,24,26.3c1.6,3.3,3.8,6.2,6.5,8.7C-1.2,2.7-3.3-0.6-5.2-4.3L-5.1-5l0.7-2.2
		l-0.6,2L-5.2-6l0.1,0.9v0.3l-0.1,0.4c-0.6-1.1-1-2.4-1.1-3.7c-0.1-0.6,0-1.1,0.3-1.7c-0.4,0.2-0.7,0.6-0.7,0.9
		c-0.7-0.9-2.1-2.8-4-5.5l0.3-0.8l-0.4,0.4c-0.4-0.6-0.9-1.3-1.3-2v-0.3l0,0l0.3-0.9l-0.4,0.6l-1.3-3.5l0.6,2.1l-0.6-0.4l-0.3-0.1
		l0.9,1.1l0.1,0.3v0.6c-3.3-5.4-6-11.2-8.1-17.2c1.8,3.8,3.8,7.5,6,11.2c2.5,4.4,5.6,8.4,9.3,11.9c-3.5-3.5-6.5-7.6-8.9-12
		c-1.4-2.6-2.8-5.3-4.1-7.8c3.4,6.2,7.5,12.1,12.1,17.5h-0.4l0.7,0.9l-1.4-1l2.6,2.1c1.3,1.3,2.7,2.9,4.1,4.3
		c2,4.1,5.7,10.9,9.7,14.9l1,1C5.2,5.3,1.1,1.4-2.6-2.7c0,0,1.6,7.7,13.9,19.6C6.2,13.6,1.4,9.8-3,5.5c0,0,1.4,7.2,14.5,18
		c-4-1.6-7.8-3.4-11.5-5.4c0,0,6.8,10.9,18.9,15.6c-3.8-1-9.9-2.6-13.5-4l0,0c-4.1-2.3-7.8-5.1-11.1-8.4L-6,20.6l-0.1-1.4
		c3,3.3,6.4,6.1,10.1,8.5c-3.5-2.6-6.8-5.5-9.8-8.8l0.7-0.6l-1,0.6c-2.6-2.7-4.4-5.7-5.8-9.1c0,0,0.7,3.8,5.5,9.2h-0.1l0.1,0.9v0.9
		C-7.6,19.6-8.6,18.3-9.7,16.9l0.6-0.7L-9.7,16.9z M-23.8-17l-0.4-0.4l0.6,0.9l0.1,0.9l0,0c-0.6-0.9-1.3-1.8-1.8-2.8l0.1-0.7
		l-0.4,0.6c-2.6-4.1-4.8-8.4-6.5-12.9c3.1,5.3,6.7,10.1,10.6,14.8l-0.6,0.9l-0.1-0.9v0.9h-0.4l-0.3,0.3l-0.4-1l-0.6-1.7L-23.8-17z"
		/>
	<path class="st1" d="M23.2,19.6c0.4,1,1.1,1.7,2,2.1c-0.3,1.8,0.7,3.7,2.3,4.7c-2.1-2.1-1.8-3.8-1.7-4.4c0.1-0.3,0.4-0.6,0.7-0.7
		c-0.3-0.1-0.7,0-1,0.1c-1-0.6-1.7-1.6-2.1-2.6c-0.3-0.9,0-1.6,0.4-2.3c-0.3,0.1-0.4,0.3-0.7,0.6c-1.6-1.4-2.4-3.5-2.1-5.5
		c-0.6,2.3,0.3,4.5,1.8,6.1C22.8,18.5,23,19.2,23.2,19.6z"/>
	<path class="st1" d="M24.8,37.6c0.4-2.6,1.7-3,2.1-3.1c0.3,0.4,0.7,0.9,1.3,1.1c-0.4-0.6-0.7-1-1-1.6l0,0c-0.4-0.7-0.6-1.3-0.7-1.4
		c-0.6-1.4-1-3.7,1-5c-0.9,0.1-1.6,0.6-1.8,1.4c-1.6-1.3-2.1-3.4-1.3-5.1c-0.1,0.1-0.3,0.3-0.3,0.4c-1.3-0.7-2-2.1-2.1-3.5
		c0,0-0.9,1.6,2,4c-0.4,1-0.7,2.8,1.7,5.1c0,1,0.1,2,0.4,2.8c0.1,0.4,0.3,0.9,0.6,1.3l0,0c-1.6,0.7-2.4,2.4-2.3,4.1
		c0.1,2.4,1.4,4.7,3.4,6.1C27.6,44,24.2,40.7,24.8,37.6z"/>
	<path class="st1" d="M27.8,44.4c-2.7,4,2.6,6.4,2.6,6.4C26.2,47.6,27.8,44.4,27.8,44.4z"/>
	<path class="st1" d="M39.8,60.1c0.3-0.1,0.4-0.3,0.7-0.4c-4.5,1.7-7.4-3.4-7.4-3.4c2.4,5,4.8,4.8,6.2,4.1c0,0.6,0.4,2.4,3.3,4
		C42.5,64.3,39.7,62,39.8,60.1z"/>
	<path class="st1" d="M55.7,69.3c0.1-0.3,0.3-0.4,0.3-0.7c-1.6,2.6-4.3-0.1-4.7-0.4c0.1-0.3,0.3-0.6,0.3-0.9
		c-0.1,0.3-0.1,0.4-0.3,0.7l0,0v0.1c-0.7,0.9-1.7,1.5-2.8,1.5c-2.4-0.4-4.4-2.1-5.3-4.4c0.4,3.7,4.4,4.7,4.4,4.7
		c1.3,0.4,2.7,0,3.4-1.1c2.3,1.8,3.5,1.7,4.3,1.1c0.6,1.1,1.6,1.8,2.8,1.8C56.9,71.4,56,70.4,55.7,69.3z"/>
	<path class="st2" d="M23.7,11.6L23.7,11.6L23.7,11.6z"/>
	<path class="st1" d="M27.6,30.4c1.1-0.6,2.3-0.6,3.4,0c0,1.4,0,3-0.3,4.4c0.4-1.4,0.7-2.8,0.7-4.3c1,0.6,2,1.3,2.7,2.1
		c-0.7-1.1-1.6-2-2.7-2.6c0-4-1.4-10.4-7.5-18.2c1.1,1.6,6.4,9.1,7.1,18C29.8,29.5,28.5,29.7,27.6,30.4z"/>
	<path class="st2" d="M23.8,11.8L23.8,11.8L23.8,11.8z"/>
	<path class="st1" d="M30.6,68c-2.6,2.3-5.8,3.5-9.2,3.3C24.8,72.8,28.9,71.4,30.6,68z"/>
	<path class="st1" d="M27.9,76.4c0,0,6.8,0.9,8.8-4.8C36.6,71.7,34.9,75.4,27.9,76.4z"/>
	<path class="st1" d="M41.8,75.5c-0.4,1.6-1.7,3-3.1,3.7C38.6,79.2,41.8,79.4,41.8,75.5z"/>
	<path class="st1" d="M47.5,74.8c0,0-0.4,2.6-3.8,5.3C45.9,79.5,47.5,77.2,47.5,74.8z"/>
	<path class="st1" d="M47.9,73.7c1.4-1,0.7-3.3,0.7-3.3C48.6,71.5,48.4,72.7,47.9,73.7z"/>
	<path class="st1" d="M24.9,63.9c0,0-3.7,1.4-5.1,1.1c-0.9,0.4-1.7,0.9-2.7,1.1C17.3,66,22.7,66.3,24.9,63.9z"/>
	<polygon class="st1" points="18.3,58.9 18.7,58.3 16,58.1 12.6,60.3 16,58.6 	"/>
	<path class="st1" d="M22.1,53.9c-4.1,0.4-8.4-0.9-11.5-3.5C10.6,50.4,15.3,56.8,22.1,53.9z"/>
	<path class="st1" d="M20.5,46.4c0,0-8.2-0.3-12.5-5.4c-2.4-0.7-4.7-2-6.2-4c0,0,0,1.7,6,4.7C7.6,41.7,14.2,48.1,20.5,46.4z"/>
	<path class="st1" d="M18.4,39.8C13,38.2,8.3,35,4.8,30.6c-4.7-2.2-9-5.5-12.2-9.3c0,0,2.8,5.4,11.8,10.1
		C7.9,35.8,12.9,38.8,18.4,39.8z"/>
	<path class="st1" d="M15.7,32.7C9,29.6,3.5,24.6-0.3,18.4C-0.3,18.3,2.5,28.3,15.7,32.7z"/>
	<path class="st1" d="M2.4,18.7c-2.4-1.8-4.5-3.8-6.5-6C-2.7,15.5-0.5,17.6,2.4,18.7z"/>
	<path class="st1" d="M-3.3,5.5c0,0,0.6,8.8,11.2,15.3C7.9,20.9-0.2,14.9-3.3,5.5z"/>
	<path class="st1" d="M6.2,5.1c0,0-5.4-7-7.2-12.4c-1.8-1.6-3.1-3-3.1-3l2.7,3.1C-1.5-7.1,1.7,0.9,6.2,5.1z"/>
	<path class="st1" d="M-5.9,26.3L-6.3,26l-0.6-0.6L-8,23.1l0.7,1.8l-0.4-0.3L-8.1,24v0.3l-0.4-0.4l-2.2-2.3l0.4,2.1l-0.1-1.6l0.4,1
		c0,0,0.1-0.3,0-0.4l1.7,2l2.3,2l1.8,0.1l-1.4-0.6L-5.9,26.3z"/>
	<path class="st1" d="M8.9,8.8L8.6,8.5L7.3,7.8l1.1,0.7l0.7,1.4c0,0-3.3-3-3.4-3s4.4,4.3,4.4,4.3l0.6,1l0.6,0.4l-1.1-1.7L8.9,9.2
		l3.1,1.7L8.9,8.8z"/>
	<path class="st1" d="M8,54.9c1.6,1.4,3.4,2.3,5.4,2.7c-2-0.6-3.8-1.7-5.4-3.3c-0.9,0.1-1.6,0.1-2.4,0C6.3,54.8,7.2,54.9,8,54.9z"/>
	<path class="st2" d="M23.7,62.2l-0.6,0.3C23.2,62.5,23.4,62.3,23.7,62.2z"/>
	<path class="st1" d="M23.7,62.2c1-0.4,2.7-1.3,3-1.6c0.9-1.1,1.6-2.4,2.1-3.7C27.5,59.1,25.8,60.9,23.7,62.2z"/>
	<path class="st1" d="M31.5,68.6c1.3-2.1,2.1-4.5,2.3-7.1c-0.3,1.7-0.9,3.3-1.6,4.7L31.5,68.6z"/>
	<path class="st1" d="M37.9,69.8c0,1.6,0,3.7,0,3.7c0.1-1.8,0.6-3.7,1.1-5.5C39,67.9,38.3,69.7,37.9,69.8z"/>
	<path class="st1" d="M42.5,74.2c0,0,1.6,0.1,1.1-3.7C43.5,71.8,43.1,73.1,42.5,74.2z"/>
	<polyline class="st2" points="24.4,53.4 24.5,53.4 24.4,53.4 	"/>
	<path class="st1" d="M27.9,52c-1.1,0.6-2.3,1.1-3.4,1.4C25.8,53.4,27.1,53,27.9,52z"/>
	<path class="st0" d="M112.7,87.3l-0.4-0.4c-0.9-1.3-1.6-2.6-2.3-4l-0.4-0.7l0.7,0.4c1.6,1.1,3.4,2,5.3,2.4l0,0l0,0h0.1h0.1
		c0.6,0.1,1.1,0.3,1.7,0.4h0.4l-0.4-0.3c-1.6-1.7-2.7-3.7-3.7-5.7l-0.3-0.6l0.6,0.4c3,1.7,6.2,2.6,9.7,2.6c0.4,0,1,0,1.4,0h0.4v-0.6
		c-1.7-1.4-3.1-2.8-4.4-4.5l-0.4-0.6l0.7,0.3c2.8,0.9,5.8,1.3,8.8,1.3c1,0,1.7,0,1.7,0h0.6l-0.4-0.3c-2-1.3-3.7-3-5.3-4.7l-0.7-0.9
		l1,0.4c2.7,1.3,5.7,1.8,8.7,1.8c1.6,0,3.1-0.1,4.7-0.6l0.6-0.1l-0.6-0.1c-2.1-0.6-6.2-3.8-8.5-5.8l-0.7-0.6l1,0.3
		c2.6,0.6,5.1,1,7.7,1c3,0,6-0.4,8.9-1.3l0.7-0.3l-0.7-0.1c-2-0.1-5.5-1.8-10.5-4.7l-0.7-0.4h1.3c8.5,0,15.5-5.5,15.5-5.5l0.4-0.4
		h-0.6c-1.3,0.1-2.4,0.1-3.7,0.3c-2.6,0-5.3-0.4-7.7-1.3l-0.7-0.3l0.9-0.1c10.9-1.8,20.6-10.8,20.7-10.9l0.4-0.4l-0.6,0.1l-22.5,4.8
		l-1.1,0.3l1-0.6c2.1-1.6,4.3-3.3,6-5.3l0,0l0,0c14.8-2.7,25.3-16.5,25.3-16.6l0.9-1l-1,0.9c-5.8,4.7-19.9,8.9-25.7,10.6l-0.7,0.3
		l0.6-0.6c0.3-0.4,0.7-0.7,1-1.1l0.1-0.3l0.1,0.3c0.1,0.1,0.3,0.3,0.4,0.4h0.1h0.1c4.1-1.8,8.7-8.2,9.2-9.1l0,0l0,0
		c7.1-2.3,13.3-6.4,18-12.1c2.1-2.3,3.8-5,5.1-7.8l0.3-0.7l-0.6,0.6c-5.8,5.4-19.3,11.8-24.8,14.2l-0.9,0.4l0.6-0.7
		c1.8-2.1,3.3-4.7,4.3-7.4l0,0l0,0c17.6-12.9,24.4-32.6,24.4-32.8l0.4-1.3l-0.7,1.1c-5.8,9.1-20.7,22.1-29.2,29.2l-1.3,1.1l1-1.4
		c2.3-3,4-6.4,4.8-9.9l0,0l0,0l1.8-1.6l0,0l0,0l-0.1-2.1v-0.1l0.3-0.6l0.1-0.4l0.3,0.4c0.3,0.6,0.7,1,1.1,1.3h0.1l0.1-0.1
		c7.9-8.9,13.9-19.6,17.5-30.9l0.3-1l-1,0.1c-13.8,20-23.4,29-26.8,31.8L152-4.4l0.3-0.9l0.3-0.7l0.1-0.4c0.1-0.4,0.3-1,0.4-1.4l0,0
		l0,0C167-26,169-41,169-41.2l0.1-1l-0.4,1c-5.1,11.2-11.8,21.6-20,30.7l-0.9,0.9l0.6-1.1l0.1-0.1l0.7-1.6l-1,1.4
		c-2.8,4.3-9.8,10.6-13.8,14.1l-1.1,1l0.9-1.3c2.4-3.8,4.1-8.1,5-12.5l0.1-1.1l-0.4,1c-1.8,4.1-6.7,9.7-12.9,15.3
		c-2.8,2.7-5.5,5.5-7.9,8.5c-0.6,0.7-1.1,1.4-1.7,2.1l-0.1,0.3L116,17c-2.6,4-4.4,8.2-5.5,12.8c-0.4,1.7-0.4,3.4-0.3,5.1
		c0.4,1.1,1.1,2,2,2.8l0,0l0,0c0.1,0.3,0.3,0.4,0.4,0.7c0,0.1,0.1,0.3,0.3,0.4l0.1,0.1l0.3,0.6l0,0c0.4,6.1-2,11.9-6.5,15.9
		c-3.3,2.7-8.1,2.8-10.6,2.8c-0.6,0-1,0-1.6,0.1c-1,0.3-1.8,1-2.6,1.8l0,0h-0.1c-1.6,0.1-3,0.7-4.3,1.6c-2.4,1.8-4,4.4-4.7,7.2
		c0,0.3,0,0.4,0,0.7v0.1l0,0l0,0c-0.1,0.1-0.1,0.3-0.3,0.3c-0.3,0.3-0.6,0.6-0.7,0.9L81.8,71v0.3h-0.2c-0.1,0-0.4,0-0.6,0h-0.1h-0.1
		l-0.4-0.4c-1,1.1-1.6,2.7-1.7,4.3c0.1,0.6,0.1,1.3,0.1,1.8l0.1,0.9L78.2,77l-0.9-1l0.9,1.7c0,0.1,1.4,3,3.7,3
		c1.4,0,2.7-1.1,4.1-3.3l0,0l0,0c0.3-0.3,0.6-0.6,0.9-1l0.1-0.1l0.1,0.1c1.1,0.9,2.4,1.3,3.8,1.3c1,0,2-0.3,2.8-0.6l0.1-0.1l0.1,0.1
		c0.9,1.4,2,2.6,3.4,3.3l0.3,0.1l-0.1-0.4c0-0.1-0.1-0.3-0.1-0.4l0.4-0.1c2,5.5,6.1,6.7,6.2,6.7l0.4,0.1l-0.3-0.4
		c-0.6-1.1-0.9-2.4-1-3.7l-0.1-0.9l0.6,0.6c2.3,2.3,5,4,8.1,4.8L112.7,87.3L112.7,87.3z"/>
	<path class="st1" d="M76.2,74l1.8,3.8c0,0.1,1.6,3.1,3.8,3.1c1.4,0,3-1.1,4.3-3.4c0.3-0.3,0.6-0.6,0.9-1c1.1,0.9,2.6,1.3,4,1.3
		c1,0,2-0.3,3-0.7c0.9,1.4,2.1,2.6,3.5,3.3l0.9,0.4l-0.3-0.9c0-0.1,0-0.3-0.1-0.4c2,5.7,6.2,6.8,6.5,6.8l1,0.3l-0.6-0.9
		c-0.6-1.1-0.9-2.4-1-3.5c2.3,2.4,5.1,4.1,8.2,5l1.4,0.4l-1-1c-0.9-1.3-1.6-2.6-2.1-4c1.6,1.1,3.4,2,5.3,2.4l0,0
		c0.1,0.1,0.3,0.1,0.3,0.1h0.1c0.6,0.1,1.1,0.3,1.7,0.4l1.1,0.1l-0.9-0.9c-1.6-1.7-2.8-3.7-3.7-5.8c3,1.7,6.4,2.6,9.8,2.6
		c0.4,0,1,0,1.4,0l1-0.1l-0.7-0.6c-1.6-1.3-3.1-2.8-4.4-4.5c2.8,0.9,6,1.3,8.9,1.3c1,0,1.7,0,1.7,0l1.3-0.1l-1.1-0.6
		c-2-1.4-3.7-3-5.3-4.8c2.7,1.3,5.7,1.8,8.7,1.8c1.6,0,3.3-0.1,4.8-0.6l1.4-0.4l-1.4-0.4c-2-0.6-6.1-3.8-8.5-5.8
		c2.6,0.6,5.1,1,7.8,1c3,0,6.1-0.4,8.9-1.3l1.7-0.6l-1.8-0.1c-2-0.1-5.5-1.8-10.4-4.7h0.4c8.5,0,15.6-5.5,15.6-5.7l1-0.9l-1.3,0.1
		c-1.3,0.1-2.4,0.1-3.7,0.3c-2.6,0-5.1-0.4-7.7-1.3c11.1-2,20.7-10.9,20.9-10.9l1-1l-1.4,0.3l-22.3,4.7l0,0c2.3-1.6,4.3-3.3,6.1-5.3
		c14.8-2.7,25.4-16.5,25.4-16.6l1.8-2.6l-2.4,2c-5.8,4.7-20.3,9.1-25.6,10.5c0.3-0.4,0.7-0.7,1-1.1c0.1,0.1,0.3,0.3,0.4,0.4l0.1,0.1
		l0.1-0.1c4.1-1.8,8.7-8.2,9.4-9.1c7-2.1,13.2-6.2,18-11.8c2.1-2.4,3.8-5,5.1-7.8l0.7-1.7l-1.3,1.3c-5.7,5.4-19,11.6-24.8,14.2
		c1.8-2.1,3.3-4.7,4.3-7.4c17.6-12.8,24.4-32.5,24.6-32.6l1-3l-1.7,2.7c-5.8,9.2-21.4,22.9-29.1,29.2c2.3-3,4-6.4,4.8-9.9l1.8-1.7
		l0.1-0.1l0,0l0.2-2.3l0.3-0.6c0.3,0.6,0.7,1,1.3,1.3l0.3,0.1l0.1-0.1c7.8-8.9,13.8-19.6,17.5-30.9l0.6-2.1l-1.3,1.8
		c-13.8,20-23.3,28.8-26.8,31.8l0.3-0.7l0.1-0.4c0.3-0.4,0.4-1,0.4-1.6c13.9-18.2,15.9-33.2,15.9-33.4l0.3-2.4l-1,2.3
		c-5.1,11.2-11.8,21.4-20,30.5l0.1-0.1l1.6-3.7L148-11c-2.8,4.1-9.7,10.5-13.6,13.9c2.4-3.8,4.1-8.1,5.1-12.5l0.4-2.6l-1.1,2.4
		C137-5.7,132.3-0.1,126,5.4c-2.8,2.7-5.5,5.5-7.9,8.5l0,0c-0.6,0.7-1.1,1.4-1.7,2.1l-0.1,0.1l-0.4,0.6c-2.6,4-4.5,8.4-5.5,12.9
		c-0.4,1.7-0.4,3.5-0.3,5.3l0,0c0.4,1.1,1.1,2.3,2.1,3c0.1,0.1,0.3,0.4,0.4,0.7c0.1,0.1,0.1,0.4,0.3,0.6c0,0,0,0,0.1,0.1l0.3,0.6
		c0.4,6-2,11.8-6.5,15.8c-3.3,2.6-7.9,2.7-10.5,2.8c-0.6,0-1,0-1.6,0.1c-1.1,0.3-2,1-2.7,1.8c-1.6,0.3-3,0.9-4.4,1.7
		c-2.4,1.8-4.1,4.4-4.7,7.4c0,0.3-0.1,0.4-0.1,0.7v0.1l0,0c-0.2,0.3-0.2,0.3-0.4,0.4c-0.3,0.3-0.6,0.6-0.7,0.9l-0.1,0.1
		c-0.1,0-0.4,0-0.6,0l0,0l-0.6-0.6c-1.1,1.3-1.8,2.8-1.8,4.5c-0.1,0.7-0.1,1.3,0,2L76.2,74z M83.1,78.5c0.6,0,1.1-0.1,1.6-0.4
		c-0.7,0.9-2.3,2.3-4.1,1.6c-2.4-2-1-6-0.3-7.4c0.3-0.3,0.7-0.4,1.1-0.3c0.1,0,0.6,0.1,0,1.8c0,0,1-1.1,0.7-1.8
		c0.3-0.6,0.6-1.1,1-1.7c0.3,0.7,0.6,1.4,1,2c-1.4-4,0.1-5.5,1.7-8.1c1.1-1.7,2.8-2.8,4.8-3.1c0.3-0.1,0.6-0.1,0.9,0
		c-0.4,0.6-0.6,1.3-0.9,1.8c2.3-4.3,4-4,5.3-4.1h0.6c-1.4,1.1-2.3,2.8-2.4,4.7c-0.7-0.1-1.3-0.4-1.8-1c0.4,0.6,1.1,1,1.8,1.3
		c0,0.6,0,1.3,0.1,1.8c0-0.6,0-1.3,0-1.8c3.4,1.1,7.8-2.4,7.8-2.4c-3.7,2.3-6.2,2.4-7.7,2.1c0.3-2,1.4-3.8,3.1-4.8
		c0.9,0,1.7-0.1,2.7-0.1l0.6-0.1c4.5-0.3,8.8-2.4,11.8-5.8c-1.8,1.8-4.1,3.1-6.5,4c2-1.3,3.7-3,5.1-5c2.4-2.7,4.1-6.1,4.8-9.8
		c-0.7,2.1-1.7,4.3-3,6.1c1-2.7,1.3-5.5,1.1-8.4c0-0.6-0.3-1.3-0.6-1.7c0.6,0.3,1.1,0.3,1.8,0.3c-2.3-0.4-4-3.1-4.3-4
		c-0.1-1-0.3-1.8-0.3-2.8c0.1-1.1,0.4-2.1,0.6-3.3c1.7-3.8,5.3-10.5,5.3-10.5l-4,6.5c0.7-1.7,1.4-3.4,2.4-5.1l0,0
		c3-4.5,6.5-8.8,10.5-12.5c1.4-1.3,3-2.7,4.3-4c-1.6,2.1-3.3,4.1-5.3,6c3.8-3.5,7.2-7.5,10.4-11.8c0.7-0.9,1.4-1.7,1.8-2.4
		c-1.6,3.1-3.4,6.1-5.7,8.8c2.6-2.7,4.7-5.8,6.5-9.1c-1.3,3.8-3.3,7.4-5.7,10.6L130,6.3l1.3-1c-1.4,2-3,3.8-4.5,5.7
		c1.7-1.6,3.3-3.1,4.7-5c1.7-1.3,3.4-2.7,5-4.1l-0.4,1.7l1.6-2.6c3-2.7,6-5.7,7.5-7.4c-3.1,4.7-6.7,9.1-10.6,13.1
		c4.1-3.8,7.9-8.1,11.2-12.8c-1.8,3.7-4.1,7.2-6.7,10.5l-2.4,2l2-1.4c-1.4,1.7-2.6,3.3-3.3,4.1c-4.8,3.5-8.7,6-8.7,6
		c2.1-1.1,4.3-2.4,6.1-3.8l-0.7,1.1l1.1-1.6c4.3-3.1,8.4-6.4,12.4-9.9c-2.8,3.8-6,7.5-9.4,10.9c3.8-3.3,7.2-7,10.1-11.1
		c-2.7,5-6.2,9.5-10.4,13.5l-0.6-0.9l0.4,1.1l-0.1,0.1l-0.3-0.4v0.6c-1.4,1.4-2.7,2.6-3.5,3.3c-2.6,1.6-5.3,3.1-8.1,4.4
		c2.7-1,5.3-2.3,7.8-3.7l-0.6,1.4l1-1.6c1.8-1.1,3.7-2.3,5.4-3.4l-0.9,1.3l1.1-1.6c2.8-2,5.5-4.1,8.2-6.4
		c-4.5,5.3-9.8,9.9-15.8,13.8c6-3.5,11.5-7.9,16.2-13.1c-3.7,5.5-8.4,10.5-13.5,14.6c-4.7,2-8.8,3.5-8.8,3.5
		c2.8-0.6,14.5-5.5,18.5-7.2c-4.4,3.5-9.2,6.4-14.3,8.5c5.4-2,10.4-4.7,14.9-8.1c-4.3,5.3-9.7,9.5-15.8,12.2l-1.8,0.9l-1.7,0.4
		c4,0.1,11.4-2.1,14.5-3.1c-2.8,2-6.1,3.4-9.5,4.1c3.4-0.4,6.7-1.7,9.7-3.4c-4.5,4.1-9.9,7.1-15.8,8.7c0.7-0.1,1.4-0.1,2.1-0.3
		c3.8,0.3,7.7,0.3,11.5,0c-2.6,1.3-5.3,2-8.1,2.1c2.7,0.1,5.3-0.3,7.8-1.1c-3.5,2.1-7.5,3.5-11.6,4.4l-2.8,0.1c0.3,0.1,2,0.9,4,1.4
		h-1.1l0.9,0.4l-0.9,0.1l-1.6,0.1l1.7,0.3l2.2-0.1l6.1,2c-3,0.6-6,0.6-8.8,0c2.7,0.9,5.7,1.1,8.5,1c-2.3,1-4.8,1.6-7.4,1.7l-0.3-0.6
		l-2.1-1l1.4,1l0.3,0.3l0.1,0.3c-2.1,0-4.3-0.3-6.2-1.1c1.1,0.6,2.4,1.1,3.7,1.4c2.1,3.7,4.7,7,7.8,9.9c-2.6-0.3-5-1.4-7-3.1
		c1.6,1.8,3.7,3.1,6,3.8c-5.8,0.7-8.9-1.7-10.1-2.7c-1.3-2.3-2.3-4-2.3-4c1.7,4.4,4,8.5,6.8,12.4c-1.7-0.7-3.4-1.8-4.7-3.3
		c1.1,1.4,2.4,2.8,4,3.8c-2.8-0.3-5.4-1.6-7.5-3.5c-1.3-1.6-2.3-3.3-2.8-5.3c0.3,1.6,0.7,3.1,1.6,4.5c0.6,2.3,1.8,6.5,2.3,8.4
		c-1.4-1.3-2.6-2.7-3.5-4.3c0.7,1.7,1.7,3.4,3,5c-5.3-1.6-8.2-7.2-8.2-7.2c0.3,0.7,0.6,1.6,1,2.3c-0.1,1.7,0.1,6.2,0.1,7.9
		c-1-1.3-1.7-2.6-2.4-4.1c0.4,1.6,1,3.1,1.7,4.5c-3.4-1.7-5.4-7.7-5.4-7.7c0.3,1.3,0.7,2.6,1.3,3.8c-0.1,1-0.4,3.3-0.4,4.4
		c-0.9-1.4-1.6-3-1.8-4.5c0.1,1.6,0.4,3,1,4.4c-2.4-2.1-4-5-4.5-7.9c0,1.1,0.3,2.1,0.6,3.3c-0.6,1.4-1,2.8-1.3,4.4
		c-0.7-1.4-1.1-3-1.3-4.5c0,1.6,0.1,3.1,0.6,4.7c-2-2-3.1-4.7-2.8-7.5c-0.4,1.6-0.3,3.3,0.1,4.7c-1.7,1.7-4.4,1.7-6.1,0l0,0
		c0.1-0.4,0.4-0.7,0.6-1.1c0.1-0.6,0.1-1.1-0.3-1.7C87.4,72.8,88.1,76.1,83.1,78.5L83.1,78.5z M100.9,80.8c0.3,1.3,0.9,2.4,1.4,3.5
		c-2.4-2-4-4.8-4.7-7.8c0.1-1,0.4-1.8,0.6-2.4c0.9,2.3,2.3,4.4,4.3,6c0.1,1.1,0.4,3,0.6,4.1C102.2,83,101.5,81.9,100.9,80.8
		L100.9,80.8z M106.1,80.8c0.9,1.7,2,3.3,3.3,4.5c-2.4-0.9-4.4-2.4-5.7-4.5l0,0c-0.3-2-0.3-4.1,0-6.1c0.9,1.7,2.1,3.1,3.5,4.1
		c0.3,0.6,0.6,1.1,1,1.7c0.4,1.1,1.3,3.1,1.7,4.3C108.6,83.6,107.3,82.3,106.1,80.8L106.1,80.8z M111.1,79.5
		c1.1,1.6,2.4,3.1,3.8,4.5c-3-0.9-5.5-2.7-7.4-5.1c0.6,0.4,1.3,0.7,2,1c-0.7-3.1-1-6.2-0.9-9.5c2,3.1,5.4,5.1,8.9,5.5
		c-0.4-0.9-0.9-1.6-1.1-2.4c0.9,0.9,1.8,1.4,2.8,2c1.1,1.7,2.3,3.3,3.7,4.8c-1.8-0.6-3.5-1.3-5.3-2.3c1.6,1.1,3.1,2.3,4.8,3.1
		c-7.4-0.3-13.2-6.1-13.2-6.1c1,1.1,2.1,2.3,3.4,3.1c0.7,1.8,1.6,3.7,2.4,5.4C113.8,82.2,112.4,80.9,111.1,79.5L111.1,79.5z
		 M122.2,74.7l0.4,1.3c-2.3-0.7-4.4-1.7-6.2-3.3c-0.9-2.3-1.6-5-1.8-6c0.7,0.9,1.6,1.6,2.6,2c2.3,1.4,4.8,2.1,7.5,2.3
		c1.6,1.8,3.1,3.5,4.8,5.3c-2-0.6-4-1.3-5.8-2.3c1.7,1.3,3.5,2.3,5.4,3.1c-2,0-4-0.3-5.8-0.9L122.2,74.7z M128.7,69.7
		c2.7,1.4,5.4,2.7,8.4,3.5c-2.6,0.1-5.1-0.3-7.5-1l-0.6-1.1l0.3,1c-1.3-0.4-2.6-0.9-3.7-1.4c-2.1-2.7-4.1-5.5-5.8-8.5
		c1.8,1.4,4.3,2.1,6.7,2.3c0.9,0.4,1.8,0.9,2.7,1.1c2.4,2.6,5.3,4.8,8.4,6.7C134.2,71.7,131.4,70.8,128.7,69.7L128.7,69.7z
		 M133.8,63.2c3.1,1.7,6.4,2.8,9.9,3.5c-2,0.3-4,0.4-6.1,0.3l-1.7-1.3l1,1.1c-3.3-0.3-6.4-1.1-9.4-2.4c1.3-0.1,2.4-0.4,3.5-0.9
		c-1.3-1.3-3.4-3.7-5.3-6c1.3,0.1,2.7,0.1,4-0.1c4.5,3.1,9.4,6,14.5,8.2C140.9,65.6,137.2,64.7,133.8,63.2L133.8,63.2z M140.5,59.2
		l0.7,0.9c-1.8,0.3-3.7,0.3-5.5,0.3c-2.1-1.3-3.7-2.4-4.5-2.8c1.6-0.4,3.1-1,4.5-2l0,0c0.7-0.4,1.3-0.9,1.8-1.4l0,0
		c0.9,0,1.6,0,2.4,0c3,1.6,6.4,2.4,9.7,2.6c-3.5,1.3-7.4,1.7-11.2,1c3.3,1,6.8,1.1,10.2,0.4c-2.3,1-4.7,1.7-7.2,2.1L140.5,59.2z
		 M141.3,49.1l9.5-3.1l9.2-1.8c-4.8,2.8-10.1,4.8-15.6,5.8c5.4-0.6,10.6-2.3,15.3-4.8c-7.8,5.8-14.2,7.5-18.2,8.1l-0.4-0.6l0.1,0.7
		c-1.1,0.1-2.1,0.1-3.3,0.1c0.4-0.4,0.6-1,0.7-1.7c-0.9,2-4,3.5-4,3.5l0,0h-0.1l-0.6-1l0.3,1c-2.8,1.4-6,2-9.1,1.7
		c-1.4-1.7-2.6-3.3-3.1-4c7.1,1.4,12.9-3.4,12.9-3.4l-1.4-0.1l12.6-2.7L141.3,49.1z M138.9,45.4l0.1,1.3c-1,0.6-1.8,1.1-2.4,1.4
		l-4.4,0.9c-2.8-0.7-5.7-1.7-8.4-3h0.1c5.5-0.3,10.8-3.4,13.6-5.4c2.3-1.1,4.4-2.4,6.4-4c2.6-0.6,5-1.3,7.1-2l0.1,0.9l0.1-0.9
		c5.5-1.7,10.9-3.8,16-6.4c-4.3,3.4-9.1,6-14.2,7.8c5.1-1.4,9.8-3.7,14.1-6.8c-5.4,5.7-12.2,9.7-19.9,11.4l0.3-2.3
		c-1.1,2.1-2.8,4.1-4.8,5.5c0.9-1,1.4-2.1,1.7-3.4c-0.9,1.8-2.1,3.4-3.5,4.8c-0.6,0.4-1.1,0.9-1.7,1.1L138.9,45.4z M145.2,33.5
		l0.4,1.1c-1.8,1.8-3.8,3.4-6.1,4.5l0,0c-3,1.3-10.9,1.1-13.5,1c7.4-2.1,13.2-7.9,15.3-10.2c4.3-2.4,8.2-5.4,11.6-8.9
		c2.1-0.7,4.3-1.6,6.2-2.4c2.3-0.7,4.4-1.6,6.4-2.7c0,0-1.1,0.4-2.4,0.7c5-2.6,9.8-5.4,14.3-8.5c-4.5,4.7-9.9,8.7-15.8,11.5
		c5.5-2.6,10.6-5.8,15.2-9.9c-2.4,3.7-5.5,7-9.2,9.5c1.1-1.1,2.3-2.3,3.1-3.5c-1.6,1.8-3.4,3.5-5.5,5c-2.4,1.4-4.8,2.6-7.5,3.3
		l0.3-1.4c-1.1,1.7-2.3,3.4-3.7,5l1.3-2.4l-1,1.6c0,0-0.9,1.4-0.7,0.9c0.1-0.6,0.6-2.3,0.6-2.3c-0.6,1.6-1.4,3.1-2.4,4.5
		c-1.3,1.3-2.6,2.4-4,3.4c-1.1,0-1.6-3.4-1.6-3.4c-0.1,1,0,2,0.3,2.8c-0.3,0.6-0.7,1.1-1.1,1.6L145.2,33.5z M155,16.2l0.4,0.9
		c-1,1.3-2,2.6-3.1,3.7v-0.9l0.1-0.9h-0.1c4.8-5.4,5.5-9.2,5.5-9.2c-1.3,3.4-3.3,6.5-5.8,9.1l-0.9-0.4l0.7,0.6
		c-3,3.3-6.2,6.1-9.8,8.7c3.7-2.4,7.1-5.3,10.1-8.5l-0.1,1.4l-0.3,0.9c-3.3,3.3-7.1,6.1-11.1,8.4l0,0c-3.5,1.4-9.7,3-13.5,4
		c12.1-4.7,18.9-15.6,18.9-15.6c-3.7,2-7.7,3.8-11.5,5.4C147.6,13,149,5.8,149,5.8c-4.4,4.3-9.2,8.1-14.3,11.4
		c12.5-11.9,14.1-19.6,14.1-19.6c-3.7,4.1-7.8,7.9-12.4,11.2l1-1c4-4,7.5-10.8,9.7-14.9c1.6-1.4,3-2.8,4.3-4.4l2.6-2.1l-1.4,1
		l0.9-0.9l-0.4,0.1c4.5-5.4,8.7-11.4,12.1-17.6c-1.3,2.7-2.6,5.3-4.1,7.8c-2.4,4.4-5.4,8.5-8.9,12.1c3.7-3.5,6.8-7.5,9.4-11.9
		c2.1-3.5,4.1-7.4,5.8-11.2c-2.1,6-4.8,11.6-8.1,17.2v-0.6l0.1-0.3l0.9-1.1l-0.3,0.1l-0.4,0.6l0.6-2.1l-1.3,3.5l-0.4-0.6l0.3,0.9
		l0,0v0.3c-0.4,0.7-0.9,1.4-1.3,2l-0.4-0.4l0.3,0.7c-1.8,2.7-3.3,4.7-4,5.5c-0.1-0.4-0.4-0.7-0.9-0.9c0.3,0.6,0.4,1.1,0.3,1.7
		c-0.3,1.3-0.7,2.6-1.3,3.7l-0.1-0.4V-5l0.1-0.9l-0.1,0.7l-0.6-2l0.6,2.3l0.1,0.7c-1.7,3.5-4,7-6.5,10.1c2.7-2.4,5-5.4,6.7-8.7
		c9.1-7.7,17.2-16.5,24-26.3c-2.6,4.1-5.3,7.9-8.2,11.8l-0.1-0.1l0.1,0.1c-3,3.8-6.2,7.2-9.8,10.5c3.7-3.1,7-6.5,10.1-10.2l0.6,1
		l0.1,0.4l-0.3,1.1l0.7-1.1l0.4-0.3v0.9c-3.1,4.7-5.7,8.1-5.7,8.1c-0.1,0-0.4,0-0.6,0v-1.3l-0.1,1c-0.9-0.4-1.1-2.1-1.1-2.1
		c0,0.3,0,0.7,0,1l-1,1.8v2l-0.4,0.3l-0.6-0.7l0.1,1l-2.7,2.3l1.4-0.6c-1,3-2.4,5.7-4.1,8.2l-1.4-1.3l1,1.6
		c-3.8,5.3-8.2,10.1-13.2,14.1c3.4-2.4,6.5-5.1,9.4-8.1C156,8,160.9,3.9,165.1,0.1L164.7,1l1.6-1.8l-1,2l2.4-3.4
		c4-3.7,7.8-7.7,11.5-11.9c-7.7,10.5-17.2,19.4-28,26.5c11.5-7.1,21.4-16.3,29.4-27.3c-1.4,2.6-2.7,5-4.1,7.1l-1.6,1l1.1-0.4
		c-0.4,0.7-1,1.4-1.4,2L173-4.4L171.4-3l-1.5,1.6l0.9-0.6l0.9-0.9l-3.8,3.8l3.3-3l1-1l0.3-0.6l0.3-0.3l-0.1,0.6l0.4-0.9l0.1-0.1
		l0.6-0.4c-3,4.1-6.2,7.8-9.9,11.2V6l0.3-0.6l-0.6-1.8l0.3,1.8l-0.4,0.7v0.6c-1.3,1.1-2.6,2.3-4,3.3c0-0.6-0.3-1.3-0.6-1.7
		c0.1,1.1,0,2.3-0.4,3.3c-0.4,1.1-1,2.1-1.7,3.1l-0.9-0.6l0.6,1c-0.3,0.4-0.4,0.7-0.7,1.1C155.8,16.2,155,16.2,155,16.2z
		 M169.6-18.4l-0.6,1.7l-0.4,1l-0.3-0.3h-0.4v-0.9l-0.1,0.9l-0.9-0.9c3.8-4.7,7.4-9.7,10.6-14.8c-1.8,4.5-4,8.8-6.5,12.9l-0.4-0.6
		l0.1,0.7c-0.6,1-1.3,2-1.8,2.8l0,0l0.1-0.9l0.6-0.9l-0.4,0.4L169.6-18.4z"/>
	<path class="st1" d="M122.6,19.6c-0.4,1-1.1,1.7-2,2.1c0.3,1.8-0.7,3.7-2.4,4.7c2.1-2.1,1.8-3.8,1.7-4.4c-0.1-0.3-0.4-0.6-0.7-0.7
		c0.3-0.1,0.7,0,1,0.1c1-0.6,1.7-1.6,2.1-2.6c0.3-0.9,0-1.6-0.4-2.3c0.3,0.1,0.4,0.3,0.6,0.6c1.6-1.4,2.4-3.5,2.1-5.5
		c0.6,2.3-0.3,4.5-1.8,6.1C122.9,18.5,122.9,19.2,122.6,19.6z"/>
	<path class="st1" d="M121,37.6c-0.4-2.6-1.7-3-2.3-3.1c-0.3,0.4-0.7,0.9-1.3,1.1c0.4-0.6,0.7-1,1-1.6l0,0c0.4-0.7,0.6-1.3,0.7-1.4
		c0.6-1.4,1-3.7-1-5c0.9,0.1,1.6,0.6,1.8,1.4c1.6-1.3,2.1-3.4,1.3-5.1c0.1,0.1,0.3,0.3,0.3,0.4c1.3-0.7,2-2,2.1-3.5c0,0,0.9,1.6-2,4
		c0.4,1,0.7,2.8-1.7,5.1c0,1-0.1,2-0.4,2.8c-0.1,0.4-0.3,0.9-0.6,1.3l0,0c1.6,0.7,2.4,2.4,2.3,4.1c-0.1,2.4-1.3,4.7-3.3,6.1
		C118.3,44,121.6,40.7,121,37.6z"/>
	<path class="st1" d="M117.9,44.4c2.7,4-2.7,6.4-2.7,6.4C119.6,47.6,117.9,44.4,117.9,44.4z"/>
	<path class="st1" d="M106,60.1c-0.3-0.1-0.4-0.3-0.7-0.4c4.5,1.7,7.4-3.4,7.4-3.4c-2.4,5-4.8,4.8-6.2,4.1c0,0.6-0.4,2.4-3.3,4
		C103.2,64.3,106.1,62,106,60.1z"/>
	<path class="st1" d="M90.1,69.3c-0.1-0.3-0.3-0.4-0.3-0.7c1.6,2.6,4.3-0.1,4.7-0.4c-0.1-0.3-0.3-0.6-0.3-0.9
		c0.1,0.3,0.1,0.4,0.3,0.7l0,0v0.1c0.7,0.9,1.7,1.4,2.8,1.4c2.4-0.4,4.3-2.1,5.1-4.4c-0.4,3.7-4.4,4.7-4.4,4.7
		c-1.3,0.4-2.7,0-3.4-1.1c-2.3,1.8-3.5,1.7-4.3,1.1c-0.6,1.1-1.6,1.8-2.8,1.8C88.8,71.4,89.8,70.6,90.1,69.3z"/>
	<path class="st2" d="M122,11.6L122,11.6L122,11.6z"/>
	<path class="st1" d="M118.2,30.4c-1.1-0.6-2.3-0.6-3.4,0c0,1.4,0,3,0.3,4.4c-0.4-1.4-0.7-2.8-0.7-4.3c-1,0.6-2,1.3-2.7,2.1
		c0.7-1.1,1.6-2,2.7-2.6c0-4,1.4-10.4,7.5-18.2c-1.1,1.6-6.5,9.1-7,18C116.1,29.5,117.2,29.7,118.2,30.4z"/>
	<path class="st2" d="M122,11.8L122,11.8L122,11.8z"/>
	<path class="st1" d="M115.2,68c2.6,2.3,5.8,3.5,9.2,3.3C120.9,72.8,116.9,71.4,115.2,68z"/>
	<path class="st1" d="M117.9,76.4c0,0-6.8,0.9-8.8-4.7C109.1,71.7,110.8,75.4,117.9,76.4z"/>
	<path class="st1" d="M104,75.5c0.4,1.6,1.6,3,3.1,3.7C107,79.2,104,79.4,104,75.5z"/>
	<path class="st1" d="M98.3,74.8c0,0,0.4,2.6,3.8,5.3C99.9,79.5,98.3,77.2,98.3,74.8z"/>
	<path class="st1" d="M97.8,73.7c-1.4-1-0.7-3.3-0.7-3.3C97.1,71.5,97.3,72.7,97.8,73.7z"/>
	<path class="st1" d="M120.8,63.9c0,0,3.7,1.4,5.1,1.1c0.9,0.4,1.7,0.9,2.7,1.1C128.6,66,123,66.3,120.8,63.9z"/>
	<polygon class="st1" points="127.6,58.9 127.1,58.3 129.8,58.1 133.1,60.3 129.7,58.6 	"/>
	<path class="st1" d="M123.6,53.9c4.1,0.4,8.4-0.9,11.5-3.5C135.1,50.4,130.4,56.8,123.6,53.9z"/>
	<path class="st1" d="M125.3,46.4c0,0,8.2-0.3,12.5-5.4c2.4-0.7,4.7-2,6.2-4c0,0,0,1.7-6,4.7C138.2,41.7,131.5,48.1,125.3,46.4z"/>
	<path class="st1" d="M127.4,39.8c5.4-1.6,10.1-4.8,13.6-9.2c4.7-2.1,8.9-5.4,12.2-9.2c0,0-2.8,5.4-11.8,10.1
		C137.9,35.8,133,38.8,127.4,39.8z"/>
	<path class="st1" d="M130.1,32.7c6.7-3.1,12.2-8.1,16-14.3C146.2,18.3,143.3,28.3,130.1,32.7z"/>
	<path class="st1" d="M143.5,18.7c2.4-1.8,4.5-3.8,6.5-6C148.6,15.5,146.3,17.6,143.5,18.7z"/>
	<path class="st1" d="M149,5.5c0,0-0.6,8.8-11.2,15.3C137.8,20.9,146,14.9,149,5.5z"/>
	<path class="st1" d="M139.6,5.1c0,0,5.4-7,7.2-12.4c1.8-1.6,3.1-3,3.1-3l-2.7,3.1C147.2-7.1,144.2,0.9,139.6,5.1z"/>
	<path class="st1" d="M151.7,26.3l0.4-0.3l0.6-0.6l1-2.3l-0.7,1.8l0.4-0.4l0.4-0.6v0.3l0.4-0.4l2.1-2.3l-0.4,2.1L156,22l-0.4,1
		c0,0-0.1-0.3,0-0.4l-1.8,2l-2.3,2l-1.8,0.1l1.6-0.4C151.3,26.3,151.7,26.3,151.7,26.3z"/>
	<path class="st1" d="M136.9,8.8l0.3-0.3l1.3-0.7l-1.1,0.7l-0.7,1.4c0,0,3.3-3,3.4-3s-4.4,4.3-4.4,4.3l-0.6,1l-0.6,0.4l1.1-1.7
		l1.3-1.7l-3,1.7L136.9,8.8z"/>
	<path class="st1" d="M137.8,54.9c-1.6,1.4-3.4,2.3-5.4,2.7c2-0.6,3.8-1.7,5.4-3.3c0.9,0.1,1.6,0.1,2.4,0
		C139.4,54.8,138.5,54.9,137.8,54.9z"/>
	<path class="st2" d="M122.2,62.2l0.6,0.3C122.6,62.5,122.3,62.3,122.2,62.2z"/>
	<path class="st1" d="M122.2,62.2c-1-0.4-2.7-1.3-3-1.6c-0.9-1.1-1.6-2.4-2.1-3.7C118.2,59.1,120,60.9,122.2,62.2z"/>
	<path class="st1" d="M114.2,68.6c-1.3-2.1-2.1-4.5-2.3-7.1c0.3,1.7,0.9,3.3,1.6,4.7L114.2,68.6z"/>
	<path class="st1" d="M107.8,69.8c0.1,1.6,0,3.7,0,3.7c-0.1-1.8-0.4-3.7-1-5.5C106.8,67.9,107.6,69.7,107.8,69.8z"/>
	<path class="st1" d="M103.3,74.2c0,0-1.6,0.1-1.1-3.7C102.3,71.8,102.7,73.1,103.3,74.2z"/>
	<polyline class="st2" points="121.3,53.4 121.3,53.4 121.3,53.4 	"/>
	<polyline class="st2" points="121.5,53.2 121.3,53.4 121.5,53.2 	"/>
	<path class="st1" d="M117.9,52c1.1,0.6,2.3,1.1,3.4,1.4C120,53.4,118.8,53,117.9,52z"/>
	<path class="st3" d="M34.3,50.4c-0.4-0.1-0.7-0.4-0.9-0.9C33.9,49.7,34,50,34.3,50.4z"/>
	<path class="st3" d="M27.8,44.3c-0.1-0.1-0.3-0.3-0.4-0.4c0.3,0,0.6,0.1,0.9,0.4C28.1,44.3,27.9,44.3,27.8,44.3z"/>
</g>
<g id="logo">
	<g>
		<path class="st4" d="M5.3,22.1c0-0.2,0-0.3-0.1-0.5c-0.1-2,0.2-4,0.6-6c0.2-1.1,0.4-2.2,0.5-3.3c0.2-1.3,0.3-2.7,0.5-4
			c0.1-0.4,0-0.6-0.4-0.8c-0.1,0-0.1-0.1-0.2-0.1C4.9,6.6,5.1,7,5.1,5.4c0-1.5,0-3,0-4.5c0-0.4-0.1-0.5-0.5-0.5
			c-1.2,0-1.2,0-1.2,1.2c0,27.7,0,55.4,0,83.1c0,1-0.1,0.9,0.9,0.9c0.1,0,0.2,0,0.2,0c0.6,0,0.6,0,0.6-0.6c0-6.4,0-12.9,0-19.3
			c0-0.2,0-0.4,0-0.8c0.2,0.2,0.4,0.3,0.4,0.5c1.9,3.6,4.3,6.8,7,9.8c2.3,2.5,4.8,4.8,7.5,6.7c2.2,1.6,4.6,2.9,7.2,3.8
			c1.8,0.7,3.6,1.2,5.6,1.3c1.7,0.1,3.4,0.2,5.1,0.1c2.7-0.1,5.1-1,7-3c1.8-1.9,2.3-4.2,1.9-6.8c-0.4-2.9-1.7-5.4-3.4-7.8
			c-0.9-1.3-1.9-2.5-2.9-3.7c-0.3-0.3-0.3-0.6-0.1-0.9c1.2-1.8,2-3.8,2.2-5.9c0.1-1.6,0.1-3.2,0.2-4.7c0-0.5,0-0.6,0.6-0.5
			c1,0.2,2.1,0.4,3.1,0.6c1.8,0.4,3.5,0.9,5.3,1.3c0.5,0.1,1.1,0,1.7-0.1c0.3-0.1,0.5-0.4,0.7-0.7c0-0.1-0.3-0.5-0.5-0.6
			c-2.1-1.4-4.4-2.2-6.8-2.7c-1.2-0.3-2.5-0.4-3.7-0.6c-0.4-0.1-0.6-0.2-0.7-0.6c-0.5-2-0.9-4-1.5-6c-0.3-1.2-0.8-2.4-1.2-3.6
			c-0.5-1.4-1-2.8-1.5-4.3c-0.1-0.2,0-0.4,0.1-0.6c1.4-2.1,3.7-3.6,6.5-3.3c2.1,0.3,4,1,5.6,2.5c1.2,1.2,2.2,2.5,2.9,4.1
			c1,2.2,1.9,4.5,2.8,6.8c0.8,2,1.6,4,2.8,5.7c1.8,2.7,4.2,4.6,7.5,5.2c0.9,0.2,1.9,0.2,2.9,0.2c0.8,0,1.4-0.4,1.7-1.2
			c0.2-0.4,0.1-0.6-0.4-0.6c-2.3-0.1-4.4-0.8-6.2-2.4c-1.8-1.6-3-3.7-4-5.9c-0.7-1.6-1.4-3.1-2-4.7c-0.8-2-1.6-4-2.7-5.9
			c-1.5-2.6-3.4-4.8-6.2-6.1c-2.2-1-4.4-1.4-6.8-1.2c-2,0.2-3.8,1-5.2,2.3c-0.5,0.4-0.6,0.4-0.7-0.2c-0.4-2.2-0.9-4.4-0.8-6.6
			c0.1-2,0.5-3.9,1.8-5.4c0.9-1.1,2.1-1.6,3.3-2.2c2.2-1.1,4.5-1.3,6.9-1.1c2,0.2,3.9,0.7,5.7,1.4c2.4,0.9,4.7,1.9,7,2.8
			c0.8,0.3,1.7,0.4,2.6,0.5c0.3,0,0.8-0.1,1.1-0.3c0.4-0.2,0.3-0.4,0-0.7c-1.6-1.3-3.4-2.4-5.3-3.4c-2.5-1.3-5.1-2.4-7.8-3
			c-2-0.5-4.1-0.8-6.2-0.7c-0.8,0.1-1.6,0.2-2.4,0.4c-1.1,0.3-2.1,0.5-3.1,0.9c-3.1,1.3-5.4,3.4-6.4,6.7c-0.5,1.8-0.8,3.6-0.7,5.4
			s0.4,3.5,0.7,5.2c0.3,1.5,0.7,2.9,1,4.4c0.1,0.3-0.1,0.7-0.2,1c-1,1.9-1.7,4-2.5,6c-0.6,1.7-1.3,3.3-1.9,5
			c-0.7,1.7-1.5,3.4-2.6,4.9C26,54,24.5,55.3,22.7,56c-1.1,0.4-2.3,0.6-3.5,0.5c-0.1,0-0.3-0.1-0.4-0.2c0.3-0.1,0.6-0.2,0.8-0.3
			c2.7-0.9,4.6-2.8,5.7-5.4c0.3-0.8,0.5-1.7,0.7-2.6c0.4-1.6,0.5-3.3,0.4-4.9c-0.1-1.2-0.2-2.3-0.3-3.5c-0.2-1.6-0.4-3.1-0.6-4.7
			c-0.1-1-0.4-1.9-0.5-2.9c-0.2-1.1-0.4-2.2-0.6-3.3c-0.2-0.9-0.4-1.7-0.6-2.6c-0.2-1.1-0.4-2.2-0.6-3.3C23.1,22.2,23,21.6,23,21
			c-0.1-1.4-0.4-2.8-0.3-4.2c0.1-2.5,0.5-5,2-7.1c1.4-1.9,3.1-3.4,5.3-4.5c2.3-1.1,4.7-1.4,7.1-1.2c1.6,0.1,3.1,0.4,4.6,0.7
			c1.2,0.3,2.4,0.7,3.6,1C46.5,6,47.7,6.3,49,6c0.1,0,0.3-0.1,0.4-0.2c0.7-0.4,0.7-0.8,0-1.2c-2.3-1.3-4.7-2.4-7.2-3.1
			c-3-0.9-6.1-1.2-9.2-0.8C28.9,1,25.5,3,22.8,6.2c-1.1,1.3-2,2.8-2.5,4.4c-0.3,0.9-0.4,1.8-0.6,2.8c-0.4,2-0.2,4-0.2,6
			c0,1.1,0.3,2.2,0.4,3.4c0.1,1,0.3,2,0.5,3.1c0.2,1,0.4,2,0.6,3c0.2,0.9,0.3,1.8,0.5,2.8c0.2,1.1,0.5,2.3,0.6,3.4
			c0.1,0.7,0.2,1.4,0.3,2.2c0.1,0.6,0.2,1.1,0.2,1.7c0.1,1.5,0.3,3,0.4,4.5c0,1.2,0,2.4-0.2,3.5c-0.3,1.6-0.8,3.1-2,4.2
			c-0.9,0.9-2,1.2-3.2,1.2c-1.1,0-2.3-0.2-3.4-0.3c-0.2,0-0.4,0-0.6-0.1c-0.1,0-0.3-0.1-0.4-0.2c0.1-0.1,0.2-0.3,0.3-0.4
			c0.4-0.3,1-0.6,1.3-1c1.2-1.2,1.8-2.6,1.9-4.2c0.1-1,0.2-1.9,0.2-2.9c0-0.7-0.3-1.4-0.8-1.9c-0.2-0.3-0.5-0.3-0.7,0
			c-0.9,1.5-1.8,3.1-2.4,4.8c-0.2,0.5-0.6,0.8-1,1.1c0,0-0.1,0-0.1-0.1c0.1-0.3,0.1-0.7,0.2-1c0.6-1.9,1.5-3.7,2.6-5.4
			c0.2-0.2,0.1-0.4-0.1-0.5c-0.4-0.3-0.8-0.6-1.2-0.9C13,39,12.8,38.5,13,38c0.1-0.3,0-0.5-0.2-0.7c-2.4-2.5-4.8-5.1-7.3-7.6
			c-0.4-0.4-0.6-0.9-0.4-1.6c0.2,0.1,0.4,0.2,0.5,0.4c2.1,2.2,4.2,4.5,6.3,6.7c0.4,0.4,0.8,0.8,1.2,1.2c0.1-0.4,0.2-0.8,0.3-1.2
			c0.2-0.7,0.4-1.5,0.5-2.2c0-0.2,0-0.5-0.1-0.6c-1.6-1.8-3.2-3.5-4.8-5.3c-0.1-0.1-0.2-0.2-0.3-0.3c-0.7-0.5-0.6-1.1-0.4-1.7
			c0.5-2.2,1-4.4,1.5-6.6c0.3-1.6,0.5-3.2,0.8-4.8c0.1-0.7,0.1-1.5,0.2-2.2c0-0.2-0.1-0.4-0.2-0.5C10,10,9,9.2,7.9,8.3
			C7.2,13,6.5,17.5,5.5,22.1C5.4,22.1,5.4,22.1,5.3,22.1z M11.9,63.3l0.1-0.1c0.1,0.1,0.3,0.2,0.4,0.3c1.1,0.7,2.1,1.5,3.2,2.2
			c1.5,0.9,3,1.7,4.6,2.4c1.6,0.7,3.3,1.2,5,1.7c0.9,0.2,1.9,0.3,2.8,0.4c3.4,0.4,6.7,0.1,9.7-1.6c0.3-0.2,0.5-0.1,0.7,0.1
			c1,1.3,2.2,2.6,3,4.1s1.5,3.1,1.3,4.9c-0.1,1.3-0.8,2.4-1.8,3.2C40,81.6,38.6,82,37.3,82s-2.6-0.1-3.9-0.4
			c-2.2-0.5-4.2-1.4-6.2-2.4c-3.3-1.8-6.2-4.3-8.8-7c-2.2-2.3-4-4.8-5.7-7.5C12.4,64.2,12.2,63.7,11.9,63.3z M36.3,40.7
			c0.2,0.4,0.3,0.7,0.4,1c0.5,1.6,1,3.3,1.5,4.9c0.3,1.2,0.6,2.4,0.9,3.6c0.1,0.3-0.1,0.5-0.4,0.5c-0.3,0-0.7,0.1-1,0.2
			c-1.1,0.2-2.2,0.6-3.1,1.2c-2.7,1.7-4.1,4.4-2.7,7.7c0.7,1.7,1.9,3.2,3.1,4.7c0.4,0.4,0.3,0.5-0.2,0.7c-1.1,0.4-2.2,0.7-3.3,0.7
			c-1.4,0-2.8-0.2-4.2-0.6c-1.2-0.3-2.4-0.7-3.5-1.1c-2.3-0.8-4.4-2-6.4-3.2c-0.5-0.3-1-0.7-1.6-1c0,0,0-0.1,0.1-0.1s0.3,0,0.4,0
			c0.3,0,0.7,0.1,1,0.1c0.9,0,1.7,0,2.6,0c1.5,0,2.9-0.2,4.3-0.7c2.4-0.8,4.3-2.4,5.8-4.4c1.4-1.9,2.4-4,3.3-6.2
			c1-2.5,1.9-5.1,2.8-7.6C36,41.1,36.1,40.9,36.3,40.7z M39.8,55.8c-0.2,1.2-0.4,2.7-0.7,4.2c-0.1,0.7-0.5,1.4-0.8,2.1
			c-0.1,0.3-0.3,0.5-0.6,0.1c-1.1-1.2-2-2.5-2.5-4.2c-0.5-1.6,0.3-2.8,1.6-3.5c0.7-0.4,1.6-0.6,2.4-0.8c0.3-0.1,0.4,0.1,0.4,0.3
			C39.6,54.5,39.7,55,39.8,55.8z"/>
		<path class="st4" d="M12,12.1c-0.1,0.3-0.1,0.6-0.2,0.8c-0.4,2.7-0.8,5.3-1.2,8c-0.3,1.5-0.7,2.9-1,4.3c-0.1,0.4-0.1,0.7,0.2,1
			c1.3,1.4,2.7,2.9,4,4.3c0.3,0.3,0.5,0.6,0.8,0.8h0.1c0.1-0.3,0.1-0.6,0.2-0.9c0.2-0.8,0.4-1.6,0.5-2.5c0.2-0.9,0.3-1.9,0.4-2.8
			c0.1-1.9,0.2-3.8,0.1-5.7c-0.1-1.7-0.8-3.3-1.7-4.7c-0.6-0.9-1.3-1.8-1.9-2.7C12.1,12.1,12.1,12.1,12,12.1z"/>
	</g>
	<text transform="matrix(1 0 0 1 4.8157 48.5056)" class="st5 st6">NOC</text>
	<text transform="matrix(1 0 0 1 55.5157 48.5056)" class="st7 st6">TOPUS</text>
	<text transform="matrix(1 0 0 1 6.3172 57.5554)" class="st8 st7 st9 st10">Intelligent Operations Center</text>
</g>
</svg>
