<?xml version="1.0" encoding="utf-8"?>
<!-- Generator: Adobe Illustrator 24.1.0, SVG Export Plug-In . SVG Version: 6.00 Build 0)  -->
<svg version="1.1" id="Layer_1" xmlns="http://www.w3.org/2000/svg" xmlns:xlink="http://www.w3.org/1999/xlink" x="0px" y="0px"
	 viewBox="0 0 137.5 87.4" style="enable-background:new 0 0 137.5 87.4;" xml:space="preserve">
<style type="text/css">
	.st0{opacity:0.5;}
	.st1{fill:#FFFFFF;}
	.st2{fill:#B7B7B7;}
	.st3{fill:#1A1819;}
	.st4{fill:#D9D9D9;}
	.st5{fill:url(#SVGID_1_);stroke:#EF9300;stroke-width:0.25;stroke-miterlimit:10;}
	.st6{fill:url(#SVGID_2_);stroke:#EF9300;stroke-width:0.25;stroke-miterlimit:10;}
	.st7{fill:#515050;stroke:#FFFFFF;stroke-width:0.5;stroke-miterlimit:10;}
	.st8{fill:#3A3A3A;stroke:#FFFFFF;stroke-width:0.25;stroke-miterlimit:10;}
</style>
<g id="Layer_1_1_">
	<g id="Layer_1-2" class="st0">
		<path class="st1" d="M44.3,86.1l0.2-0.2c0.5-0.8,1-1.6,1.3-2.5l0.2-0.4l-0.4,0.2c-1,0.7-2.1,1.2-3.3,1.5h-0.1
			c-0.4,0.1-0.7,0.2-1,0.2H41l0.2-0.2c1-1,1.7-2.3,2.3-3.6l0.2-0.4L43.3,81c-1.8,1.1-3.9,1.6-6,1.6h-1.1l0.2-0.2
			c1-0.8,1.9-1.7,2.7-2.8l0.2-0.4l-0.4,0.2c-1.8,0.5-3.6,0.8-5.4,0.8h-1.4l0.2-0.2c1.2-0.8,2.3-1.8,3.3-2.9l0.4-0.6l-0.6,0.2
			c-1.7,0.8-3.5,1.1-5.4,1.1c-1,0-2-0.1-2.9-0.4l-0.2-0.4l0.4-0.1c1.3-0.4,3.8-2.3,5.2-3.6l0.4-0.4l-0.6,0.2
			c-1.6,0.4-3.1,0.6-4.7,0.6c-1.9,0-3.7-0.3-5.5-0.8L21.7,73l0.4-0.1c1.3-0.1,3.5-1.1,6.5-2.9l0.4-0.2h-0.8
			c-3.4-0.2-6.8-1.3-9.5-3.4l-0.2-0.2h0.4c0.8,0.1,1.5,0.1,2.3,0.2c1.6,0,3.2-0.3,4.7-0.8l0.4-0.2l-0.4-0.1
			C19.1,64.3,13,58.8,13,58.7l-0.2-0.2l0.4,0.1l13.8,2.9l0.7,0.2L27,61.2c-1.3-1-2.6-2-3.7-3.3l0,0c-9-1.7-15.5-10.2-15.6-10.2
			l-0.6-0.6l0.6,0.6c3.6,2.9,12.2,5.5,15.8,6.5l0.4,0.2L23.7,54c-0.2-0.2-0.4-0.4-0.6-0.7L23,53.2l-0.1,0.2l-0.2,0.2h-0.1
			c-2.5-1.1-5.4-5-5.7-5.6l0,0c-4.3-1.3-8.2-3.8-11.1-7.3c-1.3-1.4-2.3-3-3.1-4.8l-0.2-0.6L3,35.7c3.6,3.4,11.9,7.3,15.3,8.7
			l0.6,0.2l-0.4-0.4c-1.2-1.3-2.1-2.9-2.6-4.6l0,0c-10.8-8-14.9-20.2-15-20.2l-0.2-0.8l0.4,0.7c3.6,5.6,12.7,13.6,18,18l0.9,0.7
			l-0.6-0.9c-1.4-1.8-2.4-3.9-3-6.1l0,0l-1.2-1l0,0v-1.5l-0.2-0.4v-0.2l-0.2,0.2c-0.2,0.3-0.4,0.6-0.7,0.8h-0.1l-0.1-0.1
			c-4.8-5.5-8.5-12-10.8-19L3,9.3l0.4,0.6c8.5,12.3,14.4,17.8,16.5,19.6l0.4,0.4L20,29.2l-0.2-0.4l-0.1-0.3
			c-0.1-0.2-0.2-0.6-0.2-0.9l0,0C10.8,16.4,9.7,7.2,9.7,7L9.5,6.4L9.7,7C12.8,14,17,20.3,22.1,25.9l0.6,0.6l-0.3-0.8v-0.1l-0.4-1
			l0.6,0.9c1.7,2.6,6,6.5,8.5,8.6l0.7,0.6L31.3,34c-1.5-2.4-2.5-5-3.1-7.7l-0.1-0.7l0.2,0.6c1.1,2.5,4.1,6,7.9,9.4
			c1.7,1.6,3.4,3.4,4.9,5.2c0.4,0.4,0.7,0.9,1,1.3l0.1,0.2l0.2,0.4c1.6,2.4,2.7,5.1,3.4,7.9c0.2,1,0.3,2.1,0.2,3.1
			c-0.2,0.7-0.6,1.3-1.2,1.7l0,0c-0.1,0.2-0.2,0.2-0.2,0.4c0,0.1-0.1,0.2-0.2,0.2l-0.1,0.1l-0.2,0.4l0,0c-0.3,3.7,1.2,7.3,4,9.8
			c2,1.7,5,1.7,6.5,1.7c0.3,0,0.7,0,1,0.1c0.6,0.2,1.2,0.6,1.6,1.1h0.1c1,0.1,1.9,0.4,2.6,1c1.4,1.1,2.5,2.7,2.9,4.4v0.5l0,0
			c0.1,0.1,0.1,0.2,0.2,0.2c0.2,0.2,0.3,0.3,0.4,0.6l0.1,0.1l0.1,0.1h0.6l0.2-0.2c0.6,0.7,1,1.7,1,2.6c0.1,0.4,0.1,0.7,0,1.1
			l-0.1,0.6l0.4-0.4l0.4-0.7l-0.9,1.2c0,0.1-0.9,1.8-2.3,1.8c-0.9,0-1.7-0.7-2.5-2l0,0c-0.2-0.2-0.4-0.4-0.6-0.6H60L60,79.4
			c-0.7,0.5-1.5,0.8-2.3,0.8c-0.6,0-1.2-0.1-1.7-0.4l0,0c-0.5,0.9-1.2,1.6-2.1,2L53.6,82l0.1-0.2c0-0.1,0.1-0.2,0.1-0.2l-0.2-0.1
			c-1.2,3.4-3.8,4.1-3.9,4.1l-0.2,0.1l0.2-0.2c0.4-0.7,0.6-1.5,0.6-2.3l0.1-0.6L49.7,83c-1.4,1.4-3.1,2.4-5,3L44.3,86.1z"/>
		<path class="st2" d="M65.5,79.8c0.1-0.4,0.1-0.8,0-1.2c0-1-0.4-2-1.1-2.8L64,76.2h-0.4l-0.1-0.1c-0.2-0.2-0.2-0.4-0.4-0.6
			l-0.2-0.2l0,0v-0.1c0-0.1,0-0.3-0.1-0.4c-0.4-1.8-1.5-3.4-3-4.6c-0.8-0.5-1.7-0.9-2.7-1c-0.4-0.6-1-1-1.7-1.1
			c-0.3-0.1-0.7-0.1-1-0.1c-1.6-0.1-4.4-0.2-6.5-1.7c-2.8-2.4-4.3-6-4-9.7l0.2-0.4c0,0,0-0.1,0.1-0.1c0,0,0,0,0,0
			c0.1-0.1,0.2-0.2,0.2-0.4c0.1-0.2,0.2-0.2,0.2-0.4c0.6-0.5,1.1-1.1,1.3-1.8l0,0c0.2-1,0.1-2.1-0.2-3.1c-0.6-2.8-1.8-5.5-3.4-7.9
			l-0.2-0.2l-0.1-0.2c-0.4-0.4-0.7-0.9-1-1.3l0,0c-1.5-1.8-3.1-3.6-4.9-5.2c-3.9-3.5-6.8-7-7.9-9.4l-0.7-1.5l0.2,1.6
			c0.6,2.7,1.6,5.3,3.1,7.7c-2.5-2.2-6.8-6.2-8.5-8.7l-1.3-2l1,2.3v0.1C17.2,20.1,13.1,13.8,10,7L9.4,5.6L9.5,7
			c0,0.1,1.2,9.4,9.8,20.5c0,0.3,0.1,0.7,0.2,1l0.1,0.2l0.2,0.4C17.6,27.5,11.8,22,3.3,9.7L2.6,8.6L3,9.9c2.2,7,5.8,13.5,10.8,19
			l0.1,0.1l0.2-0.1c0.3-0.2,0.6-0.5,0.7-0.8l0.2,0.4l-0.1,1.5V30l0.1,0.1l1.1,1c0.6,2.2,1.6,4.3,3,6.1C14.3,33.2,4.7,24.9,1.1,19.2
			L0,17.6l0.6,1.9c0.1,0.1,4.3,12.2,15.1,20.2c0.6,1.7,1.5,3.2,2.6,4.6c-3.5-1.6-11.7-5.4-15.2-8.7l-0.8-0.8l0.4,1
			c0.8,1.7,1.9,3.4,3.1,4.8c2.9,3.4,6.8,5.9,11.1,7.3c0.4,0.6,3.3,4.4,5.8,5.6l0.1,0.1l0.1-0.1l0.2-0.2c0.2,0.3,0.4,0.5,0.6,0.7
			c-3.3-0.9-12.2-3.6-15.7-6.4l-1.5-1.2l1.1,1.6c0.1,0.1,6.5,8.6,15.6,10.2c1.1,1.2,2.3,2.3,3.7,3.3l0,0l-13.8-2.9l-0.9-0.2l0.6,0.6
			c0.1,0.1,6,5.6,12.9,6.7c-1.5,0.5-3.1,0.8-4.7,0.8c-0.8,0-1.5-0.1-2.3-0.2L18,66.2l0.6,0.6c0,0,4.4,3.5,9.6,3.5h0.2
			c-3,1.7-5.2,2.8-6.4,2.9L21,73.2l1,0.4c1.8,0.5,3.6,0.8,5.5,0.8c1.6,0,3.2-0.2,4.8-0.6c-1.5,1.2-3.9,3.3-5.2,3.6l-0.9,0.2l0.9,0.2
			c1,0.2,2,0.4,3,0.4c1.8,0,3.7-0.4,5.4-1.1c-0.9,1.1-1.9,2.1-3.1,2.9l-0.7,0.4l0.8,0.1h1c1.9,0,3.7-0.3,5.5-0.8
			c-0.8,1.1-1.7,2-2.7,2.8l-0.4,0.4l0.6,0.1h0.9c2.1,0,4.2-0.6,6-1.6c-0.6,1.3-1.3,2.5-2.3,3.6l-0.6,0.6l0.7-0.1
			c0.4-0.1,0.7-0.2,1-0.2l0,0c0.1,0,0.2,0,0.2-0.1l0,0c1.2-0.4,2.3-0.9,3.3-1.6c-0.4,0.9-0.8,1.7-1.3,2.5l-0.6,0.6l0.9-0.2
			c1.9-0.5,3.7-1.6,5-3.1c0,0.8-0.3,1.5-0.6,2.2l-0.2,0.6l0.6-0.2c0.1,0,2.7-0.7,4-4.2c0,0.1,0,0.2-0.1,0.2l-0.2,0.6l0.4-0.2
			c0.9-0.5,1.6-1.2,2.2-2c0.6,0.3,1.2,0.4,1.8,0.4c0.9,0,1.7-0.3,2.5-0.8c0.2,0.2,0.4,0.4,0.6,0.6c0.9,1.4,1.7,2.1,2.6,2.1
			c1.5,0,2.3-1.8,2.3-1.9l1.1-2.3L65.5,79.8z M59.8,77.2c-0.2,0.3-0.3,0.6-0.2,1c0.1,0.2,0.2,0.5,0.4,0.7c-1,1-2.7,1-3.7,0
			c0,0,0,0,0,0l0,0c0.3-0.9,0.3-1.9,0.1-2.9c0.1,1.7-0.5,3.4-1.7,4.6c0.2-0.9,0.4-1.9,0.4-2.9c-0.1,1-0.3,1.9-0.8,2.8
			c-0.2-0.9-0.4-1.8-0.8-2.7c0.2-0.7,0.3-1.3,0.4-2c-0.3,1.9-1.3,3.6-2.8,4.9c0.4-0.9,0.6-1.8,0.6-2.7c-0.3,1-0.7,1.9-1.2,2.7
			c-0.1-0.6-0.2-2.1-0.2-2.7c0.3-0.8,0.6-1.5,0.8-2.3c0,0-1.2,3.8-3.3,4.7c0.4-0.9,0.8-1.8,1-2.8c-0.4,0.9-0.9,1.7-1.5,2.5
			c0.1-1.6,0.1-3.2,0.1-4.9c0.3-0.4,0.5-0.9,0.6-1.4c0,0-1.8,3.6-5,4.4c0.7-1,1.3-2,1.8-3.1c-0.6,1-1.3,1.9-2.2,2.6
			c0.4-1.1,1.1-3.8,1.4-5.2c0.5-0.9,0.8-1.8,1-2.8c-0.4,1.2-1,2.3-1.7,3.3c-1.2,1.2-2.9,2-4.6,2.2c1-0.6,1.8-1.4,2.5-2.3
			c-0.9,0.8-1.8,1.5-2.9,2c1.7-2.3,3.1-4.9,4.2-7.6c0,0-0.6,1-1.4,2.5c-1.7,1.5-4,2.1-6.2,1.7c1.4-0.4,2.7-1.2,3.7-2.3
			c-1.2,1.1-2.6,1.7-4.2,1.9c1.9-1.8,3.5-3.8,4.8-6.1c0.7-0.2,1.5-0.5,2.2-0.9c-1.2,0.4-2.5,0.7-3.8,0.7l0.1-0.2l0.2-0.2l0.9-0.6
			l-1.3,0.6L37,64.7c-1.6-0.1-3.1-0.4-4.6-1c1.8,0.2,3.5,0,5.2-0.6c-1.8,0.4-3.6,0.4-5.4,0l3.8-1.3l1.3,0.2l1-0.2l-1-0.1l-0.6-0.1
			l0.6-0.2l-0.6,0.1c1.2-0.4,2.2-0.8,2.5-0.9h-1.7c-2.5-0.5-4.9-1.4-7.1-2.7c1.5,0.6,3.2,0.8,4.8,0.7c-1.7-0.1-3.4-0.5-5-1.3
			c2.4,0.2,4.7,0.2,7.1,0c0.4,0.1,0.9,0.2,1.3,0.2c-3.6-1.1-6.9-2.9-9.8-5.4c1.9,1,3.9,1.7,6,2.1c-2.1-0.5-4.1-1.3-5.8-2.5
			c1.9,0.6,6.4,2,8.9,1.9l-1-0.2l-1.1-0.6c-3.8-1.7-7.1-4.3-9.7-7.5c2.8,2.1,5.9,3.8,9.2,5c-3.2-1.3-6.1-3.1-8.8-5.2
			c2.5,1,9.6,4.1,11.4,4.4c0,0-2.5-1-5.4-2.2c-3.2-2.6-6-5.6-8.3-9.1c2.9,3.2,6.3,5.9,10,8.1c-3.7-2.3-7-5.2-9.8-8.5
			c1.6,1.4,3.3,2.7,5,3.9l0.7,1L29.2,42c1,0.7,2.1,1.4,3.3,2.1l0.6,1l-0.4-0.9c1.5,0.9,3.1,1.6,4.8,2.3c-1.7-0.8-3.3-1.7-5-2.7
			c-0.8-0.6-1.5-1.3-2.2-2v-0.4l-0.2,0.2h-0.1l0.2-0.7l-0.4,0.4c-2.5-2.5-4.7-5.3-6.4-8.3c1.8,2.5,3.8,4.8,6.2,6.8
			c-2.1-2.1-4-4.3-5.8-6.7c2.5,2.2,5,4.2,7.6,6.1l0.7,1L32,39.5c1.2,0.9,2.5,1.6,3.8,2.3c0,0-2.3-1.5-5.4-3.8
			c-0.4-0.6-1.2-1.5-2-2.5l1.2,0.9l-1.5-1.2c-1.5-2-2.9-4.2-4.1-6.5c2,2.8,4.3,5.5,6.9,7.9c-2.4-2.5-4.6-5.2-6.5-8.1
			c1,1,2.9,2.9,4.6,4.6l1,1.6l-0.4-1c0.9,1,2,1.9,3.1,2.6c0.9,1.1,1.8,2.1,2.9,3.1c-1-1.1-1.9-2.3-2.8-3.5l0.8,0.6l-1-1
			c-1.5-2-2.7-4.2-3.6-6.6c1.1,2,2.4,3.9,4,5.6c-1.4-1.7-2.5-3.5-3.5-5.4c0.2,0.4,0.7,0.9,1.1,1.5c1.9,2.6,4,5.1,6.4,7.3
			c-1.1-1.2-2.1-2.4-3.1-3.8c0.8,0.9,1.7,1.7,2.6,2.5c2.4,2.3,4.6,4.9,6.4,7.7l0,0c0.6,1,1,2.1,1.5,3.1l-2.5-4c0,0,2.2,4.1,3.3,6.5
			c0.2,0.7,0.2,1.3,0.4,2c0,0.6,0,1.2-0.2,1.7c-0.4,1.2-1.4,2.2-2.6,2.5c0.4,0,0.8,0,1.1-0.2c-0.2,0.3-0.3,0.7-0.4,1
			c-0.1,1.7,0.2,3.5,0.7,5.2c-0.8-1.2-1.5-2.4-1.9-3.8c0.4,2.3,1.5,4.4,3.1,6c0.8,1.2,1.8,2.3,3.1,3.1c-1.5-0.6-2.8-1.4-4-2.5
			c1.9,2.1,4.5,3.4,7.3,3.6l0.4,0.1c0.6,0.1,1,0.1,1.7,0.2c1,0.6,1.7,1.7,1.9,2.9c-1,0.2-2.5,0.1-4.8-1.3c0,0,2.7,2.2,4.8,1.5v1.1
			c0.1-0.4,0.1-0.7,0-1.1c0.4-0.2,0.8-0.4,1.1-0.8c-0.3,0.3-0.7,0.5-1.1,0.6c0-1.1-0.6-2.2-1.5-2.9h0.4c0.8,0.1,1.8-0.1,3.3,2.5
			c-0.1-0.4-0.3-0.8-0.6-1.1c0.2-0.1,0.4-0.1,0.6,0c1.2,0.2,2.3,0.9,3,1.9c1,1.7,1.8,2.6,1,5c0.2-0.4,0.4-0.8,0.6-1.2
			c0.2,0.3,0.4,0.7,0.6,1c-0.2,0.4,0.4,1.1,0.4,1.1c-0.4-1.1-0.1-1.1,0-1.1c0.2-0.1,0.5,0,0.7,0.2c0.4,0.9,1.2,3.3-0.2,4.6
			c-1,0.3-2-0.1-2.5-1c0.3,0.2,0.6,0.3,1,0.2C59.4,79.2,59.8,77.1,59.8,77.2L59.8,77.2z M50.1,84.1c0.1-0.7,0.2-1.8,0.4-2.5
			c1.2-1,2.1-2.2,2.6-3.7c0.1,0.4,0.2,0.9,0.4,1.5c-0.4,1.9-1.4,3.5-2.8,4.8c0.4-0.7,0.7-1.4,0.9-2.2C51.2,82.7,50.7,83.4,50.1,84.1
			L50.1,84.1z M45.9,84.6c0.2-0.7,0.8-2,1-2.6c0.2-0.3,0.4-0.7,0.6-1c0.9-0.7,1.6-1.5,2.2-2.5c0.2,1.2,0.2,2.5,0,3.8l0,0
			c-0.8,1.3-2,2.3-3.5,2.8c0.8-0.8,1.5-1.7,2-2.8C47.6,83,46.8,83.9,45.9,84.6L45.9,84.6z M42.6,83.6c0.6-1,1.1-2.2,1.5-3.3
			c0.8-0.6,1.5-1.2,2.1-1.9c0,0-3.5,3.6-8.1,3.8c1.1-0.5,2.1-1.1,3.1-1.8c-1,0.6-2.1,1.1-3.3,1.4c0.8-0.9,1.6-1.9,2.3-3
			c0.7-0.3,1.2-0.7,1.7-1.2c-0.2,0.5-0.4,1-0.7,1.5c2.3-0.2,4.3-1.5,5.5-3.4c0.1,2-0.1,3.9-0.6,5.8c0.4-0.2,0.8-0.4,1.2-0.6
			c-1.1,1.5-2.7,2.6-4.6,3.1c0.9-0.8,1.6-1.7,2.3-2.7C44.4,82.2,43.6,83,42.6,83.6L42.6,83.6z M38,79.2c-1.2,0.4-2.4,0.6-3.6,0.6
			c1.2-0.5,2.3-1.2,3.3-1.9c-1.1,0.6-2.3,1.1-3.6,1.4c1-1,2-2.1,3-3.3c1.6,0,3.2-0.5,4.6-1.4c0.6-0.3,1.2-0.7,1.6-1.2
			c-0.2,0.7-0.6,2.3-1.1,3.7c-1.1,0.9-2.4,1.6-3.8,2l0.2-0.8L38,79.2z M29.2,76.9c1.9-1.1,3.7-2.5,5.2-4.1c0.6-0.2,1.1-0.4,1.7-0.7
			c1.5,0,2.9-0.5,4.1-1.4c-1,1.9-2.2,3.6-3.6,5.2c-0.7,0.3-1.5,0.6-2.3,0.9l0.2-0.6l-0.4,0.7c-1.5,0.4-3.1,0.7-4.6,0.6
			c1.8-0.6,3.5-1.3,5.2-2.2C32.9,76,31.1,76.6,29.2,76.9L29.2,76.9z M24.7,72.9c3.1-1.4,6.1-3.1,8.9-5c0.8,0.2,1.6,0.2,2.5,0.1
			c-1,1.3-2.1,2.5-3.3,3.7c0.7,0.2,1.4,0.4,2.2,0.6c-1.8,0.8-3.8,1.3-5.8,1.5l0.6-0.7l-1,0.8c-1.3,0.1-2.5,0-3.8-0.2
			c2.1-0.4,4.2-1.1,6.1-2.2C29.1,72.2,26.9,72.7,24.7,72.9L24.7,72.9z M26.6,69.4c-1.5-0.2-3-0.7-4.4-1.3c2.1,0.4,4.2,0.4,6.3-0.2
			c-2.3,0.4-4.7,0.2-6.9-0.6c2.1,0,4.2-0.6,6-1.6H29c0.3,0.3,0.7,0.6,1.1,0.9l0,0c0.8,0.6,1.8,1,2.8,1.2c-0.9,0.6-1.8,1.2-2.8,1.7
			c-1.1,0.1-2.3,0-3.4-0.2l0.4-0.6L26.6,69.4z M23.5,61.2l7.8,1.7l-0.9,0.1c2.3,1.7,5.1,2.5,7.9,2.1c-0.4,0.4-1,1.3-1.9,2.5
			c-1.9,0.2-3.9-0.2-5.7-1l0.2-0.6l-0.4,0.6h-0.1c-1-0.5-1.8-1.2-2.3-2.2c0.1,0.4,0.2,0.7,0.4,1c-0.7,0-1.3,0-2-0.1l0.1-0.4
			l-0.2,0.4c-4.1-0.7-7.9-2.4-11.1-5c2.9,1.6,6.1,2.6,9.4,3c-3.4-0.6-6.6-1.8-9.6-3.6l5.7,1.2l5.8,1.9L23.5,61.2z M27.9,61.1
			c-0.4-0.2-0.7-0.4-1-0.7c-0.9-0.9-1.6-1.9-2.3-3c0.2,0.8,0.5,1.5,1,2.1c-1.2-0.9-2.2-2.1-3-3.4l0.2,1.4c-4.7-1.1-9-3.5-12.2-7
			c2.6,1.9,5.6,3.3,8.7,4.2c-3.2-1.1-6.1-2.7-8.7-4.8c3.2,1.6,6.5,2.9,10,3.9l0.1,0.4l0.1-0.6c1.4,0.4,2.9,0.9,4.4,1.2
			c1.2,1,2.5,1.8,3.9,2.5c2.4,1.9,5.3,3,8.3,3.3h0.1c-1.7,0.7-3.4,1.3-5.2,1.7L29.6,62c-0.5-0.3-1-0.6-1.5-0.9l0.1-0.8L27.9,61.1z
			 M24,53.5c-0.3-0.3-0.5-0.6-0.7-1c0.2-0.6,0.2-1.1,0.2-1.7c0,0-0.2,2-1,2.1c-0.9-0.6-1.7-1.3-2.5-2.1c-0.6-0.8-1.1-1.8-1.5-2.8
			c0,0,0.2,1,0.4,1.4s-0.4-0.6-0.4-0.6l-0.6-1l0.8,1.5c-0.8-1-1.6-2-2.3-3.1l0.2,0.9c-1.6-0.4-3.2-1.1-4.6-2
			c-1.2-0.9-2.4-1.9-3.4-3.1c0.6,0.8,1.2,1.5,1.9,2.1c-2.2-1.6-4.2-3.6-5.7-5.8c2.8,2.5,5.9,4.6,9.4,6.1c-3.6-1.8-6.9-4.2-9.7-7.1
			c2.8,1.9,5.8,3.7,8.8,5.2c-0.5-0.1-1-0.3-1.5-0.4c1.3,0.7,2.6,1.2,3.9,1.7c1.2,0.6,2.5,1.1,3.8,1.5c2.1,2.1,4.5,4,7.1,5.5
			c2.6,2.8,5.8,5,9.4,6.3c-1.7,0.1-6.5,0.2-8.3-0.6l0,0c-1.4-0.7-2.7-1.6-3.8-2.8l0.2-0.6L24,53.5z M18,42.8
			c-0.2-0.2-0.3-0.4-0.4-0.7l0.4-0.6l-0.6,0.4c-0.4-0.6-0.7-1.2-1-1.9c-0.3-0.6-0.4-1.3-0.2-2c-0.2,0.3-0.3,0.7-0.4,1
			c-0.9-0.6-1.7-1.3-2.5-2v-0.4l-0.4-0.4l0.2-1.1l-0.4,1.1l0.2,0.4v0.2c-2.3-2.1-4.3-4.4-6.1-6.9L7.3,30l0,0l0.2,0.6l-0.1-0.4
			l0.2,0.2l0.2,0.4l0.6,0.6l2,1.8l-2.3-2.3l0.6,0.6l0.6,0.4l-1-1l-1-0.9l-0.6-0.6C6.4,29,6,28.6,5.8,28.2l0.7,0.2l-1-0.6
			c-0.9-1.4-1.8-2.9-2.5-4.4C7.9,30.1,14,35.8,21.1,40.2c-6.7-4.3-12.5-9.9-17.2-16.3c2.3,2.5,4.6,5,7.1,7.3l1.5,2.1l-0.6-1.2l1,1.1
			l-0.2-0.6c2.5,2.3,5.6,4.9,9.1,7.5c1.8,1.9,3.7,3.5,5.8,5c-3.1-2.5-5.8-5.4-8.2-8.7l0.6-1l-0.6,0.7c-1.2-1.5-2.1-3.2-2.7-5
			l0.9,0.4L15.7,30l0.1-0.6l-0.4,0.4l-0.2-0.2v-1.2l-0.6-1v-0.6c0,0-0.2,1-0.7,1.3l-0.2-0.7v0.7h-0.4c0,0-1.6-2-3.5-5v-0.6l0.2,0.2
			l0.4,0.7l-0.2-0.7l0.1-0.2l0.4-0.6c1.9,2.3,4,4.4,6.2,6.3c-2.2-2-4.2-4.2-6-6.5l0.1-0.1l-0.1,0.1c-1.9-2.3-3.5-4.7-5-7.3
			c4.2,6,9.2,11.5,14.8,16.2c1,2,2.3,3.8,4,5.4c-1.5-1.9-2.9-4-4-6.2l0.1-0.4l0.4-1.4l-0.4,1.2l-0.1-0.5l0.1,0.6v0.2l-0.1,0.2
			c-0.4-0.7-0.6-1.5-0.7-2.3c-0.1-0.4,0-0.7,0.2-1c-0.2,0.1-0.4,0.3-0.4,0.6c-0.4-0.6-1.3-1.7-2.5-3.4l0.2-0.5l-0.2,0.2
			c-0.2-0.4-0.6-0.8-0.8-1.2v-0.2l0,0l0.2-0.6l-0.2,0.4l-0.8-2.2l0.4,1.3l-0.4-0.2l-0.2-0.1l0.6,0.7l0.1,0.2v0.4
			c-2-3.3-3.7-6.9-5-10.6c1.1,2.3,2.3,4.6,3.7,6.9c1.5,2.7,3.5,5.2,5.7,7.3c-2.2-2.2-4-4.7-5.5-7.4c-0.9-1.6-1.7-3.3-2.5-4.8
			C14.7,17,17.2,20.6,20,24h-0.2l0.4,0.6l-0.9-0.6l1.6,1.3c0.8,0.8,1.7,1.8,2.5,2.6c1.2,2.5,3.5,6.7,6,9.2l0.6,0.6
			c-2.8-2-5.4-4.3-7.6-6.9c0,0,1,4.7,8.6,12.1c-3.2-2-6.1-4.4-8.8-7c0,0,0.9,4.4,8.9,11.1c-2.4-1-4.8-2.1-7.1-3.3
			c2.9,4.3,6.9,7.6,11.6,9.6c-2.3-0.6-6.1-1.6-8.3-2.5l0,0c-2.5-1.4-4.8-3.1-6.8-5.2l-0.2-0.4l-0.1-0.9c1.8,2,3.9,3.8,6.2,5.2
			c-2.2-1.6-4.2-3.4-6-5.4l0.4-0.4L20.2,44c-1.5-1.6-2.7-3.5-3.6-5.6c0,0,0.4,2.3,3.4,5.7H20l0.1,0.6v0.6
			C19.3,44.4,18.7,43.6,18,42.8l0.4-0.4L18,42.8z M9.4,21.9l-0.2-0.2l0.4,0.6l0.1,0.6l0,0c-0.4-0.6-0.8-1.1-1.1-1.7l0.1-0.4L8.2,21
			c-1.6-2.5-2.9-5.2-4-7.9c1.9,3.2,4.1,6.3,6.5,9.1l-0.4,0.6l-0.1-0.6v0.6h-0.2l-0.2,0.2l-0.2-0.6l-0.4-1L9.4,21.9z"/>
		<path class="st2" d="M38.3,44.4c0.2,0.6,0.7,1,1.2,1.3c-0.1,1.2,0.4,2.3,1.4,2.9c-0.8-0.6-1.2-1.7-1-2.7c0.1-0.2,0.2-0.4,0.4-0.4
			c-0.2,0-0.4,0-0.6,0.1c-0.6-0.4-1-0.9-1.3-1.6c-0.1-0.5-0.1-1,0.2-1.4c-0.2,0.1-0.2,0.2-0.4,0.4c-1-0.8-1.5-2.1-1.3-3.4
			c-0.3,1.4,0.1,2.8,1.1,3.8C38,43.7,38.1,44.1,38.3,44.4z"/>
		<path class="st2" d="M39.3,55.5c0.2-1.6,1-1.8,1.3-1.9c0.2,0.3,0.5,0.5,0.8,0.7c-0.2-0.3-0.4-0.6-0.6-1l0,0
			c-0.2-0.4-0.4-0.8-0.4-0.9c-0.6-1-0.3-2.4,0.6-3.1c-0.5,0-1,0.4-1.1,0.9c-1-0.7-1.3-2-0.8-3.1c-0.1,0.1-0.2,0.2-0.2,0.2
			c-0.8-0.5-1.3-1.3-1.3-2.2c0,0-0.6,1,1.2,2.5c-0.2,0.6-0.4,1.7,1,3.1c0,0.6,0.1,1.2,0.2,1.7c0.1,0.3,0.2,0.6,0.4,0.8l0,0
			c-1,0.5-1.5,1.5-1.4,2.5c0.1,1.5,0.9,2.9,2.1,3.8C41,59.5,38.9,57.4,39.3,55.5z"/>
		<path class="st2" d="M41.1,59.7c-1.7,2.5,1.6,3.9,1.6,3.9C40.1,61.7,41.1,59.7,41.1,59.7z"/>
		<path class="st2" d="M48.5,69.4c0.2-0.1,0.2-0.2,0.4-0.2c-2.8,1-4.6-2.1-4.6-2.1c1.5,3.1,3,3,3.8,2.5c0,0.4,0.2,1.5,2,2.5
			C50.1,71.9,48.4,70.5,48.5,69.4z"/>
		<path class="st2" d="M58.3,75c0.1-0.2,0.2-0.2,0.2-0.4c-1,1.6-2.6-0.1-2.9-0.2c0.1-0.2,0.2-0.4,0.2-0.6c0,0.2-0.1,0.3-0.2,0.4l0,0
			v0.1c-0.4,0.6-1,0.9-1.7,0.9c-1.5-0.3-2.7-1.3-3.3-2.7c0.3,1.4,1.3,2.5,2.7,2.9c0.8,0.3,1.6,0,2.1-0.7c1.4,1.1,2.2,1,2.6,0.7
			c0.3,0.7,1,1.1,1.7,1.1C59,76.3,58.5,75.7,58.3,75z"/>
		<path class="st2" d="M41,51.1c0.6-0.4,1.4-0.4,2.1,0c0,0.9,0,1.8-0.2,2.7c0.3-0.9,0.4-1.7,0.4-2.6c0.6,0.3,1.2,0.8,1.7,1.3
			c-0.4-0.7-1-1.2-1.7-1.6c0-2.5-0.9-6.4-4.6-11.2c0.7,1,3.9,5.6,4.4,11.1C42.3,50.5,41.6,50.7,41,51.1z"/>
		<path class="st2" d="M42.8,74.2c-1.5,1.4-3.6,2.1-5.7,2C39.3,77.2,41.8,76.3,42.8,74.2z"/>
		<path class="st2" d="M41.2,79.4c0,0,4.2,0.6,5.4-3C46.5,76.5,45.5,78.8,41.2,79.4z"/>
		<path class="st2" d="M49.7,78.8c-0.3,1-1,1.8-1.9,2.3C47.7,81.1,49.7,81.2,49.7,78.8z"/>
		<path class="st2" d="M53.2,78.4c-0.4,1.3-1.2,2.5-2.3,3.3C52.3,81.2,53.2,79.9,53.2,78.4z"/>
		<path class="st2" d="M53.5,77.7c0.9-0.6,0.4-2,0.4-2C53.9,76.4,53.8,77.1,53.5,77.7z"/>
		<path class="st2" d="M39.3,71.7c-1,0.4-2.1,0.6-3.1,0.7c-0.5,0.3-1.1,0.5-1.7,0.7C34.6,73,38,73.2,39.3,71.7z"/>
		<polygon class="st2" points="35.3,68.6 35.5,68.3 33.8,68.1 31.7,69.5 33.8,68.4 		"/>
		<path class="st2" d="M37.6,65.5c-2.5,0.2-5.1-0.5-7.1-2.2C30.5,63.4,33.4,67.3,37.6,65.5z"/>
		<path class="st2" d="M36.6,60.9c0,0-5-0.2-7.7-3.3c-1.5-0.4-2.8-1.3-3.8-2.5c0,0,0,1,3.7,2.9C28.7,58,32.7,62,36.6,60.9z"/>
		<path class="st2" d="M35.3,56.9c-3.3-1-6.2-3-8.4-5.7c-2.9-1.4-5.4-3.3-7.5-5.7c0,0,1.7,3.3,7.3,6.2
			C28.9,54.4,31.9,56.2,35.3,56.9z"/>
		<path class="st2" d="M33.7,52.5c-4.1-1.9-7.5-5-9.8-8.8C23.8,43.6,25.5,49.8,33.7,52.5z"/>
		<path class="st2" d="M25.5,43.9c-1.4-1.1-2.8-2.3-4-3.7C22.3,41.9,23.7,43.2,25.5,43.9z"/>
		<path class="st2" d="M22,35.8c0,0,0.4,5.4,6.9,9.4C25.7,42.8,23.3,39.5,22,35.8z"/>
		<path class="st2" d="M27.8,35.5c0,0-3.3-4.3-4.4-7.6c-1.1-1-1.9-1.8-1.9-1.8l1.7,1.9C24.2,30.8,25.8,33.3,27.8,35.5z"/>
		<path class="st2" d="M20.4,48.6l-0.2-0.2L19.7,48l-0.7-1.4l0.4,1.1l-0.2-0.2L19,47.1v0.2l-0.2-0.2l-1.4-1.4l0.2,1.3l-0.1-1
			l0.2,0.6c0,0,0.1-0.2,0-0.2l1,1.2l1.4,1.2l1.1,0.1l-0.9-0.4L20.4,48.6z"/>
		<path class="st2" d="M29.5,37.8l-0.2-0.2l-0.8-0.4l0.7,0.4l0.4,0.9c0,0-2-1.8-2.1-1.8s2.7,2.6,2.7,2.6l0.4,0.6l0.4,0.2l-0.7-1
			l-0.8-1l1.9,1L29.5,37.8z"/>
		<path class="st2" d="M28.9,66.2c0.9,0.8,2.1,1.4,3.3,1.7c-1.3-0.4-2.4-1.1-3.3-2c-0.5,0.1-1,0.1-1.5,0
			C27.9,66.1,28.4,66.2,28.9,66.2z"/>
		<path class="st3" d="M38.6,70.7l-0.4,0.2C38.3,70.8,38.4,70.7,38.6,70.7z"/>
		<path class="st2" d="M38.6,70.7c0.6-0.3,1.3-0.6,1.8-1c0.5-0.7,1-1.5,1.3-2.3C40.9,68.7,39.9,69.8,38.6,70.7z"/>
		<path class="st2" d="M43.4,74.6c0.8-1.3,1.3-2.8,1.4-4.4c-0.2,1-0.5,2-1,2.9L43.4,74.6z"/>
		<path class="st2" d="M47.3,75.3v2.3c0.1-1.1,0.3-2.3,0.7-3.4C48,74.2,47.6,75.3,47.3,75.3z"/>
		<path class="st2" d="M50.1,78c0,0,1,0.1,0.7-2.3C50.8,76.6,50.5,77.3,50.1,78z"/>
		<path class="st2" d="M41.2,64.4c-0.7,0.4-1.4,0.7-2.1,0.9C39.9,65.3,40.6,65,41.2,64.4z"/>
		<path class="st1" d="M93.3,86.1l-0.2-0.2c-0.5-0.8-1-1.6-1.4-2.5L91.4,83l0.4,0.2c1,0.7,2.1,1.2,3.3,1.5h0.1
			c0.4,0.1,0.7,0.2,1,0.2h0.2l-0.2-0.2c-0.9-1.1-1.7-2.2-2.3-3.5l-0.2-0.4l0.4,0.2c1.8,1.1,3.9,1.6,6,1.6h1.1v-0.4
			c-1-0.8-1.9-1.7-2.7-2.8l-0.2-0.4l0.4,0.2c1.8,0.5,3.6,0.8,5.4,0.8h1.4l-0.2-0.2c-1.2-0.8-2.3-1.8-3.3-2.9l-0.4-0.6l0.6,0.2
			c1.7,0.8,3.5,1.1,5.4,1.1c1,0,2-0.1,2.9-0.4l0.4-0.1l-0.4-0.1c-1.3-0.4-3.8-2.3-5.2-3.6l-0.4-0.4l0.6,0.2c1.6,0.4,3.1,0.6,4.7,0.6
			c1.9,0,3.7-0.3,5.5-0.8l0.4-0.2l-0.4-0.1c-1.2-0.1-3.4-1.1-6.5-2.9l-0.4-0.2h0.8c3.4-0.2,6.8-1.3,9.5-3.4l0.2-0.2H119
			c-0.8,0.1-1.5,0.1-2.3,0.2c-1.6,0-3.2-0.3-4.7-0.8l-0.4-0.2l0.6-0.1c6.7-1.1,12.7-6.6,12.7-6.7l0.2-0.2l-0.4,0.1l-13.8,3l-0.7,0.2
			l0.6-0.4c1.3-1,2.6-2,3.7-3.3l0,0c9.1-1.7,15.6-10.2,15.6-10.2l0.6-0.6l-0.6,0.6c-3.6,2.9-12.2,5.5-15.8,6.5l-0.4,0.2l0.4-0.4
			c0.2-0.2,0.4-0.4,0.6-0.7l0.1-0.2l0.1,0.2l0.2,0.2h0.1c2.5-1.1,5.4-5,5.7-5.6l0,0c4.3-1.4,8.2-4,11.1-7.4c1.3-1.4,2.3-3,3.1-4.8
			l0.2-0.4l-0.4,0.4c-3.6,3.3-11.9,7.3-15.3,8.7l-0.6,0.2l0.4-0.4c1.1-1.4,2-2.9,2.6-4.6l0,0c6.8-5.2,12-12.2,15-20.2l0.2-0.8
			l-0.4,0.7c-3.6,5.6-12.7,13.6-18,18l-0.8,0.7l0.6-0.9c1.4-1.8,2.4-3.9,3-6.1l0,0l1.1-1l0,0l-0.1-1.3V29l0.2-0.4l0.1-0.2l0.2,0.2
			c0.2,0.3,0.4,0.6,0.7,0.8h0.1l0.1-0.1c4.9-5.5,8.5-12,10.8-19l0.2-0.6l-0.6,0.1c-8.5,12.3-14.4,17.8-16.5,19.6l-0.4,0.3l0.2-0.6
			l0.2-0.4l0.1-0.2c0.1-0.2,0.2-0.6,0.2-0.9l0,0C126.7,16.4,128,7.2,128,7l0.1-0.6L127.8,7c-3.1,6.9-7.3,13.3-12.3,18.9l-0.6,0.6
			l0.4-0.7l0.1-0.1l0.4-1l-0.6,0.9c-1.7,2.6-6,6.5-8.5,8.7l-0.7,0.6l0.6-0.8c1.5-2.4,2.5-5,3.1-7.7l0.1-0.7l-0.2,0.6
			c-1.1,2.5-4.1,6-7.9,9.4c-1.7,1.6-3.4,3.4-4.9,5.2c-0.4,0.4-0.7,0.9-1,1.3l-0.1,0.2l-0.2,0.4c-1.6,2.4-2.7,5.1-3.4,7.9
			c-0.2,1-0.3,2.1-0.2,3.1c0.3,0.7,0.7,1.3,1.2,1.7l0,0c0.1,0.2,0.2,0.2,0.2,0.4c0,0.1,0.1,0.2,0.2,0.2l0.1,0.1l0.2,0.4l0,0
			c0.3,3.7-1.2,7.3-4,9.8c-2,1.7-5,1.7-6.5,1.7c-0.3,0-0.7,0-1,0.1c-0.6,0.2-1.2,0.6-1.6,1.1h-0.1c-1,0.1-1.9,0.4-2.6,1
			c-1.4,1.1-2.5,2.7-2.9,4.4v0.5l0,0c-0.1,0.1-0.1,0.2-0.2,0.2c-0.2,0.2-0.3,0.3-0.4,0.6l-0.1,0.1v0.2h-0.6L73.5,76
			c-0.6,0.7-1,1.7-1,2.6c0,0.4,0.1,0.7,0.1,1.1l0.1,0.6l-0.4-0.6l-0.6-0.6l0.6,1c0,0.1,0.9,1.8,2.3,1.8c0.9,0,1.7-0.7,2.5-2l0,0
			c0.2-0.2,0.4-0.4,0.6-0.6l0.1-0.1l0.1,0.1c0.7,0.5,1.5,0.8,2.3,0.8c0.6,0,1.2-0.1,1.7-0.4l0.1-0.1l0.1,0.1c0.5,0.9,1.2,1.6,2.1,2
			l0.2,0.1L84,81.7c0-0.1-0.1-0.2-0.1-0.2l0.2-0.1c0.6,1.9,2,3.4,3.8,4.1l0.2,0.1L88,85.3c-0.4-0.7-0.6-1.5-0.6-2.3l-0.1-0.6
			l0.4,0.4c1.4,1.4,3.1,2.4,5,3L93.3,86.1L93.3,86.1z"/>
		<path class="st2" d="M70.9,77.9l1.1,2.3c0,0.1,1,1.9,2.3,1.9c0.9,0,1.8-0.7,2.6-2.1c0.2-0.2,0.4-0.4,0.6-0.6
			c0.7,0.5,1.6,0.8,2.5,0.8c0.6,0,1.3-0.2,1.8-0.4c0.5,0.9,1.3,1.6,2.2,2l0.6,0.2l-0.2-0.6c0-0.1,0-0.2-0.1-0.2
			c1.2,3.5,3.8,4.2,4,4.2l0.6,0.2l-0.4-0.6c-0.3-0.7-0.6-1.4-0.6-2.2c1.4,1.5,3.1,2.5,5,3.1l0.9,0.2l-0.6-0.6
			c-0.5-0.8-1-1.6-1.3-2.5c1,0.7,2.1,1.2,3.3,1.5l0,0c0.1,0,0.1,0.1,0.2,0.1h0.1c0.4,0.1,0.7,0.2,1,0.2l0.7,0.1l-0.6-0.6
			c-1-1-1.7-2.3-2.3-3.6c1.8,1,3.9,1.6,6,1.6h0.9l0.6-0.1l-0.4-0.4c-1-0.8-1.9-1.7-2.7-2.8c1.8,0.5,3.6,0.8,5.5,0.8h1l0.8-0.1
			l-0.7-0.4c-1.2-0.9-2.3-1.8-3.3-3c1.7,0.8,3.5,1.1,5.4,1.1c1,0,2-0.1,3-0.4l0.9-0.2l-0.9-0.2c-1.2-0.4-3.8-2.3-5.2-3.6
			c1.6,0.4,3.2,0.6,4.8,0.6c1.9,0,3.7-0.3,5.5-0.8l1-0.4l-1.1-0.1c-1.2-0.1-3.4-1.1-6.4-2.9h0.2c3.5-0.1,6.9-1.3,9.6-3.5l0.6-0.6
			l-0.8,0.1c-0.8,0.1-1.5,0.1-2.3,0.2c-1.6,0-3.2-0.3-4.7-0.8c6.8-1.2,12.7-6.7,12.9-6.7l0.6-0.6l-0.9,0.2l-13.7,2.9l0,0
			c1.4-0.9,2.6-2,3.8-3.3c9.1-1.7,15.6-10.2,15.6-10.2L131,46l-1.5,1.2c-3.6,2.9-12.5,5.6-15.7,6.5c0.2-0.2,0.4-0.4,0.6-0.7l0.2,0.2
			l0.1,0.1l0.1-0.1c2.5-1.1,5.4-5,5.8-5.6c4.3-1.3,8.2-3.8,11.1-7.3c1.3-1.4,2.3-3.1,3.1-4.8l0.4-1l-0.8,0.8
			c-3.5,3.3-11.7,7.1-15.3,8.7c1.1-1.4,2-2.9,2.6-4.6c10.8-7.9,15-20,15.1-20.1l0.6-1.8l-1,1.7c-3.6,5.7-13.2,14.1-17.9,18
			c1.4-1.8,2.4-3.9,3-6.1l1.1-1l0.1-0.1l0,0l0.1-1.4l0.2-0.4c0.2,0.4,0.4,0.6,0.8,0.8l0.2,0.1l0.1-0.1c4.8-5.6,8.5-12,10.8-19
			l0.4-1.3l-0.8,1.1c-8.5,12.3-14.3,17.7-16.5,19.6l0.2-0.4l0.1-0.2c0.2-0.3,0.3-0.6,0.2-1c8.6-11.2,9.8-20.4,9.8-20.5l0.2-1.5
			l-0.6,1.4c-3.1,6.8-7.3,13.2-12.3,18.8l0.1-0.1l1-2.3l-1.4,2c-1.7,2.5-6,6.5-8.4,8.6c1.5-2.4,2.5-5,3.1-7.7l0.2-1.6l-0.7,1.5
			c-1.1,2.5-4,6-7.9,9.4c-1.7,1.6-3.4,3.4-4.9,5.2l0,0c-0.4,0.4-0.7,0.9-1,1.3l-0.1,0.1l-0.2,0.4c-1.6,2.4-2.7,5.1-3.4,7.9
			c-0.2,1.1-0.3,2.2-0.2,3.3l0,0c0.2,0.7,0.7,1.4,1.3,1.8c0.1,0.1,0.2,0.3,0.2,0.4c0.1,0.1,0.1,0.2,0.2,0.4l0.1,0.1l0.2,0.4
			c0.2,3.7-1.2,7.3-4,9.7c-2,1.6-4.9,1.7-6.5,1.7c-0.3,0-0.7,0-1,0.1c-0.7,0.2-1.2,0.6-1.7,1.1c-1,0.2-1.9,0.5-2.7,1
			c-1.5,1.1-2.5,2.7-2.9,4.6c0,0.2-0.1,0.2-0.1,0.4v0.1l0,0c-0.1,0.2-0.1,0.2-0.2,0.2c-0.2,0.2-0.3,0.3-0.4,0.6l-0.1,0.1h-0.4
			l-0.4-0.4c-0.7,0.8-1.1,1.7-1.1,2.8c-0.1,0.4-0.1,0.8,0,1.2L70.9,77.9z M75.1,80.7c0.3,0,0.7-0.1,1-0.2c-0.5,0.8-1.6,1.2-2.5,1
			c-1.5-1.2-0.6-3.7-0.2-4.6c0.2-0.2,0.4-0.2,0.7-0.2c0.1,0,0.4,0.1,0,1.1c0,0,0.6-0.7,0.4-1.1c0.2-0.4,0.4-0.7,0.6-1
			c0.2,0.4,0.4,0.8,0.6,1.2c-0.9-2.5,0.1-3.4,1-5c0.7-1,1.7-1.7,3-1.9c0.2-0.1,0.4-0.1,0.6,0c-0.2,0.4-0.4,0.8-0.6,1.1
			c1.4-2.6,2.5-2.5,3.3-2.5h0.4c-0.9,0.7-1.4,1.8-1.5,2.9c-0.4-0.1-0.8-0.3-1.1-0.6c0.3,0.4,0.7,0.6,1.1,0.8c0,0.4,0,0.7,0.1,1.1
			v-1.1c2.1,0.7,4.8-1.5,4.8-1.5c-2.3,1.4-3.8,1.5-4.7,1.3c0.2-1.2,0.9-2.3,1.9-3c0.6,0,1-0.1,1.7-0.1l0.4-0.1
			c2.8-0.2,5.4-1.5,7.3-3.6c-1.1,1.1-2.5,1.9-4,2.5c1.2-0.8,2.3-1.9,3.1-3.1c1.5-1.7,2.5-3.8,3-6c-0.4,1.3-1,2.6-1.8,3.8
			c0.6-1.7,0.8-3.4,0.7-5.2c0-0.4-0.1-0.7-0.4-1c0.3,0.2,0.7,0.2,1.1,0.2c-1.2-0.4-2.2-1.3-2.6-2.5c-0.1-0.6-0.2-1.1-0.2-1.7
			c0.1-0.7,0.2-1.3,0.4-2c1-2.3,3.3-6.5,3.3-6.5l-2.5,4c0.4-1.1,0.9-2.1,1.5-3.1l0,0c1.8-2.8,4-5.4,6.5-7.7c0.9-0.8,1.8-1.7,2.6-2.5
			c-1,1.3-2.1,2.6-3.3,3.7c2.4-2.2,4.5-4.6,6.4-7.3c0.4-0.5,0.8-1,1.1-1.5c-1,1.9-2.1,3.7-3.5,5.4c1.6-1.7,2.9-3.6,4-5.6
			c-0.8,2.3-2,4.5-3.5,6.5l-1,1l0.8-0.6c-0.9,1.2-1.8,2.3-2.8,3.5c1.1-0.9,2-2,2.9-3.1c1-0.8,2.1-1.7,3.1-2.5l-0.2,1l1-1.6
			c1.8-1.7,3.7-3.5,4.6-4.6c-1.9,2.9-4.1,5.6-6.5,8.1c2.6-2.4,4.9-5,6.9-7.9c-1.1,2.3-2.5,4.5-4.1,6.5l-1.5,1.2l1.2-0.9
			c-0.9,1-1.6,2-2,2.5c-3,2.2-5.4,3.7-5.4,3.7c1.3-0.7,2.6-1.5,3.8-2.3l-0.4,0.7l0.7-1c2.6-1.9,5.2-3.9,7.6-6.1
			c-1.8,2.4-3.7,4.6-5.8,6.7c2.3-2,4.4-4.3,6.2-6.8c-1.7,3.1-3.8,5.9-6.4,8.3l-0.4-0.6l0.2,0.7l-0.1,0.1l-0.2-0.2v0.4
			c-0.9,0.9-1.7,1.6-2.2,2c-1.6,1-3.3,1.9-5,2.7c1.7-0.6,3.3-1.4,4.8-2.3l-0.4,0.9l0.6-1c1.1-0.7,2.3-1.4,3.3-2.1l-0.6,0.8l0.7-1
			c1.7-1.2,3.4-2.5,5-3.9c-2.8,3.3-6.1,6.1-9.7,8.5c3.7-2.2,7.1-4.9,10-8.1c-2.3,3.4-5.1,6.4-8.3,9c-2.9,1.2-5.4,2.2-5.4,2.2
			c1.7-0.4,8.9-3.4,11.4-4.4c-2.7,2.1-5.6,3.9-8.8,5.2c3.3-1.2,6.4-2.9,9.2-5c-2.6,3.2-5.9,5.8-9.7,7.5l-1.1,0.6l-1,0.2
			c2.5,0.1,7-1.3,8.9-1.9c-1.8,1.2-3.7,2.1-5.8,2.5c2.1-0.3,4.1-1,6-2.1c-2.8,2.5-6.1,4.4-9.7,5.4c0.4,0,0.9-0.1,1.3-0.2
			c2.4,0.2,4.7,0.2,7.1,0c-1.5,0.8-3.2,1.2-5,1.3c1.6,0.1,3.3-0.2,4.8-0.7c-2.2,1.3-4.6,2.2-7.1,2.7l-1.7,0.1
			c0.8,0.3,1.6,0.6,2.5,0.9h-0.7l0.6,0.2l-0.6,0.1l-1,0.1l1,0.2l1.4-0.1l3.8,1.2c-1.8,0.4-3.6,0.4-5.4,0c1.7,0.5,3.5,0.7,5.2,0.6
			c-1.4,0.6-3,1-4.6,1l-0.2-0.4l-1.3-0.6l0.9,0.6l0.2,0.2l0.1,0.2c-1.3,0-2.6-0.2-3.8-0.7c0.7,0.4,1.5,0.7,2.3,0.9
			c1.3,2.3,2.9,4.3,4.8,6.1c-1.6-0.2-3.1-0.9-4.3-1.9c1,1.1,2.3,1.9,3.7,2.3c-2.2,0.4-4.5-0.2-6.2-1.7c-0.8-1.4-1.4-2.5-1.4-2.5
			c1.1,2.7,2.5,5.3,4.2,7.6c-1.1-0.4-2.1-1.1-2.9-2c0.7,0.9,1.5,1.7,2.5,2.3c-1.7-0.2-3.3-1-4.6-2.2c-0.8-0.9-1.4-2.1-1.7-3.3
			c0.1,1,0.5,1.9,1,2.8c0.4,1.4,1.1,4,1.4,5.2c-0.9-0.8-1.6-1.7-2.2-2.6c0.5,1.1,1.1,2.1,1.8,3.1c-3.3-1-5-4.4-5-4.4
			c0.2,0.5,0.4,1,0.6,1.4c-0.1,1,0.1,3.8,0.1,4.9c-0.6-0.8-1.1-1.6-1.5-2.5c0.2,1,0.6,1.9,1,2.8c-2.1-1-3.3-4.7-3.3-4.7
			c0.2,0.8,0.4,1.6,0.8,2.3c-0.1,0.6-0.2,2-0.2,2.7c-0.6-0.8-0.9-1.8-1.1-2.8c0,0.9,0.3,1.8,0.6,2.7c-1.4-1.3-2.4-3-2.8-4.9
			c0,0.7,0.2,1.4,0.4,2c-0.4,0.9-0.6,1.8-0.8,2.7c-0.4-0.9-0.7-1.8-0.8-2.8c0,1,0.1,2,0.4,2.9c-1.2-1.2-1.9-2.9-1.7-4.6
			c-0.2,1-0.2,1.9,0.1,2.9c-1,1-2.7,1-3.7,0c0,0,0,0,0,0l0,0c0.1-0.2,0.2-0.5,0.4-0.7c0.1-0.4,0-0.7-0.2-1
			C77.8,77.2,78.2,79.2,75.1,80.7L75.1,80.7z M86.1,82.1c0.2,0.7,0.5,1.5,0.9,2.2c-1.5-1.2-2.5-2.9-2.9-4.8c0.1-0.5,0.2-1,0.4-1.5
			c0.5,1.4,1.5,2.7,2.6,3.7c0.1,0.7,0.2,1.8,0.4,2.5C86.9,83.5,86.5,82.8,86.1,82.1L86.1,82.1z M89.3,82.1c0.5,1,1.2,2,2,2.8
			c-1.4-0.5-2.7-1.5-3.5-2.8l0,0c-0.2-1.2-0.2-2.5,0-3.8c0.5,1,1.2,1.9,2.2,2.5c0.2,0.4,0.4,0.7,0.6,1c0.2,0.7,0.8,1.9,1,2.6
			C90.8,83.8,90,83,89.3,82.1z M92.3,81.3c0.7,1,1.5,1.9,2.3,2.8c-1.8-0.5-3.4-1.6-4.6-3.1c0.4,0.2,0.8,0.4,1.2,0.6
			c-0.4-1.9-0.6-3.9-0.6-5.8c1.2,1.9,3.2,3.1,5.5,3.4c-0.3-0.5-0.5-1-0.7-1.5c0.5,0.5,1.1,0.9,1.7,1.2c0.7,1,1.4,2,2.3,3
			c-1.1-0.4-2.2-0.8-3.3-1.4c0.9,0.7,1.9,1.4,3,1.9c-4.6-0.2-8.1-3.8-8.1-3.8c0.6,0.7,1.3,1.4,2.1,1.9c0.4,1.1,1,2.3,1.5,3.3
			C94,83,93.1,82.2,92.3,81.3L92.3,81.3z M99.2,78.3l0.2,0.8c-1.4-0.4-2.7-1.1-3.8-2c-0.5-1.2-0.8-2.4-1.1-3.7c0.4,0.5,1,1,1.6,1.2
			c1.4,0.8,3,1.3,4.6,1.4c1,1.1,1.9,2.2,3,3.3c-1.2-0.3-2.4-0.8-3.6-1.4c1,0.8,2.1,1.4,3.3,1.9c-1.2,0-2.4-0.2-3.6-0.6L99.2,78.3z
			 M103.2,75.3c1.6,0.9,3.4,1.6,5.2,2.2c-1.6,0-3.1-0.2-4.6-0.6l-0.4-0.7l0.2,0.6c-0.8-0.2-1.5-0.5-2.3-0.9
			c-1.3-1.7-2.5-3.4-3.6-5.2c1.2,0.8,2.6,1.3,4.1,1.4c0.5,0.3,1.1,0.5,1.7,0.7c1.5,1.6,3.3,3,5.2,4.1
			C106.8,76.5,104.9,76,103.2,75.3L103.2,75.3z M106.3,71.3c1.9,1,4,1.8,6.1,2.2c-1.2,0.2-2.5,0.2-3.8,0.2l-1-0.8l0.6,0.7
			c-2-0.2-3.9-0.7-5.8-1.5c0.7-0.1,1.5-0.2,2.2-0.6c-0.8-0.8-2.1-2.3-3.3-3.7c0.8,0.1,1.6,0.1,2.5-0.1c2.8,2,5.8,3.7,8.9,5
			C110.5,72.7,108.3,72.2,106.3,71.3L106.3,71.3z M110.4,68.8l0.4,0.6c-1.1,0.2-2.3,0.2-3.4,0.2c-1.3-0.8-2.3-1.5-2.8-1.7
			c1-0.2,1.9-0.6,2.8-1.2l0,0c0.4-0.2,0.8-0.5,1.1-0.9h1.5c1.9,1,3.9,1.5,6,1.6c-2.2,0.8-4.6,1-6.9,0.6c2,0.6,4.2,0.7,6.3,0.2
			c-1.4,0.6-2.9,1-4.4,1.3L110.4,68.8z M110.9,62.6l5.8-1.9l5.7-1.1c-3,1.7-6.2,2.9-9.6,3.6c3.3-0.4,6.5-1.4,9.4-3
			c-3.3,2.6-7.1,4.3-11.2,5l-0.2-0.4l0.1,0.4c-0.7,0.1-1.3,0.1-2,0.1c0.3-0.3,0.4-0.7,0.4-1c-0.6,0.9-1.5,1.7-2.5,2.2h-0.1l-0.4-0.6
			l0.2,0.6c-1.7,0.9-3.7,1.2-5.6,1c-0.9-1-1.6-2-1.9-2.5c2.8,0.4,5.7-0.3,7.9-2.1l-0.9-0.1l7.8-1.7L110.9,62.6z M109.4,60.3l0.1,0.8
			c-0.6,0.4-1.1,0.7-1.5,0.9l-2.7,0.6c-1.8-0.4-3.5-1.1-5.2-1.8h0.1c3-0.3,5.9-1.5,8.4-3.3c1.4-0.7,2.7-1.5,3.9-2.5
			c1.6-0.4,3.1-0.8,4.4-1.2l0.1,0.6l0.1-0.6c3.4-1,6.7-2.3,9.8-3.9c-2.6,2.1-5.6,3.7-8.7,4.8c3.1-0.9,6.1-2.3,8.7-4.2
			c-3.3,3.5-7.5,6-12.2,7l0.2-1.4c-0.7,1.3-1.7,2.5-3,3.4c0.5-0.6,0.9-1.3,1-2.1c-0.6,1.1-1.3,2.1-2.2,3c-0.3,0.3-0.7,0.5-1,0.7
			L109.4,60.3z M113.3,53l0.2,0.7c-1.1,1.1-2.4,2.1-3.8,2.8l0,0c-1.8,0.8-6.7,0.7-8.3,0.6c4.6-1.3,8.1-4.9,9.4-6.3
			c2.6-1.5,5-3.3,7.1-5.5c1.3-0.4,2.6-1,3.8-1.5c1.4-0.4,2.7-1,3.9-1.7c-0.5,0.2-1,0.3-1.5,0.4c3-1.6,6-3.3,8.8-5.2
			c-2.8,2.9-6.1,5.3-9.7,7.1c3.4-1.6,6.5-3.6,9.4-6.1c-1.5,2.3-3.4,4.3-5.7,5.8c0.7-0.7,1.3-1.4,1.9-2.2c-1,1.1-2.1,2.2-3.4,3.1
			c-1.4,0.9-3,1.6-4.6,2l0.2-0.9c-0.7,1.1-1.4,2.1-2.3,3.1l0.8-1.5l-0.6,1c0,0-0.6,0.9-0.4,0.6c0.1-0.4,0.4-1.4,0.4-1.4
			c-0.4,1-0.9,1.9-1.5,2.8c-0.8,0.8-1.6,1.5-2.5,2.1c-0.7,0-1-2.1-1-2.1c-0.1,0.6,0,1.2,0.2,1.7c-0.2,0.4-0.4,0.7-0.7,1L113.3,53z
			 M119.4,42.4l0.2,0.6c-0.6,0.8-1.2,1.6-1.9,2.3v-0.6l0.1-0.6h-0.1c3-3.3,3.4-5.7,3.4-5.7c-0.8,2.1-2,4-3.6,5.6l-0.6-0.2l0.4,0.4
			c-1.8,2-3.8,3.8-6,5.4c2.3-1.5,4.4-3.2,6.2-5.2l-0.1,0.9l-0.2,0.6c-2,2-4.3,3.8-6.8,5.2l0,0c-2.2,0.9-6,1.8-8.3,2.5
			c4.7-2,8.8-5.3,11.6-9.6c-2.3,1.2-4.7,2.3-7.1,3.3c8.1-6.6,8.9-11.1,8.9-11.1c-2.7,2.6-5.6,5-8.8,7c7.7-7.3,8.7-12.1,8.7-12.1
			c-2.3,2.6-4.8,4.9-7.6,6.9l0.6-0.6c2.5-2.5,4.6-6.6,6-9.2c1-0.8,1.8-1.7,2.6-2.7l1.6-1.3l-0.9,0.6l0.6-0.6l-0.2,0.1
			c2.8-3.4,5.3-7,7.4-10.8c-0.8,1.7-1.6,3.3-2.5,4.8c-1.5,2.7-3.3,5.2-5.5,7.4c2.3-2.2,4.2-4.6,5.8-7.3c1.3-2.2,2.5-4.5,3.6-6.9
			c-1.3,3.7-3,7.2-5,10.6v-0.4l0.1-0.2l0.6-0.7l-0.2,0.1l-0.2,0.4l0.4-1.3l-0.8,2.2l-0.2-0.4l0.2,0.6l0,0v0.2
			c-0.2,0.4-0.6,0.9-0.8,1.2l-0.2-0.2l0.2,0.4c-0.8,1.2-1.6,2.3-2.5,3.4c-0.1-0.3-0.3-0.5-0.6-0.6c0.2,0.3,0.2,0.7,0.2,1
			c-0.2,0.8-0.4,1.6-0.8,2.3l-0.1-0.2v-0.4l0.1-0.6l-0.1,0.4l-0.4-1.2l0.4,1.4l0.1,0.4c-1.1,2.2-2.4,4.3-4,6.2
			c1.7-1.5,3.1-3.3,4.1-5.4c5.6-4.7,10.6-10.2,14.8-16.2c-1.6,2.5-3.3,4.9-5,7.3l-0.1-0.1l0.1,0.1c-1.8,2.3-3.8,4.5-6,6.5
			c2.3-1.9,4.3-4,6.2-6.3l0.4,0.6l0.1,0.2l-0.2,0.7l0.4-0.7l0.2-0.2v0.6c-1.9,2.9-3.5,5-3.5,5h-0.4v-0.8l-0.1,0.6
			c-0.6-0.2-0.7-1.3-0.7-1.3v0.6l-0.6,1.1v1.2l-0.2,0.2l-0.4-0.4l0.1,0.6l-1.7,1.4l0.9-0.4c-0.6,1.8-1.5,3.5-2.5,5l-0.9-0.8l0.6,1
			c-2.3,3.2-5,6.2-8.1,8.7c2.1-1.5,4-3.1,5.8-5c3.5-2.6,6.5-5.2,9.1-7.5l-0.2,0.6l1-1.1l-0.6,1.2l1.5-2.1c2.5-2.3,4.8-4.8,7.1-7.3
			c-4.7,6.4-10.6,11.9-17.2,16.3c7.1-4.4,13.2-10.1,18.1-16.8c-0.9,1.6-1.7,3.1-2.5,4.4l-1,0.6l0.7-0.2c-0.2,0.4-0.6,0.9-0.9,1.2
			l-1,0.5l-1,0.9l-0.9,1l0.6-0.4l0.6-0.6l-2.3,2.3l2-1.8l0.6-0.6l0.2-0.4l0.2-0.2l-0.1,0.4l0.2-0.6l0.1-0.1l0.4-0.2
			c-1.8,2.5-3.8,4.8-6.1,6.9v-0.2l0.2-0.4l-0.4-1.1l0.2,1.1l-0.2,0.4v0.4c-0.8,0.7-1.6,1.4-2.5,2c0-0.4-0.1-0.7-0.4-1
			c0.1,0.7,0,1.4-0.2,2c-0.3,0.7-0.6,1.3-1,1.9l-0.6-0.4l0.4,0.6c-0.2,0.2-0.2,0.4-0.4,0.7L119.4,42.4z M128.3,21.1l-0.4,1l-0.2,0.6
			l-0.2-0.2h-0.2V22l-0.1,0.6l-0.6-0.6c2.4-2.9,4.5-5.9,6.5-9.1c-1.1,2.8-2.4,5.4-4,7.9l-0.2-0.4l0.1,0.4c-0.4,0.6-0.8,1.2-1.1,1.7
			l0,0L128,22l0.4-0.6l-0.2,0.2L128.3,21.1z"/>
		<path class="st2" d="M99.4,44.4c-0.2,0.6-0.7,1-1.2,1.3c0.1,1.2-0.4,2.3-1.5,2.9c0.8-0.6,1.2-1.7,1-2.7c-0.1-0.2-0.2-0.4-0.4-0.4
			c0.2,0,0.4,0,0.6,0.1c0.6-0.4,1-0.9,1.3-1.6c0.1-0.5,0.1-1-0.2-1.4c0.2,0.1,0.2,0.2,0.4,0.4c1-0.8,1.5-2.1,1.3-3.4
			c0.3,1.4-0.1,2.8-1.1,3.8C99.6,43.7,99.6,44.1,99.4,44.4z"/>
		<path class="st2" d="M98.4,55.5c-0.2-1.6-1-1.8-1.4-1.9c-0.2,0.3-0.5,0.5-0.8,0.7c0.2-0.3,0.4-0.6,0.6-1l0,0
			c0.2-0.4,0.4-0.8,0.4-0.9c0.6-1,0.3-2.4-0.6-3.1c0.5,0,1,0.4,1.1,0.9c1-0.7,1.3-2,0.8-3.1c0.1,0.1,0.2,0.2,0.2,0.2
			c0.8-0.4,1.3-1.3,1.3-2.2c0,0,0.6,1-1.2,2.5c0.2,0.6,0.4,1.7-1,3.1c0,0.6-0.1,1.2-0.2,1.7c-0.1,0.3-0.2,0.6-0.4,0.8l0,0
			c1,0.5,1.5,1.5,1.4,2.5c-0.1,1.5-0.8,2.9-2,3.8C96.8,59.5,98.8,57.4,98.4,55.5z"/>
		<path class="st2" d="M96.5,59.7c1.7,2.5-1.7,3.9-1.7,3.9C97.6,61.7,96.5,59.7,96.5,59.7z"/>
		<path class="st2" d="M89.2,69.4c-0.2-0.1-0.2-0.2-0.4-0.2c2.8,1,4.6-2.1,4.6-2.1c-1.5,3.1-3,3-3.8,2.5c0,0.4-0.2,1.5-2,2.5
			C87.5,71.9,89.3,70.5,89.2,69.4z"/>
		<path class="st2" d="M79.4,75c-0.1-0.2-0.2-0.2-0.2-0.4c1,1.6,2.6-0.1,2.9-0.2C82,74.2,82,74,81.9,73.8c0,0.2,0.1,0.3,0.2,0.4l0,0
			v0.1c0.4,0.5,1,0.9,1.7,0.9c1.5-0.3,2.7-1.3,3.1-2.7c-0.3,1.4-1.3,2.5-2.7,2.9c-0.8,0.3-1.6,0-2.1-0.7c-1.4,1.1-2.2,1-2.6,0.7
			c-0.3,0.7-1,1.1-1.7,1.1C78.6,76.4,79.2,75.8,79.4,75z"/>
		<path class="st2" d="M96.7,51.1c-0.6-0.4-1.4-0.4-2.1,0c0,0.9,0,1.8,0.2,2.7c-0.3-0.9-0.4-1.7-0.4-2.6c-0.6,0.3-1.2,0.8-1.7,1.3
			c0.4-0.7,1-1.2,1.7-1.6c0-2.5,0.9-6.4,4.6-11.2c-0.7,1-4,5.6-4.3,11.1C95.4,50.5,96.1,50.7,96.7,51.1z"/>
		<path class="st2" d="M94.9,74.2c1.5,1.4,3.6,2.1,5.7,2C98.4,77.2,95.9,76.3,94.9,74.2z"/>
		<path class="st2" d="M96.5,79.4c0,0-4.2,0.6-5.4-2.9C91.1,76.5,92.2,78.8,96.5,79.4z"/>
		<path class="st2" d="M88,78.8c0.3,1,1,1.8,1.9,2.3C89.8,81.1,88,81.2,88,78.8z"/>
		<path class="st2" d="M84.5,78.4c0.4,1.3,1.2,2.5,2.3,3.3C85.4,81.2,84.5,79.9,84.5,78.4z"/>
		<path class="st2" d="M84.2,77.7c-0.9-0.6-0.4-2-0.4-2C83.7,76.4,83.9,77.1,84.2,77.7z"/>
		<path class="st2" d="M98.3,71.7c1,0.4,2.1,0.6,3.1,0.7c0.5,0.3,1.1,0.5,1.7,0.7C103.1,73,99.7,73.2,98.3,71.7z"/>
		<polygon class="st2" points="102.5,68.6 102.2,68.3 103.8,68.1 105.9,69.5 103.8,68.4 		"/>
		<path class="st2" d="M100,65.5c2.5,0.2,5.1-0.5,7.1-2.2C107.1,63.4,104.2,67.3,100,65.5z"/>
		<path class="st2" d="M101.1,60.9c0,0,5-0.2,7.7-3.3c1.5-0.4,2.8-1.3,3.8-2.5c0,0,0,1-3.7,2.9C109,58,104.9,62,101.1,60.9z"/>
		<path class="st2" d="M102.4,56.9c3.3-1,6.2-3,8.4-5.7c2.9-1.3,5.4-3.3,7.5-5.7c0,0-1.7,3.3-7.3,6.2
			C108.8,54.4,105.8,56.3,102.4,56.9z"/>
		<path class="st2" d="M104,52.5c4.1-1.9,7.5-5,9.8-8.8C113.9,43.6,112.2,49.8,104,52.5z"/>
		<path class="st2" d="M112.3,43.9c1.4-1.1,2.8-2.3,4-3.7C115.4,41.9,114,43.2,112.3,43.9z"/>
		<path class="st2" d="M115.7,35.8c0,0-0.4,5.4-6.9,9.4C111.9,42.8,114.3,39.5,115.7,35.8z"/>
		<path class="st2" d="M109.9,35.5c0,0,3.3-4.3,4.4-7.6c1.1-1,1.9-1.8,1.9-1.8l-1.7,1.9C114.6,28,112.7,32.9,109.9,35.5z"/>
		<path class="st2" d="M117.3,48.6l0.2-0.2l0.4-0.4l0.6-1.4l-0.4,1.1l0.2-0.2l0.2-0.4v0.2l0.2-0.2l1.3-1.4l-0.2,1.3l0.1-1l-0.2,0.6
			c0,0-0.1-0.2,0-0.2l-1.1,1.2l-1.4,1.2l-1.1,0.1l1-0.2H117.3z"/>
		<path class="st2" d="M108.2,37.8l0.2-0.2l0.8-0.4l-0.7,0.4l-0.4,0.9c0,0,2-1.8,2.1-1.8s-2.7,2.6-2.7,2.6l-0.4,0.6l-0.4,0.2l0.7-1
			l0.8-1l-1.8,1L108.2,37.8z"/>
		<path class="st2" d="M108.8,66.2c-0.9,0.8-2.1,1.4-3.3,1.7c1.3-0.4,2.4-1.1,3.3-2c0.5,0.1,1,0.1,1.5,0
			C109.8,66,109.3,66.2,108.8,66.2z"/>
		<path class="st3" d="M99.2,70.7l0.4,0.2C99.4,70.8,99.3,70.7,99.2,70.7z"/>
		<path class="st2" d="M99.2,70.7c-0.6-0.3-1.3-0.6-1.8-1c-0.5-0.7-1-1.5-1.3-2.3C96.7,68.8,97.8,69.9,99.2,70.7z"/>
		<path class="st2" d="M94.3,74.6c-0.8-1.3-1.3-2.8-1.4-4.4c0.2,1,0.5,2,1,2.9L94.3,74.6z"/>
		<path class="st2" d="M90.3,75.3c0.1,1,0,2.3,0,2.3c-0.1-1.2-0.3-2.3-0.6-3.4C89.9,74.6,90.1,75,90.3,75.3z"/>
		<path class="st2" d="M87.5,78c0,0-1,0.1-0.7-2.3C86.9,76.6,87.2,77.3,87.5,78z"/>
		<polyline class="st3" points="98.7,65.1 98.6,65.2 98.7,65.1 		"/>
		<path class="st2" d="M96.5,64.4c0.7,0.4,1.4,0.7,2.1,0.9C97.8,65.3,97.1,65,96.5,64.4z"/>
		<path class="st4" d="M45.1,63.4c-0.3-0.1-0.5-0.3-0.6-0.6C44.8,63,44.9,63.1,45.1,63.4z"/>
		<path class="st4" d="M41.1,59.6l-0.2-0.2c0.2,0,0.4,0.1,0.6,0.2H41.1z"/>
	</g>
</g>
<g id="logo">
	
		<linearGradient id="SVGID_1_" gradientUnits="userSpaceOnUse" x1="-9.807237e-05" y1="46.404" x2="67.7992" y2="46.404" gradientTransform="matrix(1 0 0 -1 0 90)">
		<stop  offset="0" style="stop-color:#EFCD25"/>
		<stop  offset="1" style="stop-color:#EFCD25"/>
	</linearGradient>
	<path class="st5" d="M1.9,21.9c0-0.2,0-0.3-0.1-0.5c0-2,0.2-4,0.6-6c0.2-1.1,0.4-2.2,0.5-3.3c0.2-1.3,0.3-2.7,0.5-4
		c0.1-0.4,0-0.6-0.4-0.8c-0.1,0-0.1-0.1-0.2-0.1c-1.3-0.8-1.1-0.4-1.1-2V0.7c0-0.4-0.1-0.5-0.5-0.5C0,0.2,0,0.2,0,1.4v83.1
		c0,1-0.1,0.9,0.9,0.9h0.2c0.6,0,0.6,0,0.6-0.6V64.7c0.2,0.2,0.4,0.3,0.4,0.5c1.9,3.5,4.3,6.8,7,9.8c2.3,2.5,4.8,4.7,7.5,6.7
		c2.2,1.6,4.6,2.9,7.2,3.8c1.8,0.7,3.7,1.2,5.6,1.3c1.7,0.1,3.4,0.2,5.1,0.1c2.6,0,5.2-1.1,7-3c1.7-1.8,2.4-4.4,1.9-6.8
		c-0.5-2.8-1.6-5.5-3.4-7.8c-0.9-1.3-1.9-2.5-2.9-3.7c-0.3-0.2-0.3-0.6-0.1-0.9c1.2-1.8,2-3.8,2.2-5.9c0.1-1.6,0.1-3.2,0.2-4.7
		c0-0.5,0-0.6,0.6-0.5c1,0.2,2.1,0.4,3.1,0.6c1.8,0.4,3.5,0.9,5.3,1.3c0.6,0.1,1.1,0,1.7-0.1c0.3-0.2,0.5-0.4,0.7-0.7
		c-0.1-0.2-0.3-0.5-0.5-0.6c-2.1-1.3-4.4-2.2-6.8-2.7c-1.2-0.3-2.5-0.4-3.7-0.6c-0.4-0.1-0.6-0.2-0.7-0.6c-0.5-2-0.9-4-1.5-6
		c-0.3-1.2-0.8-2.4-1.2-3.6c-0.5-1.4-1-2.8-1.5-4.3c-0.1-0.2,0-0.4,0.1-0.6c1.4-2.2,3.9-3.5,6.5-3.3c2.1,0.2,4,1.1,5.6,2.5
		c1.2,1.2,2.2,2.6,2.9,4.1c1,2.2,1.9,4.5,2.8,6.8c0.7,2,1.6,3.9,2.8,5.7c1.7,2.7,4.4,4.6,7.5,5.2c1,0.2,1.9,0.2,2.9,0.2
		c0.8,0,1.5-0.5,1.7-1.2c0.2-0.4,0.1-0.6-0.4-0.6c-2.3,0-4.5-0.9-6.2-2.4c-1.7-1.7-3.1-3.7-4-5.9c-0.7-1.6-1.4-3.1-2-4.7
		c-0.8-2-1.7-4-2.7-5.9c-1.4-2.6-3.5-4.8-6.2-6.1c-2.1-1-4.5-1.4-6.8-1.2c-1.9,0.2-3.8,1-5.2,2.3c-0.5,0.4-0.6,0.4-0.7-0.2
		c-0.5-2.2-0.8-4.4-0.8-6.6c0-2,0.6-3.9,1.8-5.4c0.9-1,2.1-1.7,3.3-2.2c2.2-1,4.5-1.4,6.9-1.1c2,0.2,3.9,0.7,5.7,1.4
		c2.4,0.9,4.7,1.9,7,2.8c0.8,0.3,1.7,0.4,2.6,0.5c0.4,0,0.8-0.1,1.1-0.3c0.4-0.2,0.3-0.4,0-0.7c-1.7-1.3-3.4-2.4-5.3-3.4
		c-2.5-1.3-5.1-2.3-7.8-3c-2-0.5-4.1-0.8-6.2-0.7c-0.8,0.1-1.6,0.2-2.4,0.4c-1,0.2-2.1,0.5-3.1,0.9c-3.1,1.1-5.4,3.6-6.4,6.7
		c-0.5,1.7-0.8,3.6-0.7,5.4c0.1,1.7,0.4,3.5,0.7,5.2c0.3,1.5,0.7,2.9,1,4.4c0.1,0.3-0.1,0.7-0.2,1c-0.9,2-1.8,4-2.5,6
		c-0.6,1.7-1.3,3.3-1.9,5c-0.7,1.7-1.5,3.4-2.6,4.9c-1.1,1.6-2.6,2.9-4.4,3.6c-1.1,0.4-2.3,0.6-3.5,0.5c-0.2,0-0.3-0.1-0.4-0.2
		c0.3-0.1,0.5-0.2,0.8-0.3c2.6-0.9,4.7-2.8,5.7-5.4c0.3-0.8,0.5-1.7,0.7-2.6c0.4-1.6,0.5-3.3,0.4-4.9c-0.1-1.2-0.2-2.3-0.3-3.5
		c-0.2-1.6-0.4-3.1-0.6-4.7c-0.1-1-0.4-1.9-0.5-2.9L21,28.5c-0.2-0.9-0.4-1.7-0.6-2.6l-0.6-3.3c-0.1-0.6-0.2-1.2-0.2-1.8
		c-0.2-1.4-0.3-2.8-0.3-4.2c0-2.5,0.6-5,2-7.1c1.4-1.9,3.2-3.5,5.3-4.5c2.2-1,4.7-1.4,7.1-1.2c1.5,0.1,3.1,0.4,4.6,0.7
		c1.2,0.3,2.4,0.7,3.6,1c1.2,0.4,2.5,0.5,3.7,0.3c0.2,0,0.3-0.1,0.4-0.2c0.7-0.4,0.7-0.8,0-1.2c-2.3-1.3-4.7-2.4-7.2-3.1
		c-3-0.9-6.1-1.2-9.2-0.8c-4,0.3-7.7,2.3-10.2,5.5c-1.1,1.3-2,2.8-2.5,4.4c-0.3,0.9-0.5,1.9-0.6,2.8c-0.3,2-0.3,4-0.2,6
		c0,1.1,0.3,2.2,0.4,3.4c0.1,1,0.3,2,0.5,3.1l0.6,3c0.2,0.9,0.3,1.8,0.5,2.8c0.2,1.1,0.5,2.3,0.6,3.4c0.1,0.7,0.2,1.4,0.3,2.2
		c0.1,0.6,0.2,1.1,0.2,1.7c0.1,1.5,0.3,3,0.4,4.5c0,1.2,0,2.3-0.2,3.5c-0.2,1.6-0.9,3.1-2,4.2c-0.9,0.8-2,1.3-3.2,1.2
		c-1.1,0-2.3-0.2-3.4-0.3c-0.2,0-0.4,0-0.6-0.1c-0.2,0-0.3-0.1-0.4-0.2c0.1-0.1,0.2-0.3,0.3-0.4c0.5-0.3,0.9-0.6,1.3-1
		c1.1-1.1,1.8-2.6,1.9-4.2c0.1-1,0.2-1.9,0.2-2.9c0-0.7-0.3-1.4-0.8-1.9C12.6,41,12.4,41,12.2,41c-0.1,0-0.2,0.1-0.2,0.2
		c-1,1.5-1.8,3.1-2.4,4.8c-0.2,0.5-0.6,0.8-1,1.1c-0.1,0-0.1,0-0.1-0.1c0,0,0,0,0,0c0.1-0.3,0.1-0.7,0.2-1c0.6-1.9,1.5-3.7,2.6-5.4
		c0.2-0.2,0.1-0.4-0.1-0.5L10,39.2c-0.4-0.3-0.6-0.9-0.4-1.4c0.1-0.3,0-0.5-0.2-0.7C7,34.6,4.6,32,2.1,29.5c-0.4-0.4-0.6-1-0.4-1.6
		c0.2,0.1,0.4,0.2,0.5,0.4c2.1,2.2,4.2,4.5,6.3,6.7l1.2,1.2L10,35c0.2-0.7,0.4-1.5,0.5-2.2c0-0.2,0-0.5-0.1-0.6
		c-1.6-1.8-3.2-3.5-4.8-5.3l-0.3-0.3c-0.6-0.4-0.7-1.1-0.4-1.7l1.5-6.6c0.3-1.6,0.5-3.2,0.8-4.8c0.1-0.7,0.1-1.5,0.2-2.2
		c0-0.2-0.1-0.4-0.2-0.5c-0.7-1-1.7-2-2.7-2.7c-0.7,4.7-1.4,9.2-2.4,13.8L1.9,21.9z M8.5,63.1L8.6,63c0.1,0.1,0.3,0.2,0.4,0.3
		c1.1,0.7,2.1,1.5,3.2,2.2c1.5,0.9,3,1.7,4.6,2.4c1.6,0.7,3.3,1.2,5,1.7c0.9,0.2,1.9,0.3,2.8,0.4c3.3,0.5,6.7,0,9.7-1.6
		c0.2-0.2,0.5-0.1,0.7,0.1c0,0,0,0,0,0c1.1,1.3,2.1,2.7,3,4.1c0.9,1.5,1.4,3.2,1.3,4.9c-0.1,1.3-0.8,2.4-1.8,3.2
		c-1.1,0.7-2.3,1.1-3.6,1.1c-1.3,0-2.6-0.1-3.9-0.4c-2.2-0.5-4.2-1.4-6.2-2.4c-3.3-1.9-6.2-4.2-8.8-7c-2.1-2.3-4.1-4.8-5.7-7.5
		C9,64,8.8,63.5,8.5,63.1z M32.9,40.5c0.2,0.3,0.3,0.7,0.4,1c0.5,1.6,1,3.3,1.5,4.9l0.9,3.6c0.1,0.3-0.1,0.5-0.4,0.5
		c-0.3,0-0.7,0.1-1,0.2c-1.1,0.2-2.2,0.6-3.1,1.2c-2.7,1.7-4.1,4.4-2.7,7.7c0.8,1.7,1.9,3.3,3.1,4.7c0.4,0.4,0.3,0.5-0.2,0.7
		c-1.1,0.4-2.2,0.7-3.3,0.7c-1.4,0-2.8-0.2-4.2-0.6c-1.2-0.3-2.4-0.7-3.5-1.1c-2.2-0.8-4.4-1.9-6.4-3.2c-0.5-0.3-1-0.7-1.6-1
		c0-0.1,0-0.1,0.1-0.1c0,0,0,0,0,0h0.4c0.3,0,0.7,0.1,1,0.1h2.6c1.5,0,2.9-0.2,4.3-0.7c2.3-0.8,4.4-2.4,5.8-4.4
		c1.4-1.9,2.5-4,3.3-6.2c1-2.5,1.9-5.1,2.8-7.6C32.6,40.9,32.7,40.7,32.9,40.5z M36.4,55.6c-0.2,1.2-0.4,2.7-0.7,4.2
		c-0.2,0.7-0.4,1.4-0.8,2.1c-0.1,0.3-0.3,0.5-0.6,0.1c-1.2-1.2-2-2.6-2.5-4.2c-0.5-1.4,0.2-2.9,1.6-3.5c0.8-0.4,1.6-0.6,2.4-0.8
		c0.3-0.1,0.4,0.1,0.4,0.3C36.2,54.4,36.3,55,36.4,55.6z"/>
	
		<linearGradient id="SVGID_2_" gradientUnits="userSpaceOnUse" x1="6.1429" y1="68.5207" x2="12.5455" y2="68.5207" gradientTransform="matrix(1 0 0 -1 0 90)">
		<stop  offset="0" style="stop-color:#EFCD25"/>
		<stop  offset="1" style="stop-color:#EFCD25"/>
	</linearGradient>
	<path class="st6" d="M8.6,11.9c-0.1,0.3-0.1,0.6-0.2,0.8c-0.4,2.7-0.8,5.3-1.2,8c-0.3,1.5-0.7,2.9-1,4.3c-0.1,0.3-0.1,0.7,0.2,1
		c1.3,1.4,2.7,2.9,4,4.3c0.2,0.3,0.5,0.6,0.8,0.8h0.1c0.1-0.3,0.1-0.6,0.2-0.9c0.2-0.8,0.4-1.7,0.5-2.5c0.2-0.9,0.3-1.9,0.4-2.8
		c0.1-1.9,0.2-3.8,0.1-5.7c-0.2-1.7-0.7-3.3-1.7-4.7c-0.6-0.9-1.3-1.8-1.9-2.7C8.7,11.9,8.7,11.9,8.6,11.9z"/>
	<g>
		<path class="st7" d="M3.5,52.2V36.5h3.1L13,47V36.5h2.9v15.7h-3.2L6.4,42v10.2H3.5z"/>
		<path class="st7" d="M18.6,44.5c0-1.4,0.2-2.7,0.7-4c0.4-0.8,0.9-1.5,1.5-2.2c0.6-0.6,1.3-1.1,2-1.4c1.1-0.4,2.2-0.6,3.4-0.6
			c2.1-0.1,4.1,0.7,5.5,2.2c1.5,1.6,2.2,3.8,2.1,6c0.1,2.2-0.6,4.3-2.1,5.9c-1.5,1.5-3.5,2.2-5.5,2.1c-2.1,0.1-4.1-0.7-5.6-2.1
			C19.3,48.7,18.5,46.6,18.6,44.5z M21.9,44.4c-0.1,1.5,0.3,2.9,1.2,4c1.6,1.7,4.3,1.8,6,0.3c0.1-0.1,0.2-0.2,0.3-0.3
			c0.9-1.2,1.3-2.6,1.2-4.1c0.1-1.4-0.3-2.9-1.2-4c-0.8-0.9-1.9-1.4-3.1-1.3c-1.2,0-2.4,0.4-3.2,1.3C22.2,41.5,21.8,42.9,21.9,44.4z
			"/>
		<path class="st7" d="M46.4,46.5l3.1,1c-0.3,1.5-1.2,2.8-2.3,3.8c-1.2,0.9-2.7,1.3-4.2,1.2c-1.9,0.1-3.8-0.7-5.1-2.1
			c-1.4-1.6-2.1-3.7-2-5.8c-0.1-2.2,0.6-4.4,2-6.1c1.4-1.5,3.3-2.2,5.3-2.2c1.7-0.1,3.4,0.5,4.7,1.7c0.8,0.8,1.3,1.8,1.6,2.9
			l-3.1,0.7C46,40,44.6,38.9,43,39c-1.1,0-2.1,0.4-2.8,1.3c-0.8,1.2-1.2,2.6-1.1,4.1c-0.1,1.5,0.2,3,1.1,4.2
			c0.7,0.8,1.7,1.3,2.8,1.3c0.8,0,1.6-0.3,2.2-0.8C45.7,48.3,46.2,47.4,46.4,46.5z"/>
	</g>
	<g>
		<path class="st7" d="M58.2,52.2V38.4h-5.2v-1.9h12.4v1.9h-5.2v13.8L58.2,52.2z"/>
		<path class="st7" d="M66.6,44.6c-0.1-2.2,0.6-4.4,2.1-6.1c1.4-1.5,3.4-2.3,5.4-2.2c1.4,0,2.7,0.3,3.9,1c1.2,0.7,2.1,1.7,2.7,2.9
			c0.6,1.3,0.9,2.8,0.9,4.2c0,1.5-0.3,2.9-1,4.3c-0.6,1.2-1.5,2.2-2.7,2.9c-1.2,0.6-2.5,1-3.8,1c-1.4,0-2.8-0.3-4-1.1
			c-1.1-0.7-2.1-1.7-2.6-2.9C66.9,47.3,66.6,45.9,66.6,44.6z M68.8,44.6c-0.1,1.6,0.5,3.2,1.5,4.5c2,2.1,5.4,2.2,7.5,0.1
			c0.1-0.1,0.1-0.1,0.2-0.2c1.1-1.3,1.6-3,1.5-4.7c0-1.1-0.2-2.3-0.6-3.3c-0.4-0.9-1.1-1.7-1.9-2.2c-0.8-0.5-1.8-0.8-2.8-0.8
			c-1.4,0-2.8,0.5-3.8,1.5C69.3,40.6,68.8,42.3,68.8,44.6z"/>
		<path class="st7" d="M84.3,52.2V36.5h5.9c0.8,0,1.6,0,2.4,0.1c0.7,0.1,1.4,0.3,1.9,0.7c0.5,0.4,1,0.9,1.3,1.5
			c0.9,1.8,0.5,4-0.8,5.5c-0.8,0.9-2.4,1.4-4.6,1.4h-4v6.4L84.3,52.2z M86.4,44h4.1c1,0.1,2-0.2,2.9-0.7c0.6-0.5,0.9-1.3,0.8-2.1
			c0-0.6-0.2-1.2-0.5-1.7c-0.3-0.5-0.8-0.8-1.3-0.9c-0.6-0.1-1.3-0.2-1.9-0.1h-4L86.4,44z"/>
		<path class="st7" d="M109.2,36.5h2.1v9.1c0,1.3-0.1,2.5-0.5,3.8c-0.4,0.9-1.1,1.7-1.9,2.3c-1.1,0.6-2.4,0.9-3.7,0.9
			c-1.2,0-2.5-0.2-3.6-0.8c-0.9-0.5-1.6-1.3-2-2.2c-0.4-1.3-0.7-2.6-0.6-3.9v-9.1h2.1v9.1c0,1,0.1,2,0.4,3c0.2,0.6,0.7,1.2,1.3,1.5
			c0.7,0.4,1.5,0.5,2.3,0.5c1.2,0.1,2.4-0.3,3.3-1c0.6-0.7,1-2,1-4L109.2,36.5z"/>
		<path class="st7" d="M114,47.2l2-0.2c0.1,0.7,0.3,1.3,0.6,1.9c0.4,0.5,0.9,1,1.6,1.2c0.8,0.3,1.6,0.5,2.4,0.5
			c0.7,0,1.4-0.1,2.1-0.4c0.5-0.2,1-0.5,1.4-1c0.3-0.4,0.4-0.9,0.4-1.3c0-0.5-0.1-0.9-0.4-1.3c-0.4-0.4-0.9-0.8-1.4-0.9
			c-0.9-0.3-1.8-0.6-2.8-0.8c-1-0.2-2.1-0.5-3-1c-0.7-0.3-1.3-0.8-1.7-1.5c-0.4-0.6-0.6-1.3-0.6-2c0-0.8,0.2-1.6,0.7-2.2
			c0.5-0.7,1.2-1.3,2-1.6c0.9-0.4,1.9-0.5,2.9-0.5c1.1,0,2.1,0.2,3.1,0.6c0.8,0.3,1.5,0.9,2,1.7c0.5,0.7,0.7,1.6,0.8,2.5l-2,0.1
			c0-0.9-0.4-1.7-1.1-2.2c-0.8-0.6-1.8-0.8-2.7-0.8c-1-0.1-1.9,0.2-2.7,0.7c-0.5,0.4-0.9,1-0.9,1.7c0,0.5,0.2,1,0.6,1.4
			c1,0.6,2,1,3.1,1.1c1.2,0.2,2.3,0.6,3.5,1c0.8,0.3,1.5,0.9,2,1.6c0.4,0.7,0.7,1.4,0.7,2.2c0,0.8-0.3,1.7-0.7,2.4
			c-0.5,0.8-1.2,1.4-2.1,1.7c-1,0.4-2,0.6-3,0.6c-1.2,0-2.4-0.2-3.6-0.6c-0.9-0.4-1.7-1-2.3-1.9C114.3,49.2,114,48.2,114,47.2z"/>
	</g>
	<g>
		<path class="st8" d="M4.2,61.3v-6.4h0.9v6.4L4.2,61.3z"/>
		<path class="st8" d="M6.8,61.3v-4.7h0.7v0.7c0.3-0.5,0.9-0.8,1.5-0.8c0.3,0,0.5,0,0.8,0.2c0.2,0.1,0.4,0.2,0.5,0.4
			c0.1,0.2,0.2,0.4,0.2,0.6c0,0.3,0.1,0.5,0,0.8v2.9H9.8v-2.8c0-0.2,0-0.5-0.1-0.7c-0.1-0.2-0.2-0.3-0.3-0.4
			c-0.2-0.1-0.4-0.1-0.6-0.1c-0.3,0-0.6,0.1-0.9,0.3c-0.3,0.3-0.4,0.8-0.4,1.2v2.5L6.8,61.3z"/>
		<path class="st8" d="M13.8,60.6l0.1,0.7c-0.2,0-0.4,0.1-0.6,0.1c-0.2,0-0.5,0-0.7-0.1c-0.1-0.1-0.3-0.2-0.3-0.4
			c-0.1-0.3-0.1-0.6-0.1-0.9v-2.7h-0.6v-0.6h0.6v-1.2L13,55v1.6h0.8v0.6H13v2.7c0,0.1,0,0.3,0,0.4c0,0.1,0.1,0.1,0.1,0.2
			c0.1,0,0.2,0.1,0.3,0.1C13.6,60.6,13.7,60.6,13.8,60.6z"/>
		<path class="st8" d="M18.1,59.8l0.8,0.1c-0.1,0.4-0.4,0.8-0.7,1.1c-0.4,0.3-0.9,0.4-1.3,0.4c-0.6,0-1.2-0.2-1.6-0.6
			c-0.4-0.5-0.6-1.1-0.6-1.8c0-0.7,0.2-1.3,0.6-1.8c0.4-0.4,1-0.7,1.6-0.7c0.6,0,1.1,0.2,1.5,0.6c0.4,0.5,0.6,1.1,0.6,1.8
			c0,0,0,0.1,0,0.2h-3.5c0,0.4,0.2,0.9,0.4,1.2c0.3,0.3,0.6,0.4,1,0.4c0.3,0,0.5-0.1,0.7-0.2C17.9,60.3,18,60.1,18.1,59.8z
			 M15.5,58.5h2.6c0-0.3-0.1-0.6-0.3-0.9c-0.2-0.3-0.6-0.5-1-0.5c-0.3,0-0.7,0.1-0.9,0.4C15.7,57.8,15.5,58.1,15.5,58.5z"/>
		<path class="st8" d="M20.2,61.3v-6.4H21v6.4L20.2,61.3z"/>
		<path class="st8" d="M22.5,61.3v-6.4h0.8v6.4L22.5,61.3z"/>
		<path class="st8" d="M24.9,55.7v-0.9h0.8v0.9H24.9z M24.9,61.3v-4.7h0.8v4.7H24.9z"/>
		<path class="st8" d="M27,61.7l0.8,0.1c0,0.2,0.1,0.4,0.3,0.5c0.2,0.2,0.5,0.2,0.8,0.2c0.3,0,0.6-0.1,0.8-0.2
			c0.2-0.2,0.3-0.4,0.4-0.6c0.1-0.3,0.1-0.7,0.1-1c-0.3,0.4-0.8,0.6-1.3,0.6c-0.6,0-1.1-0.2-1.5-0.7c-0.4-0.5-0.5-1.1-0.5-1.7
			c0-0.4,0.1-0.8,0.2-1.2c0.1-0.4,0.4-0.7,0.7-0.9c0.3-0.2,0.7-0.3,1.1-0.3c0.5,0,1,0.2,1.4,0.7v-0.6H31v4c0,0.5,0,1.1-0.2,1.5
			c-0.2,0.3-0.4,0.6-0.7,0.7c-0.4,0.2-0.8,0.3-1.2,0.3c-0.5,0-1-0.1-1.3-0.4C27.2,62.5,27,62.1,27,61.7z M27.7,58.9
			c0,0.5,0.1,1,0.4,1.3c0.2,0.3,0.6,0.4,0.9,0.4c0.4,0,0.7-0.1,0.9-0.4c0.3-0.4,0.4-0.8,0.4-1.3c0-0.5-0.1-0.9-0.4-1.3
			c-0.2-0.3-0.6-0.4-0.9-0.4c-0.3,0-0.7,0.2-0.9,0.4C27.8,57.9,27.7,58.4,27.7,58.9z"/>
		<path class="st8" d="M35.7,59.8l0.8,0.1c-0.1,0.4-0.4,0.8-0.7,1.1c-0.4,0.3-0.9,0.4-1.3,0.4c-0.6,0-1.2-0.2-1.6-0.6
			c-0.4-0.5-0.6-1.1-0.6-1.8c0-0.7,0.2-1.3,0.6-1.8c0.4-0.4,1-0.7,1.6-0.7c0.6,0,1.1,0.2,1.5,0.6c0.4,0.5,0.6,1.1,0.6,1.8
			c0,0,0,0.1,0,0.2h-3.5c0,0.4,0.2,0.9,0.4,1.2c0.3,0.3,0.6,0.4,1,0.4c0.3,0,0.5-0.1,0.7-0.2C35.4,60.3,35.6,60.1,35.7,59.8z
			 M33.1,58.5h2.6c0-0.3-0.1-0.6-0.3-0.9c-0.2-0.3-0.6-0.5-1-0.5c-0.3,0-0.7,0.1-0.9,0.4C33.3,57.8,33.1,58.1,33.1,58.5z"/>
		<path class="st8" d="M37.8,61.3v-4.7h0.7v0.7c0.3-0.5,0.9-0.8,1.5-0.8c0.3,0,0.5,0,0.8,0.2c0.2,0.1,0.4,0.2,0.5,0.4
			c0.1,0.2,0.2,0.4,0.2,0.6c0,0.3,0.1,0.5,0,0.8v2.9h-0.8v-2.8c0-0.2,0-0.5-0.1-0.7c-0.1-0.2-0.2-0.3-0.3-0.4
			c-0.2-0.1-0.4-0.1-0.6-0.1c-0.3,0-0.6,0.1-0.9,0.3c-0.3,0.3-0.4,0.8-0.4,1.2v2.5L37.8,61.3z"/>
		<path class="st8" d="M44.9,60.6l0.1,0.7c-0.2,0-0.4,0.1-0.6,0.1c-0.2,0-0.5,0-0.7-0.1c-0.1-0.1-0.3-0.2-0.3-0.4
			c-0.1-0.3-0.1-0.6-0.1-0.9v-2.7h-0.6v-0.6h0.6v-1.2l0.8-0.5v1.6h0.8v0.6h-0.8v2.7c0,0.1,0,0.3,0,0.4c0,0.1,0.1,0.1,0.1,0.2
			c0.1,0,0.2,0.1,0.3,0.1C44.6,60.6,44.7,60.6,44.9,60.6z"/>
		<path class="st8" d="M48.6,58.1c-0.1-0.9,0.3-1.8,0.9-2.5c0.6-0.6,1.4-0.9,2.2-0.9c0.6,0,1.1,0.1,1.6,0.4c0.5,0.3,0.9,0.7,1.1,1.2
			c0.3,0.5,0.4,1.1,0.4,1.7c0,0.6-0.1,1.2-0.4,1.8c-0.2,0.5-0.6,0.9-1.1,1.2c-0.5,0.3-1,0.4-1.6,0.4c-0.6,0-1.1-0.1-1.6-0.4
			c-0.5-0.3-0.8-0.7-1.1-1.2C48.7,59.2,48.6,58.7,48.6,58.1z M49.5,58.1c0,0.7,0.2,1.3,0.6,1.8c0.8,0.9,2.2,0.9,3.1,0.1
			c0,0,0,0,0.1-0.1c0.4-0.5,0.7-1.2,0.6-1.9c0-0.5-0.1-0.9-0.3-1.4c-0.2-0.4-0.4-0.7-0.8-0.9c-0.3-0.2-0.7-0.3-1.1-0.3
			c-0.6,0-1.1,0.2-1.6,0.6C49.7,56.6,49.4,57.4,49.5,58.1z"/>
		<path class="st8" d="M56.1,63.1v-6.5h0.7v0.6c0.1-0.2,0.3-0.4,0.6-0.5c0.2-0.1,0.5-0.2,0.8-0.2c0.4,0,0.7,0.1,1.1,0.3
			c0.3,0.2,0.6,0.5,0.7,0.9c0.2,0.4,0.2,0.8,0.2,1.2c0,0.4-0.1,0.9-0.3,1.3c-0.3,0.7-1,1.2-1.8,1.2c-0.2,0-0.5-0.1-0.7-0.2
			c-0.2-0.1-0.4-0.2-0.5-0.4v2.3L56.1,63.1z M56.8,59c0,0.5,0.1,0.9,0.4,1.3c0.2,0.3,0.5,0.4,0.9,0.4c0.4,0,0.7-0.2,0.9-0.4
			c0.3-0.4,0.4-0.9,0.4-1.4c0-0.5-0.1-0.9-0.4-1.3c-0.2-0.3-0.5-0.4-0.9-0.4c-0.4,0-0.7,0.2-0.9,0.5C56.9,58,56.8,58.5,56.8,59z"/>
		<path class="st8" d="M64.6,59.8l0.8,0.1c-0.1,0.4-0.4,0.8-0.7,1.1c-0.4,0.3-0.9,0.4-1.3,0.4c-0.6,0-1.2-0.2-1.6-0.6
			c-0.4-0.5-0.6-1.1-0.6-1.8c0-0.7,0.2-1.3,0.6-1.8c0.4-0.4,1-0.7,1.6-0.7c0.6,0,1.1,0.2,1.5,0.6c0.4,0.5,0.6,1.1,0.6,1.8
			c0,0,0,0.1,0,0.2H62c0,0.4,0.2,0.9,0.4,1.2c0.3,0.3,0.6,0.4,1,0.4c0.3,0,0.5-0.1,0.7-0.2C64.3,60.3,64.5,60.1,64.6,59.8z M62,58.5
			h2.6c0-0.3-0.1-0.6-0.3-0.9c-0.2-0.3-0.6-0.5-1-0.5c-0.3,0-0.7,0.1-0.9,0.4C62.2,57.8,62,58.1,62,58.5z"/>
		<path class="st8" d="M66.7,61.3v-4.7h0.7v0.7c0.1-0.3,0.3-0.5,0.5-0.7c0.1-0.1,0.3-0.2,0.5-0.2c0.3,0,0.6,0.1,0.8,0.3L69,57.5
			c-0.2-0.1-0.4-0.2-0.6-0.2c-0.2,0-0.3,0.1-0.5,0.2c-0.1,0.1-0.2,0.3-0.3,0.4c-0.1,0.3-0.1,0.6-0.1,0.9v2.4L66.7,61.3z"/>
		<path class="st8" d="M73.1,60.7c-0.2,0.2-0.5,0.4-0.8,0.5c-0.3,0.1-0.6,0.2-0.9,0.2c-0.4,0-0.9-0.1-1.2-0.4
			c-0.3-0.2-0.4-0.6-0.4-1c0-0.2,0.1-0.4,0.2-0.6c0.1-0.2,0.2-0.3,0.4-0.5c0.2-0.1,0.4-0.2,0.6-0.3c0.2-0.1,0.5-0.1,0.7-0.1
			c0.5,0,1-0.1,1.4-0.3c0-0.1,0-0.2,0-0.2c0-0.2-0.1-0.5-0.2-0.7c-0.3-0.2-0.6-0.3-0.9-0.3c-0.3,0-0.6,0-0.8,0.2
			c-0.2,0.2-0.3,0.4-0.4,0.7l-0.8-0.1c0.1-0.3,0.2-0.6,0.3-0.8c0.2-0.2,0.4-0.4,0.7-0.5c0.3-0.1,0.7-0.2,1.1-0.2c0.3,0,0.7,0,1,0.1
			c0.2,0.1,0.4,0.2,0.5,0.4c0.1,0.2,0.2,0.3,0.2,0.5c0,0.2,0,0.5,0,0.7v1.1c0,0.5,0,0.9,0.1,1.4c0,0.2,0.1,0.4,0.2,0.6h-0.8
			C73.2,61.1,73.1,60.9,73.1,60.7z M73,58.9c-0.4,0.1-0.9,0.2-1.3,0.3c-0.2,0-0.5,0.1-0.7,0.2c-0.1,0.1-0.2,0.1-0.3,0.3
			c-0.2,0.3-0.1,0.7,0.1,0.9c0.2,0.2,0.4,0.2,0.7,0.2c0.3,0,0.6-0.1,0.8-0.2c0.2-0.1,0.4-0.3,0.5-0.5c0.1-0.3,0.1-0.5,0.1-0.8
			L73,58.9z"/>
		<path class="st8" d="M77.1,60.6l0.1,0.7c-0.2,0-0.4,0.1-0.6,0.1c-0.2,0-0.5,0-0.7-0.1c-0.1-0.1-0.3-0.2-0.3-0.4
			c-0.1-0.3-0.1-0.6-0.1-0.9v-2.7h-0.6v-0.6h0.6v-1.2l0.8-0.5v1.6h0.8v0.6h-0.8v2.7c0,0.1,0,0.3,0,0.4c0,0.1,0.1,0.1,0.1,0.2
			c0.1,0,0.2,0.1,0.3,0.1C76.9,60.6,77,60.6,77.1,60.6z"/>
		<path class="st8" d="M78.2,55.7v-0.9H79v0.9H78.2z M78.2,61.3v-4.7H79v4.7H78.2z"/>
		<path class="st8" d="M80.2,58.9c-0.1-0.7,0.2-1.4,0.7-1.9c0.4-0.3,0.9-0.5,1.5-0.5c0.6,0,1.2,0.2,1.6,0.6c0.4,0.5,0.6,1.1,0.6,1.7
			c0,0.5-0.1,1-0.3,1.4c-0.2,0.3-0.5,0.6-0.8,0.8c-0.3,0.2-0.7,0.3-1.1,0.3c-0.6,0-1.2-0.2-1.6-0.6C80.4,60.2,80.1,59.6,80.2,58.9z
			 M81,58.9c0,0.5,0.1,1,0.4,1.3c0.5,0.5,1.3,0.6,1.8,0.1c0,0,0.1-0.1,0.1-0.1c0.3-0.4,0.4-0.9,0.4-1.4c0-0.5-0.1-0.9-0.4-1.3
			c-0.5-0.5-1.3-0.6-1.8-0.1c0,0-0.1,0.1-0.1,0.1C81.1,58,81,58.5,81,58.9z"/>
		<path class="st8" d="M85.8,61.3v-4.7h0.7v0.7c0.3-0.5,0.9-0.8,1.5-0.8c0.3,0,0.5,0,0.8,0.2c0.2,0.1,0.4,0.2,0.5,0.4
			c0.1,0.2,0.2,0.4,0.2,0.6c0,0.3,0.1,0.5,0,0.8v2.9h-0.8v-2.8c0-0.2,0-0.5-0.1-0.7c-0.1-0.2-0.2-0.3-0.3-0.4
			c-0.2-0.1-0.4-0.1-0.6-0.1c-0.3,0-0.6,0.1-0.9,0.3c-0.3,0.3-0.4,0.8-0.4,1.2v2.5L85.8,61.3z"/>
		<path class="st8" d="M90.8,59.9l0.8-0.1c0,0.3,0.2,0.5,0.4,0.7c0.2,0.2,0.5,0.3,0.8,0.2c0.3,0,0.6-0.1,0.8-0.2
			c0.2-0.1,0.3-0.3,0.3-0.5c0-0.2-0.1-0.3-0.2-0.4c-0.3-0.1-0.5-0.2-0.8-0.3c-0.4-0.1-0.8-0.2-1.2-0.4c-0.4-0.2-0.7-0.6-0.7-1.1
			c0-0.2,0-0.4,0.1-0.6c0.1-0.2,0.2-0.3,0.4-0.4c0.2-0.1,0.3-0.2,0.5-0.2c0.2-0.1,0.5-0.1,0.7-0.1c0.3,0,0.7,0,1,0.2
			c0.2,0.1,0.5,0.2,0.6,0.4c0.1,0.2,0.2,0.5,0.3,0.7l-0.8,0.1c0-0.2-0.1-0.4-0.3-0.6c-0.2-0.1-0.5-0.2-0.7-0.2c-0.3,0-0.5,0-0.8,0.2
			c-0.1,0.1-0.2,0.3-0.2,0.4c0,0.1,0,0.2,0.1,0.3c0.1,0.1,0.2,0.2,0.3,0.2c0.1,0,0.3,0.1,0.7,0.2c0.4,0.1,0.8,0.2,1.2,0.4
			c0.2,0.1,0.4,0.2,0.5,0.4c0.1,0.2,0.2,0.4,0.2,0.7c0,0.3-0.1,0.5-0.2,0.7c-0.2,0.2-0.4,0.4-0.7,0.5c-0.3,0.1-0.6,0.2-1,0.2
			c-0.5,0-1-0.1-1.4-0.4C91.1,60.7,90.9,60.3,90.8,59.9z"/>
		<path class="st8" d="M103.5,59l0.9,0.2c-0.1,0.6-0.5,1.2-1,1.6c-0.5,0.4-1.1,0.6-1.7,0.6c-0.6,0-1.2-0.1-1.7-0.4
			c-0.4-0.3-0.8-0.7-1-1.2c-0.2-0.5-0.3-1.1-0.3-1.7c0-0.6,0.1-1.2,0.4-1.8c0.2-0.5,0.6-0.9,1.1-1.1c0.5-0.3,1-0.4,1.6-0.4
			c0.6,0,1.2,0.2,1.6,0.5c0.5,0.3,0.8,0.8,0.9,1.4l-0.8,0.2c-0.1-0.4-0.3-0.8-0.7-1c-0.3-0.2-0.7-0.3-1.1-0.3
			c-0.4,0-0.9,0.1-1.2,0.4c-0.3,0.2-0.6,0.6-0.7,1c-0.1,0.4-0.2,0.8-0.2,1.2c0,0.5,0.1,1,0.2,1.4c0.1,0.4,0.4,0.7,0.7,0.9
			c0.3,0.2,0.7,0.3,1.1,0.3c0.4,0,0.9-0.1,1.2-0.4C103.1,59.9,103.4,59.5,103.5,59z"/>
		<path class="st8" d="M108.8,59.8l0.8,0.1c-0.1,0.4-0.4,0.8-0.7,1.1c-0.4,0.3-0.9,0.4-1.3,0.4c-0.6,0-1.2-0.2-1.6-0.6
			c-0.4-0.5-0.6-1.1-0.6-1.8c0-0.7,0.2-1.3,0.6-1.8c0.4-0.4,1-0.7,1.6-0.7c0.6,0,1.1,0.2,1.5,0.6c0.4,0.5,0.6,1.1,0.6,1.8
			c0,0,0,0.1,0,0.2h-3.5c0,0.4,0.2,0.9,0.4,1.2c0.3,0.3,0.6,0.4,1,0.4c0.3,0,0.5-0.1,0.7-0.2C108.5,60.3,108.7,60.1,108.8,59.8z
			 M106.2,58.5h2.6c0-0.3-0.1-0.6-0.3-0.9c-0.2-0.3-0.6-0.5-1-0.5c-0.3,0-0.7,0.1-0.9,0.4C106.3,57.8,106.2,58.1,106.2,58.5z"/>
		<path class="st8" d="M110.9,61.3v-4.7h0.7v0.7c0.3-0.5,0.9-0.8,1.5-0.8c0.3,0,0.5,0,0.8,0.2c0.2,0.1,0.4,0.2,0.5,0.4
			c0.1,0.2,0.2,0.4,0.2,0.6c0,0.3,0.1,0.5,0,0.8v2.9h-0.8v-2.8c0-0.2,0-0.5-0.1-0.7c-0.1-0.2-0.2-0.3-0.3-0.4
			c-0.2-0.1-0.4-0.1-0.6-0.1c-0.3,0-0.6,0.1-0.9,0.3c-0.3,0.3-0.4,0.8-0.4,1.2v2.5L110.9,61.3z"/>
		<path class="st8" d="M117.9,60.6l0.1,0.7c-0.2,0-0.4,0.1-0.6,0.1c-0.2,0-0.5,0-0.7-0.1c-0.1-0.1-0.3-0.2-0.3-0.4
			c-0.1-0.3-0.1-0.6-0.1-0.9v-2.7h-0.6v-0.6h0.6v-1.2l0.8-0.5v1.6h0.8v0.6h-0.8v2.7c0,0.1,0,0.3,0,0.4c0,0.1,0.1,0.1,0.1,0.2
			c0.1,0,0.2,0.1,0.3,0.1C117.7,60.6,117.8,60.6,117.9,60.6z"/>
		<path class="st8" d="M122.2,59.8l0.8,0.1c-0.1,0.4-0.4,0.8-0.7,1.1c-0.9,0.6-2.1,0.5-3-0.2c-0.4-0.5-0.6-1.1-0.6-1.8
			c0-0.7,0.2-1.3,0.6-1.8c0.4-0.4,1-0.7,1.6-0.7c0.6,0,1.1,0.2,1.5,0.6c0.4,0.5,0.6,1.1,0.6,1.8c0,0,0,0.1,0,0.2h-3.5
			c0,0.4,0.2,0.9,0.4,1.2c0.3,0.3,0.6,0.4,1,0.4c0.3,0,0.5-0.1,0.7-0.2C122,60.3,122.1,60.1,122.2,59.8z M119.6,58.5h2.6
			c0-0.3-0.1-0.6-0.3-0.9c-0.2-0.3-0.6-0.5-1-0.5c-0.3,0-0.7,0.1-0.9,0.4C119.8,57.8,119.6,58.1,119.6,58.5z"/>
		<path class="st8" d="M124.3,61.3v-4.7h0.7v0.7c0.1-0.3,0.3-0.5,0.5-0.7c0.1-0.1,0.3-0.2,0.5-0.2c0.3,0,0.6,0.1,0.8,0.3l-0.3,0.7
			c-0.2-0.1-0.4-0.2-0.6-0.2c-0.2,0-0.3,0.1-0.5,0.2c-0.1,0.1-0.2,0.3-0.3,0.4c-0.1,0.3-0.1,0.6-0.1,0.9v2.4L124.3,61.3z"/>
	</g>
	
		<image style="overflow:visible;enable-background:new    ;" width="213" height="51" xlink:href="12D6EEE0DF7AA53A.png"  transform="matrix(0.245 0 0 0.245 80.4077 4.3793)">
	</image>
</g>
</svg>
