<svg id="Layer_1" data-name="Layer 1" xmlns="http://www.w3.org/2000/svg" xmlns:xlink="http://www.w3.org/1999/xlink" viewBox="0 0 76 87.4"><defs><style>.cls-1,.cls-2{stroke:#231f20;}.cls-1,.cls-2,.cls-4,.cls-7{stroke-miterlimit:10;stroke-width:0.25px;}.cls-1{fill:url(#linear-gradient);}.cls-2{fill:url(#linear-gradient-2);}.cls-3,.cls-4,.cls-5,.cls-7,.cls-8{isolation:isolate;}.cls-3,.cls-4,.cls-5,.cls-7{font-size:13.0265px;}.cls-3,.cls-4{font-family:Arial-BoldMT, Arial;font-weight:700;}.cls-4,.cls-7{fill:none;stroke:#565656;}.cls-5,.cls-7,.cls-8{font-family:ArialMT, Arial;}.cls-6{letter-spacing:-0.01807em;}.cls-8{font-size:5.35023px;fill:#3a3a3a;}</style><linearGradient id="linear-gradient" x1="1" y1="44.26387" x2="68.43044" y2="44.26387" gradientTransform="matrix(1, 0, 0, -1, 0, 87.88999)" gradientUnits="userSpaceOnUse"><stop offset="0" stop-color="#febd18"/><stop offset="1" stop-color="#fcb017"/></linearGradient><linearGradient id="linear-gradient-2" x1="7.10955" y1="66.26422" x2="13.47595" y2="66.26422" xlink:href="#linear-gradient"/></defs><title>noctopus-custom</title><g id="logo"><path class="cls-1" d="M2.89242,22.07332A.89665.89665,0,0,0,2.793,21.576a24.3201,24.3201,0,0,1,.59673-5.96735c.19892-1.094.39783-2.188.49728-3.282.19892-1.29293.29837-2.68531.49728-3.97823.09946-.39783,0-.59674-.39782-.79565-.09946,0-.09946-.09946-.19891-.09946-1.29293-.79565-1.094-.39782-1.094-1.98912V.98867c0-.39782-.09945-.49728-.49728-.49728-1.19347,0-1.19347,0-1.19347,1.19347V84.3327c0,.99456-.09945.89511.89511.89511h.19891c.59673,0,.59673,0,.59673-.59674V64.64044c.19891.1989.39783.29837.39783.49727a48.28242,48.28242,0,0,0,6.96191,9.74668,47.09443,47.09443,0,0,0,7.45919,6.66355,27.41977,27.41977,0,0,0,7.16082,3.77932,17.517,17.517,0,0,0,5.56953,1.29293,43.17665,43.17665,0,0,0,5.07225.09946A9.71166,9.71166,0,0,0,42.277,83.736a7.59263,7.59263,0,0,0,1.88966-6.763,17.50817,17.50817,0,0,0-3.3815-7.75757C39.89,67.92247,38.89545,66.729,37.9009,65.53554a.63889.63889,0,0,1-.09946-.8951,12.8109,12.8109,0,0,0,2.188-5.8679c.09946-1.5913.09946-3.18259.19891-4.67443,0-.49728,0-.59674.59674-.49728.99456.19891,2.08857.39782,3.08313.59673,1.7902.39783,3.481.89511,5.27116,1.29293a4.98565,4.98565,0,0,0,1.69075-.09946,1.56686,1.56686,0,0,0,.69619-.69619,1.32576,1.32576,0,0,0-.49728-.59673,18.91172,18.91172,0,0,0-6.763-2.68531c-1.19347-.29837-2.48639-.39783-3.67986-.59673-.39783-.09946-.59674-.19892-.6962-.59674-.49728-1.98912-.8951-3.97823-1.49184-5.96735-.29836-1.19347-.79564-2.38694-1.19347-3.58041-.49728-1.39239-.99456-2.78477-1.49183-4.2766a.65766.65766,0,0,1,.09945-.59674,6.867,6.867,0,0,1,6.46463-3.282,9.83628,9.83628,0,0,1,5.56953,2.4864,13.19919,13.19919,0,0,1,2.88422,4.07768c.99456,2.188,1.88967,4.47552,2.78477,6.763a27.30229,27.30229,0,0,0,2.78476,5.669A11.18173,11.18173,0,0,0,63.75942,56.684a13.604,13.604,0,0,0,2.88422.19891,1.6992,1.6992,0,0,0,1.69075-1.19347c.19891-.39783.09945-.59673-.39783-.59673a9.57183,9.57183,0,0,1-6.16626-2.38695,17.0495,17.0495,0,0,1-3.97824-5.8679c-.69619-1.59129-1.39238-3.08313-1.98912-4.67442a44.4479,44.4479,0,0,0-2.68531-5.8679,13.98469,13.98469,0,0,0-6.16626-6.06681,13.22059,13.22059,0,0,0-6.763-1.19347,8.81472,8.81472,0,0,0-5.17171,2.28748c-.49728.39782-.59673.39782-.69619-.19891a29.612,29.612,0,0,1-.79565-6.56409A8.52515,8.52515,0,0,1,35.315,19.18909a9.06191,9.06191,0,0,1,3.282-2.188,12.5505,12.5505,0,0,1,6.86246-1.094,21.514,21.514,0,0,1,5.669,1.39238c2.38694.8951,4.67442,1.88966,6.96191,2.78476a10.83126,10.83126,0,0,0,2.58585.49728,2.26684,2.26684,0,0,0,1.094-.29837c.39783-.19891.29837-.39782,0-.69619a31.78673,31.78673,0,0,0-5.27116-3.3815,32.06378,32.06378,0,0,0-7.75756-2.98367,21.3597,21.3597,0,0,0-6.16626-.69619,19.9137,19.9137,0,0,0-2.38694.39782,27.89459,27.89459,0,0,0-3.08314.8951A10.35493,10.35493,0,0,0,30.74006,20.482a16.62861,16.62861,0,0,0-.69619,5.37061,43.17465,43.17465,0,0,0,.69619,5.17171c.29836,1.49184.69619,2.88422.99456,4.37606.09945.29837-.09946.69619-.19892.99456a62.83,62.83,0,0,0-2.48639,5.96735c-.59674,1.69075-1.29293,3.282-1.88966,4.9728a22.90005,22.90005,0,0,1-2.58586,4.87334,9.61269,9.61269,0,0,1-4.37606,3.58041,8.23434,8.23434,0,0,1-3.48095.49728.754.754,0,0,1-.39783-.19892,6.85239,6.85239,0,0,0,.79565-.29836,9.19014,9.19014,0,0,0,5.669-5.37062,19.62726,19.62726,0,0,0,.6962-2.58586A16.17125,16.17125,0,0,0,23.8776,42.959c-.09946-1.19347-.19891-2.28748-.29837-3.48095-.19891-1.59129-.39782-3.08313-.59673-4.67443-.09946-.99456-.39783-1.88966-.49728-2.88422l-.59674-3.282c-.19891-.89511-.39782-1.69075-.59673-2.58586l-.59674-3.282a10.95866,10.95866,0,0,1-.19891-1.7902,29.5,29.5,0,0,1-.29837-4.17715,12.66015,12.66015,0,0,1,1.98912-7.06137A14.4209,14.4209,0,0,1,27.458,5.26526a13.47824,13.47824,0,0,1,7.06137-1.19347,33.771,33.771,0,0,1,4.575.69619c1.19347.29837,2.38694.6962,3.58041.99456a7.64923,7.64923,0,0,0,3.67987.29837.754.754,0,0,0,.39782-.19891q1.04428-.59673,0-1.19347A32.44343,32.44343,0,0,0,39.59163,1.5854,21.92779,21.92779,0,0,0,30.44168.78975,14.43767,14.43767,0,0,0,20.2972,6.25983a12.799,12.799,0,0,0-2.48639,4.37606,22.90757,22.90757,0,0,0-.59674,2.78477,29.96118,29.96118,0,0,0-.19891,5.96735c0,1.094.29837,2.188.39782,3.3815.09946.99456.29837,1.98912.49728,3.08313l.59674,2.98368c.19891.8951.29836,1.7902.49728,2.78476.19891,1.094.49728,2.28749.59673,3.38151.09946.69619.19892,1.39238.29837,2.188a9.79826,9.79826,0,0,1,.19891,1.69075c.09946,1.49183.29837,2.98367.39783,4.47551a19.8688,19.8688,0,0,1-.19892,3.481A7.17263,7.17263,0,0,1,18.30808,51.015a4.261,4.261,0,0,1-3.18258,1.19347c-1.094,0-2.28749-.19892-3.3815-.29837a1.26151,1.26151,0,0,1-.59674-.09945.75394.75394,0,0,1-.39782-.19892c.09945-.09945.19891-.29836.29836-.39782a6.38514,6.38514,0,0,0,1.29293-.99456,6.25265,6.25265,0,0,0,1.88966-4.17715A28.09729,28.09729,0,0,0,14.4293,43.158a2.71714,2.71714,0,0,0-.79564-1.88966.38263.38263,0,0,0-.69619,0,26.75207,26.75207,0,0,0-2.38695,4.77388,2.64583,2.64583,0,0,1-.99455,1.094.09741.09741,0,0,1-.09946-.09945c.09946-.29837.09946-.6962.19891-.99456a22.26443,22.26443,0,0,1,2.58585-5.37062c.19892-.19891.09946-.39783-.09945-.49728l-1.19347-.89511a1.27437,1.27437,0,0,1-.39783-1.39238.615.615,0,0,0-.19891-.69619c-2.38694-2.4864-4.77388-5.07225-7.26027-7.55864a1.49409,1.49409,0,0,1-.39783-1.5913.993.993,0,0,1,.49728.39782c2.08858,2.188,4.17715,4.47552,6.26572,6.66355L10.65,36.29551l.29837-1.19347a17.323,17.323,0,0,0,.49728-2.188c0-.19891,0-.49728-.09946-.59673-1.59129-1.79021-3.18258-3.481-4.77388-5.27117l-.29837-.29836A1.29059,1.29059,0,0,1,5.8761,25.057l1.49184-6.56409c.29837-1.5913.49728-3.18259.79565-4.77389.09945-.69619.09945-1.49183.19891-2.188a.75969.75969,0,0,0-.19891-.49728A11.43735,11.43735,0,0,0,5.47828,8.34841c-.69619,4.67442-1.39238,9.14994-2.38694,13.72491ZM9.45651,63.04914l.09946-.09945c.09946.09945.29837.19891.39782.29836,1.094.6962,2.08858,1.49185,3.18259,2.188a39.96157,39.96157,0,0,0,4.575,2.38694,41.77529,41.77529,0,0,0,4.9728,1.69075,26.8104,26.8104,0,0,0,2.78476.39782,15.39123,15.39123,0,0,0,9.64722-1.59129.48009.48009,0,0,1,.69619.09945A30.664,30.664,0,0,1,38.796,72.49745a8.35934,8.35934,0,0,1,1.29293,4.87334,4.53263,4.53263,0,0,1-1.79021,3.18259,6.11357,6.11357,0,0,1-3.58041,1.094,17.12889,17.12889,0,0,1-3.87878-.39782,27.31216,27.31216,0,0,1-6.16626-2.38695,36.97861,36.97861,0,0,1-8.75212-6.96191,46.07892,46.07892,0,0,1-5.669-7.45919C9.95379,63.94425,9.75488,63.447,9.45651,63.04914Zm24.26724-22.477a6.85855,6.85855,0,0,1,.39783.99456c.49728,1.59129.99456,3.282,1.49183,4.87334l.89511,3.58041c.09945.29837-.09946.49728-.39783.49728a3.53379,3.53379,0,0,0-.99455.19891A8.31029,8.31029,0,0,0,32.033,51.91009c-2.68531,1.69075-4.07769,4.37606-2.68531,7.6581a20.01642,20.01642,0,0,0,3.08314,4.67443c.39782.39782.29836.49728-.19892.69619a9.71137,9.71137,0,0,1-3.282.69618,15.142,15.142,0,0,1-4.17715-.59673,35.60741,35.60741,0,0,1-3.48095-1.094,34.59307,34.59307,0,0,1-6.36518-3.18259c-.49728-.29837-.99456-.69619-1.5913-.99456a.09741.09741,0,0,1,.09946-.09946h.39782c.29837,0,.69619.09946.99456.09946H17.413a12.443,12.443,0,0,0,4.2766-.69619A11.99365,11.99365,0,0,0,27.458,54.69485a28.19207,28.19207,0,0,0,3.282-6.16627c.99456-2.4864,1.88967-5.07225,2.78477-7.55865C33.42538,40.96994,33.52484,40.771,33.72375,40.57211ZM37.20471,55.59c-.19892,1.19347-.39783,2.68531-.69619,4.17715a8.98761,8.98761,0,0,1-.79565,2.08857c-.09946.29837-.29837.49728-.59673.09946a10.40847,10.40847,0,0,1-2.4864-4.17715A2.8159,2.8159,0,0,1,34.221,54.297a9.62585,9.62585,0,0,1,2.38694-.79565c.29837-.09945.39783.09946.39783.29837A16.15117,16.15117,0,0,0,37.20471,55.59Z"/><path class="cls-2" d="M9.556,12.12773c-.09946.29837-.09946.59673-.19891.79565-.39783,2.68531-.79565,5.27116-1.19347,7.95647-.29837,1.49184-.69619,2.88422-.99456,4.2766a.91381.91381,0,0,0,.19891.99456c1.29293,1.39238,2.68531,2.88422,3.97824,4.2766a6.001,6.001,0,0,0,.79564.79565h.09946c.09946-.29837.09946-.59674.19891-.8951a18.32628,18.32628,0,0,0,.49728-2.4864,26.80751,26.80751,0,0,0,.39782-2.78477,53.91788,53.91788,0,0,0,.09946-5.669A9.85268,9.85268,0,0,0,11.744,14.71358c-.59674-.8951-1.29293-1.7902-1.88966-2.68531C9.65542,12.12773,9.65542,12.12773,9.556,12.12773Z"/><text class="cls-3" transform="translate(0.35457 78.61266)">NOC</text><text class="cls-4" transform="translate(0.35457 78.61266)">NOC</text><text class="cls-5" transform="translate(30.49422 78.61266)"><tspan class="cls-6">T</tspan><tspan x="7.72168" y="0">OPUS</tspan></text><text class="cls-7" transform="translate(30.49422 78.61266)"><tspan class="cls-6">T</tspan><tspan x="7.72168" y="0">OPUS</tspan></text><text class="cls-8" transform="translate(1.24618 83.99254)">Intelligent Operations Center</text></g></svg>