<?xml version="1.0" encoding="utf-8"?>
<!-- Generator: Adobe Illustrator 24.0.2, SVG Export Plug-In . SVG Version: 6.00 Build 0)  -->
<svg version="1.1" id="Layer_1" xmlns="http://www.w3.org/2000/svg" xmlns:xlink="http://www.w3.org/1999/xlink" x="0px" y="0px"
	 viewBox="0 0 157.8 92.8" style="enable-background:new 0 0 157.8 92.8;" xml:space="preserve">
<style type="text/css">
	.st0{fill:#FFFFFF;}
	.st1{fill:#B7B7B7;}
	.st2{fill:#1A1819;}
	.st3{fill:#286090;}
</style>
<title>awl-logo-small</title>
<path class="st0" d="M50.8,92.2l0.3-0.3c0.6-0.9,1.1-1.8,1.5-2.8l0.3-0.5l-0.5,0.3c-1.1,0.8-2.4,1.4-3.7,1.7l0,0l0,0
	c0,0-0.1,0-0.1,0h-0.1c-0.4,0.1-0.8,0.2-1.2,0.3H47l0.3-0.2c1.1-1.2,2-2.6,2.6-4.1l0.2-0.4l-0.4,0.3c-2.1,1.2-4.4,1.8-6.8,1.8
	c-0.3,0-0.7,0-1,0h-0.3l0.2-0.2c1.2-1,2.2-2,3.1-3.2l0.3-0.4l-0.5,0.2c-2,0.6-4.1,0.9-6.2,0.9c-0.7,0-1.2,0-1.2,0h-0.4l0.3-0.2
	c1.4-0.9,2.6-2.1,3.7-3.3l0.5-0.6l-0.7,0.3c-1.9,0.9-4,1.3-6.1,1.3c-1.1,0-2.2-0.1-3.3-0.4L31,82.3l0.4-0.1c1.5-0.4,4.4-2.7,6-4.1
	l0.5-0.4l-0.7,0.2c-1.8,0.4-3.6,0.7-5.4,0.7c-2.1,0-4.2-0.3-6.3-0.9L25,77.4l0.5-0.1c1.5-0.1,4-1.3,7.5-3.3l0.5-0.3h-0.9
	c-6,0-10.9-3.9-10.9-3.9l-0.3-0.3h0.4c0.9,0.1,1.7,0.1,2.6,0.2c1.8,0,3.7-0.3,5.4-0.9l0.5-0.2l-0.5-0.1C22,67.2,15.1,61,15.1,60.9
	l-0.3-0.3l0.4,0.1L31,64l0.8,0.2l-0.7-0.4c-1.5-1.1-3-2.3-4.2-3.7l0,0h0C16.4,58.1,9,48.4,8.9,48.3l-0.6-0.7l0.7,0.6
	c4.1,3.3,14,6.3,18.1,7.5l0.5,0.2l-0.4-0.4c-0.2-0.3-0.5-0.5-0.7-0.8l-0.1-0.2l-0.1,0.2c-0.1,0.1-0.2,0.2-0.3,0.3h-0.1H26
	c-2.9-1.3-6.1-5.8-6.5-6.4l0,0l0,0c-4.9-1.5-9.3-4.4-12.7-8.3c-1.5-1.6-2.7-3.5-3.6-5.5L3,34.1l0.4,0.4c4.1,3.9,13.6,8.3,17.5,10
	l0.6,0.3l-0.4-0.5c-1.3-1.5-2.3-3.3-3-5.2l0,0l0,0C5.7,29.9,1,16,0.9,15.9L0.6,15l0.5,0.8c4.1,6.4,14.6,15.6,20.6,20.6l1,0.8l-0.7-1
	c-1.6-2.1-2.8-4.5-3.4-7v0l0,0L17.2,28l0,0v0l0-1.6v-0.1l-0.2-0.4L17,25.6l-0.2,0.3c-0.2,0.4-0.5,0.7-0.8,0.9h-0.1l-0.1-0.1
	C10.3,20.4,6.1,12.9,3.5,4.9L3.4,4.3l0.4,0.6c9.7,14.1,16.5,20.4,18.9,22.4l0.5,0.4L22.9,27l-0.2-0.5l-0.1-0.3
	c-0.1-0.3-0.2-0.7-0.3-1l0,0l0,0C12.4,12.4,11.1,1.8,11.1,1.7L10.9,1l0.3,0.7c3.6,7.9,8.3,15.2,14.2,21.6l0.6,0.6L25.7,23l0-0.1
	l-0.5-1.1l0.7,1c2,3,6.9,7.5,9.7,9.9l0.8,0.7l-0.5-0.9c-1.7-2.7-2.9-5.7-3.5-8.8l-0.1-0.8l0.3,0.7c1.3,2.9,4.7,6.8,9.1,10.8
	c2,1.9,3.9,3.9,5.6,6c0.4,0.5,0.8,1,1.2,1.5l0.1,0.2l0.2,0.4c1.8,2.8,3.1,5.8,3.9,9c0.3,1.2,0.3,2.4,0.2,3.6c-0.3,0.8-0.7,1.5-1.4,2
	l0,0l0,0c-0.1,0.2-0.2,0.3-0.3,0.5c0,0.1-0.1,0.2-0.2,0.3c0,0-0.1,0.1-0.1,0.1l-0.2,0.4v0c-0.3,4.3,1.4,8.4,4.6,11.2
	c2.3,1.9,5.7,2,7.5,2c0.4,0,0.7,0,1.1,0.1c0.7,0.2,1.3,0.7,1.8,1.3l0,0h0.1c1.1,0.1,2.1,0.5,3,1.1c1.7,1.3,2.8,3.1,3.3,5.1
	c0,0.2,0,0.3,0,0.5v0.1l0,0l0,0c0.1,0.1,0.1,0.2,0.2,0.2c0.2,0.2,0.4,0.4,0.5,0.6l0.1,0.1l0.1,0.1h0.1c0.1,0,0.3,0,0.4,0h0.1h0.1
	l0.3-0.3c0.7,0.8,1.1,1.9,1.2,3c0.1,0.4,0.1,0.9,0,1.3l-0.1,0.6l0.4-0.5l0.5-0.8L75,85.5c0,0.1-1,2.1-2.6,2.1c-1,0-1.9-0.8-2.9-2.3
	l0,0l0,0c-0.2-0.2-0.4-0.4-0.6-0.7l-0.1-0.1l-0.1,0.1c-0.8,0.6-1.7,0.9-2.7,0.9c-0.7,0-1.4-0.2-2-0.4L64,85v0.1
	c-0.6,1-1.4,1.8-2.4,2.3l-0.2,0.1l0.1-0.3c0-0.1,0.1-0.2,0.1-0.3l-0.3-0.1c-1.4,3.9-4.3,4.7-4.5,4.7l-0.3,0.1l0.2-0.3
	c0.4-0.8,0.6-1.7,0.7-2.6l0.1-0.6L57,88.7c-1.6,1.6-3.6,2.8-5.8,3.4C51.2,92.1,50.8,92.2,50.8,92.2z"/>
<path class="st1" d="M75,85c0.1-0.5,0.1-0.9,0-1.4c-0.1-1.2-0.5-2.3-1.3-3.2l-0.4,0.4l0,0c-0.1,0-0.3,0-0.4,0l-0.1-0.1
	c-0.2-0.2-0.3-0.4-0.5-0.6c-0.1-0.1-0.1-0.1-0.2-0.2l0,0v-0.1c0-0.2,0-0.3-0.1-0.5c-0.5-2.1-1.7-3.9-3.4-5.2c-0.9-0.6-2-1-3.1-1.1
	c-0.5-0.6-1.1-1.1-1.9-1.3c-0.4-0.1-0.7-0.1-1.1-0.1c-1.8-0.1-5.1-0.2-7.4-2c-3.2-2.8-4.9-6.9-4.6-11.1l0.2-0.4c0,0,0-0.1,0.1-0.1
	c0.1-0.1,0.2-0.2,0.2-0.4c0.1-0.2,0.2-0.3,0.3-0.5c0.7-0.5,1.2-1.3,1.5-2.1l0,0c0.2-1.2,0.1-2.4-0.2-3.6c-0.7-3.2-2-6.3-3.9-9.1
	L48.5,42l-0.1-0.1c-0.4-0.5-0.8-1-1.2-1.5l0,0c-1.7-2.1-3.6-4.1-5.6-6c-4.4-4-7.7-7.9-9-10.7l-0.8-1.7l0.3,1.8
	c0.6,3.1,1.8,6.1,3.5,8.8c-2.8-2.5-7.7-7-9.7-9.9l-1.5-2.3l1.1,2.6l0,0.1C19.7,16.7,15,9.4,11.4,1.6L10.7,0l0.2,1.7
	c0,0.1,1.4,10.7,11.2,23.5c0,0.4,0.1,0.7,0.3,1.1l0.1,0.3l0.2,0.5c-2.5-2-9.2-8.3-18.9-22.4L3,3.4l0.4,1.5c2.5,8,6.7,15.5,12.3,21.8
	l0.1,0.1l0.2-0.1c0.4-0.2,0.7-0.5,0.9-0.9l0.2,0.4L17,27.9V28l0.1,0.1l1.3,1.1c0.7,2.5,1.8,4.9,3.4,7c-5.4-4.5-16.4-14-20.5-20.6
	L0,13.8L0.7,16C0.8,16.1,5.6,30,18,39.1c0.7,1.9,1.7,3.7,3,5.2c-4-1.8-13.4-6.1-17.4-9.9l-0.9-0.9l0.5,1.2c0.9,2,2.2,3.9,3.6,5.5
	c3.4,3.9,7.7,6.8,12.7,8.3c0.5,0.7,3.7,5.1,6.6,6.4l0.1,0.1l0.1-0.1c0.1-0.1,0.2-0.2,0.3-0.3c0.2,0.3,0.5,0.6,0.7,0.8
	c-3.7-1-13.9-4.1-18-7.4l-1.7-1.4l1.3,1.8c0.1,0.1,7.5,9.8,17.9,11.7c1.3,1.4,2.7,2.6,4.2,3.7l0,0l-15.8-3.3l-1-0.2l0.7,0.7
	c0.1,0.1,6.9,6.4,14.7,7.7c-1.7,0.6-3.5,0.9-5.4,0.9c-0.9,0-1.7-0.1-2.6-0.2l-0.9-0.1l0.7,0.6c0,0,5,4,11,4h0.3
	c-3.4,2-6,3.2-7.3,3.3l-1.3,0.1l1.2,0.4c2.1,0.6,4.2,0.9,6.3,0.9c1.8,0,3.7-0.2,5.5-0.7c-1.7,1.4-4.5,3.7-6,4.1l-1,0.3l1,0.3
	c1.1,0.3,2.2,0.4,3.4,0.4c2.1,0,4.2-0.4,6.1-1.3C39.6,83,38.4,84.1,37,85l-0.8,0.4l0.9,0.1c0,0,0.5,0,1.2,0c2.1,0,4.2-0.3,6.3-0.9
	c-0.9,1.2-1.9,2.3-3.1,3.2L41,88.3l0.7,0.1c0.3,0,0.7,0,1,0c2.4,0,4.8-0.6,6.9-1.8c-0.7,1.5-1.5,2.8-2.6,4.1l-0.6,0.6l0.8-0.1
	c0.4-0.1,0.8-0.2,1.2-0.3h0c0.1,0,0.2,0,0.2-0.1l0,0c1.3-0.4,2.6-1,3.8-1.8c-0.4,1-0.9,2-1.5,2.8l-0.7,0.7l1-0.3
	c2.2-0.6,4.2-1.8,5.8-3.5c-0.1,0.9-0.3,1.7-0.7,2.5L56,91.9l0.7-0.2c0.1,0,3.1-0.8,4.6-4.8c0,0.1,0,0.2-0.1,0.3L61,87.8l0.5-0.3
	c1-0.5,1.9-1.4,2.5-2.3c0.7,0.3,1.4,0.5,2.1,0.5c1,0,2-0.3,2.8-0.9c0.2,0.2,0.4,0.5,0.6,0.7c1,1.6,2,2.4,3,2.4
	c1.7,0,2.7-2.1,2.7-2.2l1.3-2.7L75,85z M68.5,82c-0.3,0.3-0.3,0.8-0.2,1.1c0.1,0.3,0.2,0.5,0.4,0.8c-1.2,1.2-3.1,1.2-4.3,0
	c0,0,0,0,0,0c0.3-1.1,0.4-2.2,0.1-3.3c0.2,2-0.6,3.9-2,5.3c0.3-1.1,0.4-2.2,0.4-3.3c-0.1,1.1-0.4,2.2-0.9,3.2
	c-0.2-1-0.5-2.1-0.9-3.1c0.2-0.7,0.4-1.5,0.4-2.3c-0.4,2.2-1.5,4.2-3.2,5.6c0.4-1,0.6-2.1,0.7-3.1C58.7,84,58.2,85,57.6,86
	c-0.1-0.7-0.3-2.4-0.3-3.1c0.4-0.9,0.7-1.8,0.9-2.7c0,0-1.4,4.3-3.8,5.4c0.5-1,0.9-2.1,1.2-3.2c-0.5,1-1,2-1.7,2.9
	c0.1-1.2,0.2-4.4,0.1-5.6c0.3-0.5,0.5-1,0.7-1.6c0,0-2.1,4.1-5.8,5.1c0.8-1.1,1.5-2.2,2.1-3.5c-0.7,1.1-1.5,2.1-2.5,3
	c0.4-1.3,1.3-4.3,1.6-5.9c0.6-1,0.9-2.1,1.1-3.2c-0.4,1.3-1.1,2.6-2,3.7c-1.4,1.4-3.3,2.3-5.3,2.5c1.1-0.7,2.1-1.6,2.8-2.7
	c-1,1-2.1,1.7-3.3,2.3c2-2.7,3.6-5.6,4.8-8.7c0,0-0.7,1.2-1.6,2.8c-0.8,0.7-3,2.4-7.1,1.9c1.6-0.5,3.1-1.4,4.2-2.7
	c-1.3,1.2-3,2-4.8,2.2c2.2-2.1,4-4.4,5.5-7c0.9-0.2,1.7-0.6,2.5-1c-1.4,0.5-2.9,0.8-4.4,0.8l0.1-0.2l0.3-0.2l1-0.7l-1.5,0.7
	l-0.2,0.4c-1.8-0.1-3.6-0.5-5.2-1.2c2,0.2,4.1-0.1,6-0.7c-2.1,0.4-4.2,0.4-6.2,0l4.3-1.5l1.5,0.3l1.2-0.2l-1.1-0.1l-0.6-0.1l0.6-0.3
	l-0.7,0.1c1.4-0.5,2.5-0.9,2.8-1L42.9,63c-2.9-0.6-5.6-1.6-8.2-3.1c1.8,0.6,3.6,0.9,5.5,0.8c-2-0.1-3.9-0.6-5.7-1.5
	c2.7,0.2,5.4,0.2,8.1,0c0.5,0.1,1,0.2,1.5,0.2c-4.1-1.2-7.9-3.3-11.2-6.1c2.1,1.2,4.4,2,6.8,2.4c-2.4-0.5-4.6-1.5-6.7-2.9
	c2.2,0.7,7.3,2.3,10.2,2.2L42,54.8l-1.3-0.6c-4.3-2-8.1-4.9-11.1-8.6c3.2,2.4,6.8,4.3,10.5,5.7c-3.6-1.5-7.1-3.5-10.1-6
	c2.8,1.2,11,4.7,13,5.1c0,0-2.9-1.1-6.2-2.5c-3.7-3-6.9-6.4-9.5-10.4c3.3,3.6,7.1,6.7,11.4,9.2c-4.1-2.7-7.9-5.9-11.1-9.7
	c1.8,1.6,3.8,3.1,5.7,4.5l0.8,1.1l-0.6-0.9c1.2,0.8,2.4,1.6,3.8,2.4l0.7,1.1l-0.4-1c1.8,1,3.6,1.9,5.5,2.6c-1.9-0.9-3.8-2-5.7-3.1
	c-0.6-0.5-1.5-1.3-2.5-2.3v-0.4l-0.2,0.3l-0.1,0l0.3-0.8L34.5,41c-2.9-2.8-5.3-6-7.3-9.5c2,2.9,4.4,5.5,7.1,7.8
	c-2.4-2.4-4.6-5-6.6-7.7c2.8,2.5,5.7,4.8,8.7,7l0.8,1.1l-0.5-0.8c1.4,1,2.9,1.9,4.4,2.6c0,0-2.7-1.7-6.1-4.3
	c-0.5-0.7-1.4-1.7-2.3-2.9l1.4,1l-1.7-1.4c-1.8-2.3-3.4-4.8-4.7-7.4c2.3,3.3,5,6.3,7.9,9c-2.8-2.8-5.3-5.9-7.5-9.2
	c1.2,1.2,3.3,3.3,5.3,5.2l1.1,1.8l-0.5-1.2c1.1,1.1,2.2,2.1,3.5,3c1,1.3,2.1,2.4,3.3,3.5c-1.1-1.3-2.2-2.6-3.2-4l0.9,0.7l-1.2-1.2
	c-1.7-2.3-3.1-4.8-4-7.5c1.3,2.3,2.8,4.5,4.6,6.4c-1.6-1.9-2.9-4-4-6.2c0.3,0.5,0.8,1,1.3,1.7c2.1,3,4.6,5.8,7.3,8.3
	C41.2,35.4,40,34,39,32.5c0.9,1,2,1.9,3,2.8c2.8,2.6,5.2,5.6,7.3,8.8l0,0c0.6,1.2,1.2,2.4,1.7,3.6l-2.8-4.6c0,0,2.5,4.7,3.7,7.4
	c0.2,0.8,0.3,1.5,0.5,2.3c0,0.7,0,1.3-0.2,2c-0.2,0.7-1.3,2.6-3,2.8c0.4,0,0.9,0,1.3-0.2c-0.2,0.4-0.3,0.8-0.4,1.2
	c-0.1,2,0.2,4,0.8,5.9c-0.9-1.3-1.7-2.8-2.2-4.3c0.5,2.6,1.7,4.9,3.5,6.9c0.9,1.4,2.1,2.6,3.5,3.5c-1.7-0.6-3.3-1.6-4.6-2.8
	c2.1,2.4,5.1,3.9,8.3,4.1l0.4,0.1c0.6,0.1,1.2,0.1,1.9,0.2c1.2,0.7,2,2,2.2,3.3c-1.1,0.2-2.8,0.1-5.5-1.5c0,0,3.1,2.5,5.5,1.7
	c0,0.4,0,0.9,0,1.3c0.1-0.4,0.1-0.9,0-1.3c0.5-0.2,0.9-0.5,1.3-0.9c-0.4,0.3-0.8,0.6-1.3,0.7c0-1.3-0.6-2.5-1.7-3.3h0.4
	c0.9,0.1,2.1-0.1,3.7,2.9c-0.1-0.5-0.3-0.9-0.6-1.3c0.2-0.1,0.4-0.1,0.6,0c1.4,0.2,2.7,1,3.4,2.2c1.1,1.9,2.1,3,1.2,5.8
	c0.3-0.4,0.5-0.9,0.7-1.4c0.3,0.4,0.5,0.7,0.7,1.2c-0.2,0.5,0.5,1.3,0.5,1.3c-0.4-1.3-0.1-1.3,0-1.3c0.3-0.1,0.6,0,0.8,0.2
	c0.4,1,1.4,3.8-0.2,5.2c-1.3,0.5-2.5-0.5-2.9-1.1c0.4,0.2,0.7,0.3,1.1,0.3C68.1,84.3,68.5,81.9,68.5,82L68.5,82z M57.5,89.9
	c0.1-0.8,0.3-2.1,0.4-2.9c1.4-1.1,2.4-2.5,3-4.2c0.1,0.4,0.3,1,0.4,1.7c-0.4,2.2-1.6,4.1-3.2,5.5c0.4-0.8,0.8-1.6,1-2.5
	C58.7,88.4,58.2,89.2,57.5,89.9L57.5,89.9z M52.6,90.4c0.3-0.8,0.9-2.3,1.2-3c0.3-0.4,0.5-0.8,0.7-1.2c1.1-0.8,1.9-1.8,2.5-2.9
	c0.2,1.4,0.2,2.9,0,4.3l0,0c-0.9,1.5-2.3,2.6-4,3.2c0.9-0.9,1.7-2,2.3-3.2C54.6,88.7,53.7,89.6,52.6,90.4L52.6,90.4z M48.9,89.4
	c0.7-1.2,1.3-2.5,1.7-3.8c0.9-0.6,1.7-1.4,2.4-2.2c0,0-4,4.1-9.3,4.3c1.2-0.6,2.4-1.3,3.5-2.1c-1.2,0.7-2.4,1.2-3.7,1.6
	c1-1.1,1.8-2.2,2.6-3.4c0.7-0.3,1.4-0.8,2-1.4c-0.2,0.6-0.5,1.2-0.8,1.7c2.6-0.3,4.9-1.7,6.3-3.9c0.1,2.2-0.1,4.5-0.6,6.7
	c0.5-0.2,1-0.4,1.4-0.7c-1.3,1.7-3.1,3-5.2,3.6c1-1,1.9-2,2.7-3.1C51,87.7,50,88.6,48.9,89.4L48.9,89.4z M43.5,84.3
	c-1.3,0.4-2.7,0.6-4.1,0.6c1.3-0.6,2.6-1.3,3.8-2.2c-1.3,0.7-2.7,1.2-4.1,1.6c1.2-1.2,2.3-2.4,3.4-3.7c1.9,0,3.7-0.6,5.3-1.6
	c0.7-0.3,1.3-0.8,1.8-1.4c-0.2,0.8-0.7,2.6-1.3,4.2c-1.3,1-2.8,1.8-4.4,2.3l0.3-0.9L43.5,84.3z M33.5,81.7c2.2-1.3,4.2-2.9,5.9-4.7
	c0.7-0.2,1.3-0.5,1.9-0.8c1.7,0,3.3-0.6,4.7-1.6c-1.2,2.1-2.5,4.1-4.1,6c-0.9,0.4-1.7,0.7-2.6,1l0.2-0.7L39,81.7
	c-1.7,0.5-3.5,0.8-5.3,0.7c2-0.6,4-1.5,5.9-2.5C37.6,80.7,35.6,81.3,33.5,81.7L33.5,81.7z M28.4,77.1c3.6-1.6,7-3.6,10.2-5.8
	c0.9,0.2,1.9,0.2,2.8,0.1c-1.3,1.6-2.8,3.3-3.7,4.2c0.8,0.3,1.6,0.5,2.5,0.6c-2.1,0.9-4.3,1.4-6.6,1.7l0.7-0.8l-1.2,0.9
	c-1.4,0.1-2.8,0.1-4.3-0.2c2.5-0.4,4.8-1.3,7-2.5C33.5,76.2,31,76.9,28.4,77.1z M30.5,73c-1.8-0.3-3.5-0.8-5.1-1.5
	c2.4,0.5,4.9,0.4,7.2-0.3c-2.6,0.5-5.4,0.2-7.9-0.7c2.4,0,4.7-0.6,6.8-1.8c0.6,0,1.1,0,1.7,0l0,0c0.4,0.4,0.8,0.7,1.3,1l0,0
	c1,0.6,2,1.1,3.2,1.4c-0.5,0.4-1.7,1.1-3.2,2c-1.3,0.1-2.6,0-3.9-0.2l0.5-0.6L30.5,73z M27,63.7l8.9,1.9l-1,0.1c0,0,4.1,3.4,9.1,2.4
	c-0.4,0.5-1.2,1.5-2.2,2.8c-2.2,0.2-4.5-0.2-6.5-1.1l0.2-0.7l-0.4,0.7h-0.1l0,0c0,0-2.1-1.1-2.7-2.5c0.1,0.4,0.3,0.8,0.5,1.2
	c-0.8,0-1.5,0-2.3-0.1l0.1-0.5l-0.3,0.4c-2.7-0.4-7.3-1.6-12.8-5.7c3.4,1.8,7,3,10.8,3.4c-3.9-0.7-7.6-2.1-11-4.1l6.5,1.4l6.7,2.2
	L27,63.7z M32,63.5c-0.4-0.3-0.8-0.5-1.2-0.8c-1-1-1.9-2.2-2.6-3.4c0.2,0.9,0.6,1.7,1.2,2.4c-1.4-1-2.5-2.4-3.4-3.9l0.2,1.6
	c-5.4-1.2-10.2-4-14-8c3,2.2,6.4,3.8,10,4.8c-3.6-1.2-7-3.1-10-5.5c3.7,1.8,7.5,3.3,11.4,4.5l0.1,0.6l0.1-0.6c1.6,0.5,3.3,1,5,1.4
	c1.4,1.1,2.9,2.1,4.5,2.9c1.9,1.4,5.6,3.6,9.5,3.8h0.1C41,64.1,39,64.8,37,65.3l-3-0.6c-0.4-0.3-1-0.6-1.7-1l0.1-0.9L32,63.5z
	 M27.5,54.9c-0.3-0.4-0.6-0.7-0.8-1.1c0.2-0.6,0.3-1.3,0.2-2c0,0-0.3,2.3-1.1,2.4c-1-0.7-1.9-1.5-2.8-2.4c-0.7-1-1.3-2-1.7-3.2
	c0,0,0.3,1.2,0.4,1.6s-0.5-0.6-0.5-0.6l-0.7-1.1l0.9,1.7c-1-1.1-1.8-2.3-2.6-3.5l0.2,1c-1.9-0.5-3.7-1.3-5.3-2.3
	c-1.4-1-2.7-2.2-3.9-3.5c0.7,0.9,1.4,1.7,2.2,2.4c-2.6-1.8-4.8-4.1-6.5-6.7c3.2,2.9,6.8,5.2,10.7,7c-4.1-2-7.9-4.8-11.1-8.1
	c3.2,2.2,6.6,4.2,10.1,6c-0.9-0.2-1.7-0.5-1.7-0.5c1.4,0.8,2.9,1.4,4.5,1.9c1.4,0.7,2.9,1.2,4.4,1.7c2.4,2.5,5.2,4.6,8.2,6.3
	c1.5,1.6,5.7,5.6,10.8,7.2c-1.9,0.1-7.4,0.2-9.5-0.7l0,0c-1.6-0.8-3-1.9-4.3-3.2l0.3-0.8L27.5,54.9z M20.7,42.6
	c-0.2-0.3-0.4-0.5-0.5-0.8l0.4-0.7L20,41.5c-0.4-0.7-0.8-1.4-1.2-2.2c-0.3-0.7-0.4-1.5-0.3-2.3c-0.2,0.4-0.4,0.8-0.4,1.2
	c-1-0.7-1.9-1.5-2.8-2.3v-0.4L14.9,35l0.2-1.3l-0.4,1.3l0.2,0.4v0.3c-2.6-2.4-4.9-5.1-7-7.9L8.4,28L8.4,28l0.3,0.6l-0.1-0.4l0.2,0.2
	l0.2,0.4l0.7,0.7l2.3,2.1l-2.7-2.7l0.6,0.6l0.6,0.4l-1.1-1.1l-1.1-1l-0.7-0.6c-0.3-0.5-0.7-0.9-1-1.4L7.4,26l-1.1-0.7
	c-1-1.5-2-3.2-2.9-5C9.1,28,16.1,34.5,24.2,39.5c-7.7-5-14.4-11.3-19.7-18.7c2.6,2.9,5.3,5.7,8.1,8.4l1.7,2.4l-0.7-1.4l1.1,1.3
	l-0.3-0.6c2.9,2.6,6.4,5.6,10.4,8.6c2,2.1,4.2,4,6.6,5.7c-3.5-2.9-6.7-6.2-9.4-9.9l0.7-1.1L22,35c-1.3-1.8-2.3-3.7-3-5.8l1,0.4
	L18.1,28l0.1-0.7l-0.4,0.5l-0.3-0.2v-1.4L16.9,25c0-0.2,0-0.5,0-0.7c0,0-0.2,1.1-0.8,1.5L15.9,25v0.8c-0.1,0-0.3,0-0.4,0
	c0,0-1.8-2.3-4-5.7v-0.6l0.3,0.2l0.5,0.8l-0.2-0.8l0.1-0.3l0.4-0.7c2.2,2.6,4.5,5,7.1,7.2c-2.5-2.3-4.8-4.8-6.9-7.4l0.1-0.1
	l-0.1,0.1c-2.1-2.6-4.1-5.4-5.8-8.3c4.8,6.9,10.5,13.1,16.9,18.5c1.1,2.3,2.7,4.4,4.6,6.1c-1.8-2.2-3.3-4.5-4.6-7.1l0.1-0.5l0.4-1.6
	l-0.4,1.4l-0.1-0.5l0.1,0.6v0.2l-0.1,0.3c-0.4-0.8-0.7-1.7-0.8-2.6c-0.1-0.4,0-0.8,0.2-1.2c-0.3,0.1-0.5,0.4-0.5,0.6
	c-0.5-0.6-1.5-2-2.8-3.9l0.2-0.5l-0.3,0.3c-0.3-0.4-0.6-0.9-0.9-1.4v-0.2l0,0l0.2-0.6l-0.3,0.4l-0.9-2.5l0.4,1.5L18,17.2l-0.2-0.1
	l0.6,0.8l0.1,0.2v0.4c-2.3-3.8-4.2-7.9-5.7-12.1c1.3,2.7,2.7,5.3,4.2,7.9c1.8,3.1,4,5.9,6.6,8.4c-2.5-2.5-4.6-5.4-6.3-8.5
	c-1-1.8-2-3.7-2.9-5.5c2.4,4.4,5.3,8.5,8.5,12.3L22.6,21l0.5,0.6l-1-0.7l1.8,1.5c1,1,2,2.1,3,3.1c1.4,2.9,4,7.7,6.8,10.5l0.7,0.7
	c-3.2-2.3-6.1-5-8.7-7.9c0,0,1.1,5.4,9.8,13.8c-3.6-2.3-7-5-10.1-8c0,0,1,5.1,10.2,12.7c-2.8-1.1-5.5-2.4-8.1-3.8
	c0,0,4.8,7.7,13.3,11c-2.7-0.7-7-1.8-9.5-2.8l0,0c-2.9-1.6-5.5-3.6-7.8-5.9l-0.2-0.6l-0.1-1c2.1,2.3,4.5,4.3,7.1,6
	c-2.5-1.8-4.8-3.9-6.9-6.2l0.5-0.4L23.2,44c-1.8-1.9-3.1-4-4.1-6.4c0,0,0.5,2.7,3.9,6.5h-0.1l0.1,0.6v0.6c-0.8-0.8-1.5-1.7-2.2-2.6
	l0.3-0.6L20.7,42.6z M10.8,18.7l-0.3-0.3l0.4,0.6l0.1,0.6l0,0c-0.4-0.6-0.9-1.3-1.3-2l0.1-0.5l-0.3,0.4c-1.8-2.9-3.4-5.9-4.6-9.1
	c2.2,3.7,4.7,7.1,7.5,10.4L12,19.4l-0.1-0.6v0.6h-0.3l-0.2,0.2l-0.3-0.7l-0.4-1.2L10.8,18.7z"/>
<path class="st1" d="M43.9,44.5c0.3,0.7,0.8,1.2,1.4,1.5c-0.2,1.3,0.5,2.6,1.6,3.3c-1.5-1.5-1.3-2.7-1.2-3.1
	c0.1-0.2,0.3-0.4,0.5-0.5c-0.2-0.1-0.5,0-0.7,0.1c-0.7-0.4-1.2-1.1-1.5-1.8c-0.2-0.6,0-1.1,0.3-1.6c-0.2,0.1-0.3,0.2-0.5,0.4
	c-1.1-1-1.7-2.5-1.5-3.9c-0.4,1.6,0.2,3.2,1.3,4.3C43.6,43.7,43.7,44.2,43.9,44.5z"/>
<path class="st1" d="M45,57.2c0.3-1.8,1.2-2.1,1.5-2.2c0.2,0.3,0.5,0.6,0.9,0.8c-0.3-0.4-0.5-0.7-0.7-1.1l0,0
	c-0.3-0.5-0.4-0.9-0.5-1c-0.4-1-0.7-2.6,0.7-3.5c-0.6,0.1-1.1,0.4-1.3,1c-1.1-0.9-1.5-2.4-0.9-3.6c-0.1,0.1-0.2,0.2-0.2,0.3
	c-0.9-0.5-1.4-1.5-1.5-2.5c0,0-0.6,1.1,1.4,2.8c-0.3,0.7-0.5,2,1.2,3.6c0,0.7,0.1,1.4,0.3,2c0.1,0.3,0.2,0.6,0.4,0.9l0,0
	c-1.1,0.5-1.7,1.7-1.6,2.9c0.1,1.7,1,3.3,2.4,4.3C47,61.7,44.6,59.4,45,57.2z"/>
<path class="st1" d="M47.1,62c-1.9,2.8,1.8,4.5,1.8,4.5C46,64.2,47.1,62,47.1,62z"/>
<path class="st1" d="M55.6,73c0.2-0.1,0.3-0.2,0.5-0.3c-3.2,1.2-5.2-2.4-5.2-2.4c1.7,3.5,3.4,3.4,4.4,2.9c0,0.4,0.3,1.7,2.3,2.8
	C57.5,76,55.5,74.4,55.6,73z"/>
<path class="st1" d="M66.8,79.5c0.1-0.2,0.2-0.3,0.2-0.5c-1.1,1.8-3-0.1-3.3-0.3c0.1-0.2,0.2-0.4,0.2-0.6c-0.1,0.2-0.1,0.3-0.2,0.5
	l0,0v0.1c-0.5,0.6-1.2,1-2,1c-1.7-0.3-3.1-1.5-3.7-3.1c0.3,2.6,3.1,3.3,3.1,3.3c0.9,0.3,1.9,0,2.4-0.8c1.6,1.3,2.5,1.2,3,0.8
	c0.4,0.8,1.1,1.3,2,1.3C67.6,81,67,80.3,66.8,79.5z"/>
<path class="st2" d="M44.2,38.9L44.2,38.9L44.2,38.9z"/>
<path class="st1" d="M47,52.1c0.8-0.4,1.6-0.4,2.4,0c0,1,0,2.1-0.2,3.1c0.3-1,0.5-2,0.5-3c0.7,0.4,1.4,0.9,1.9,1.5
	c-0.5-0.8-1.1-1.4-1.9-1.8c0-2.8-1-7.3-5.3-12.8c0.8,1.1,4.5,6.4,5,12.7C48.5,51.5,47.6,51.6,47,52.1z"/>
<path class="st2" d="M44.3,39L44.3,39L44.3,39z"/>
<path class="st1" d="M49.1,78.6c-1.8,1.6-4.1,2.5-6.5,2.3C45,82,47.9,81,49.1,78.6z"/>
<path class="st1" d="M47.2,84.5c0,0,4.8,0.6,6.2-3.4C53.3,81.2,52.1,83.8,47.2,84.5z"/>
<path class="st1" d="M57,83.9c-0.3,1.1-1.2,2.1-2.2,2.6C54.7,86.5,57,86.6,57,83.9z"/>
<path class="st1" d="M61,83.4c0,0-0.3,1.8-2.7,3.7C59.9,86.7,61,85.1,61,83.4z"/>
<path class="st1" d="M61.3,82.6c1-0.7,0.5-2.3,0.5-2.3C61.8,81.1,61.6,81.9,61.3,82.6z"/>
<path class="st1" d="M45.1,75.7c0,0-2.6,1-3.6,0.8c-0.6,0.3-1.2,0.6-1.9,0.8C39.7,77.2,43.5,77.4,45.1,75.7z"/>
<polygon class="st1" points="40.4,72.2 40.7,71.8 38.8,71.6 36.4,73.2 38.8,72 "/>
<path class="st1" d="M43.1,68.7c-2.9,0.3-5.9-0.6-8.1-2.5C35,66.2,38.3,70.7,43.1,68.7z"/>
<path class="st1" d="M42,63.4c0,0-5.8-0.2-8.8-3.8c-1.7-0.5-3.3-1.4-4.4-2.8c0,0,0,1.2,4.2,3.3C32.9,60.1,37.5,64.6,42,63.4z"/>
<path class="st1" d="M40.5,58.7c-3.8-1.1-7.1-3.4-9.6-6.5c-3.3-1.5-6.3-3.8-8.6-6.5c0,0,2,3.8,8.3,7.1C33.1,55.9,36.6,58,40.5,58.7z
	"/>
<path class="st1" d="M38.6,53.7C33.9,51.5,30,48,27.3,43.6C27.3,43.6,29.3,50.6,38.6,53.7z"/>
<path class="st1" d="M29.2,43.9c-1.7-1.3-3.2-2.7-4.6-4.2C25.6,41.6,27.2,43.1,29.2,43.9z"/>
<path class="st1" d="M25.2,34.6c0,0,0.4,6.2,7.9,10.8C33.1,45.4,27.4,41.2,25.2,34.6z"/>
<path class="st1" d="M31.9,34.3c0,0-3.8-4.9-5.1-8.7c-1.3-1.1-2.2-2.1-2.2-2.1l1.9,2.2C26.5,25.7,28.7,31.3,31.9,34.3z"/>
<path class="st1" d="M23.4,49.2L23.1,49l-0.4-0.4L21.9,47l0.5,1.3l-0.3-0.2l-0.3-0.4v0.2l-0.3-0.3L20,45.9l0.3,1.5l-0.1-1.1l0.3,0.7
	c0,0,0.1-0.2,0-0.3l1.2,1.4l1.6,1.4l1.3,0.1l-1-0.4L23.4,49.2z"/>
<path class="st1" d="M33.8,36.9l-0.2-0.2l-0.9-0.5l0.8,0.5l0.5,1c0,0-2.3-2.1-2.4-2.1s3.1,3,3.1,3l0.4,0.7l0.4,0.3l-0.8-1.2
	l-0.9-1.2l2.2,1.2L33.8,36.9z"/>
<path class="st1" d="M33.2,69.4c1.1,1,2.4,1.6,3.8,1.9c-1.4-0.4-2.7-1.2-3.8-2.3c-0.6,0.1-1.1,0.1-1.7,0
	C32,69.3,32.6,69.4,33.2,69.4z"/>
<path class="st2" d="M44.2,74.5l-0.4,0.2C43.9,74.7,44,74.6,44.2,74.5z"/>
<path class="st1" d="M44.2,74.5c0.7-0.3,1.9-0.9,2.1-1.1c0.6-0.8,1.1-1.7,1.5-2.6C46.9,72.3,45.7,73.6,44.2,74.5z"/>
<path class="st1" d="M49.7,79c0.9-1.5,1.5-3.2,1.6-5c-0.2,1.2-0.6,2.3-1.1,3.3L49.7,79z"/>
<path class="st1" d="M54.2,79.9c0,1.1,0,2.6,0,2.6c0.1-1.3,0.4-2.6,0.8-3.9C55,78.5,54.5,79.8,54.2,79.9z"/>
<path class="st1" d="M57.5,83c0,0,1.1,0.1,0.8-2.6C58.2,81.3,57.9,82.2,57.5,83z"/>
<polyline class="st2" points="44.7,68.3 44.8,68.3 44.7,68.3 "/>
<polyline class="st2" points="44.7,68.2 44.7,68.3 44.7,68.2 "/>
<path class="st1" d="M47.2,67.3c-0.8,0.4-1.6,0.8-2.4,1C45.7,68.3,46.6,68,47.2,67.3z"/>
<path class="st0" d="M106.9,92.2l-0.3-0.3c-0.6-0.9-1.1-1.8-1.6-2.8l-0.3-0.5l0.5,0.3c1.1,0.8,2.4,1.4,3.7,1.7l0,0l0,0
	c0,0,0.1,0,0.1,0h0.1c0.4,0.1,0.8,0.2,1.2,0.3h0.3l-0.3-0.2c-1.1-1.2-1.9-2.6-2.6-4l-0.2-0.4l0.4,0.3c2.1,1.2,4.4,1.8,6.8,1.8
	c0.3,0,0.7,0,1,0h0.3L116,88c-1.2-1-2.2-2-3.1-3.2l-0.3-0.4l0.5,0.2c2,0.6,4.1,0.9,6.2,0.9c0.7,0,1.2,0,1.2,0h0.4l-0.3-0.2
	c-1.4-0.9-2.6-2.1-3.7-3.3l-0.5-0.6l0.7,0.3c1.9,0.9,4,1.3,6.1,1.3c1.1,0,2.2-0.1,3.3-0.4l0.4-0.1l-0.4-0.1c-1.5-0.4-4.4-2.7-6-4.1
	l-0.5-0.4l0.7,0.2c1.8,0.4,3.6,0.7,5.4,0.7c2.1,0,4.2-0.3,6.3-0.9l0.5-0.2l-0.5-0.1c-1.4-0.1-3.9-1.3-7.4-3.3l-0.5-0.3h0.9
	c6,0,10.9-3.9,10.9-3.9l0.3-0.3h-0.4c-0.9,0.1-1.7,0.1-2.6,0.2c-1.8,0-3.7-0.3-5.4-0.9l-0.5-0.2l0.6-0.1c7.7-1.3,14.5-7.6,14.6-7.7
	l0.3-0.3l-0.4,0.1l-15.8,3.3l-0.8,0.2l0.7-0.4c1.5-1.1,3-2.3,4.2-3.7l0,0h0c10.4-1.9,17.8-11.6,17.8-11.7l0.6-0.7l-0.7,0.6
	c-4.1,3.3-14,6.3-18.1,7.5l-0.5,0.2l0.4-0.4c0.2-0.3,0.5-0.5,0.7-0.8l0.1-0.2l0.1,0.2c0.1,0.1,0.2,0.2,0.3,0.3h0.1h0.1
	c2.9-1.3,6.1-5.8,6.5-6.4l0,0l0,0c5-1.6,9.4-4.5,12.7-8.5c1.5-1.6,2.7-3.5,3.6-5.5l0.2-0.5l-0.4,0.4c-4.1,3.8-13.6,8.3-17.5,10
	l-0.6,0.3l0.4-0.5c1.3-1.5,2.3-3.3,3-5.2l0,0l0,0c12.4-9.1,17.2-23,17.2-23.1l0.3-0.9l-0.5,0.8c-4.1,6.4-14.6,15.6-20.6,20.6
	l-0.9,0.8l0.7-1c1.6-2.1,2.8-4.5,3.4-7v0l0,0l1.3-1.1l0,0v0l-0.1-1.6v-0.1l0.2-0.4l0.1-0.3l0.2,0.3c0.2,0.4,0.5,0.7,0.8,0.9h0.1
	l0.1-0.1c5.6-6.3,9.8-13.8,12.3-21.8l0.2-0.7L154,4.8c-9.7,14.1-16.5,20.4-18.9,22.4l-0.5,0.4l0.2-0.6l0.2-0.5l0.1-0.3
	c0.1-0.3,0.2-0.7,0.3-1l0,0l0,0c9.8-12.8,11.2-23.4,11.2-23.5l0.1-0.7l-0.3,0.7c-3.6,7.9-8.3,15.2-14.1,21.6l-0.6,0.6l0.4-0.8
	l0.1-0.1l0.5-1.1l-0.7,1c-2,3-6.9,7.5-9.7,9.9l-0.8,0.7l0.6-0.9c1.7-2.7,2.9-5.7,3.5-8.8l0.1-0.8l-0.3,0.7
	c-1.3,2.9-4.7,6.8-9.1,10.8c-2,1.9-3.9,3.9-5.6,6c-0.4,0.5-0.8,1-1.2,1.5l-0.1,0.2l-0.2,0.4c-1.8,2.8-3.1,5.8-3.9,9
	c-0.3,1.2-0.3,2.4-0.2,3.6c0.3,0.8,0.8,1.4,1.4,2l0,0l0,0c0.1,0.2,0.2,0.3,0.3,0.5c0,0.1,0.1,0.2,0.2,0.3c0,0,0.1,0.1,0.1,0.1
	l0.2,0.4v0c0.3,4.3-1.4,8.4-4.6,11.2c-2.3,1.9-5.7,2-7.5,2c-0.4,0-0.7,0-1.1,0.1c-0.7,0.2-1.3,0.7-1.8,1.3l0,0h-0.1
	c-1.1,0.1-2.1,0.5-3,1.1c-1.7,1.3-2.8,3.1-3.3,5.1c0,0.2,0,0.3,0,0.5v0.1l0,0l0,0c-0.1,0.1-0.1,0.2-0.2,0.2
	c-0.2,0.2-0.4,0.4-0.5,0.6l-0.1,0.1L85.1,81H85c-0.1,0-0.3,0-0.4,0h-0.1h-0.1l-0.3-0.3c-0.7,0.8-1.1,1.9-1.2,3
	C83,84.1,83,84.6,83,85l0.1,0.6l-0.5-0.6L82,84.3l0.6,1.2c0,0.1,1,2.1,2.6,2.1c1,0,1.9-0.8,2.9-2.3l0,0l0,0c0.2-0.2,0.4-0.4,0.6-0.7
	l0.1-0.1l0.1,0.1c0.8,0.6,1.7,0.9,2.7,0.9c0.7,0,1.4-0.2,2-0.4l0.1-0.1l0.1,0.1c0.6,1,1.4,1.8,2.4,2.3l0.2,0.1l-0.1-0.3
	c0-0.1-0.1-0.2-0.1-0.3l0.3-0.1c1.4,3.9,4.3,4.7,4.4,4.7l0.3,0.1l-0.2-0.3c-0.4-0.8-0.6-1.7-0.7-2.6l-0.1-0.6l0.4,0.4
	c1.6,1.6,3.5,2.8,5.7,3.4L106.9,92.2L106.9,92.2z"/>
<path class="st1" d="M81.2,82.8l1.3,2.7c0,0.1,1.1,2.2,2.7,2.2c1,0,2.1-0.8,3-2.4c0.2-0.2,0.4-0.4,0.6-0.7c0.8,0.6,1.8,0.9,2.8,0.9
	c0.7,0,1.4-0.2,2.1-0.5c0.6,1,1.5,1.8,2.5,2.3l0.6,0.3l-0.2-0.6c0-0.1,0-0.2-0.1-0.3c1.4,4,4.4,4.8,4.6,4.8l0.7,0.2l-0.4-0.6
	c-0.4-0.8-0.6-1.7-0.7-2.5c1.6,1.7,3.6,2.9,5.8,3.5l1,0.3l-0.7-0.7c-0.6-0.9-1.1-1.8-1.5-2.8c1.1,0.8,2.4,1.4,3.7,1.7l0,0
	c0.1,0.1,0.2,0.1,0.2,0.1h0.1c0.4,0.1,0.8,0.2,1.2,0.3l0.8,0.1l-0.6-0.6c-1.1-1.2-2-2.6-2.6-4.1c2.1,1.2,4.5,1.8,6.9,1.8
	c0.3,0,0.7,0,1,0l0.7-0.1l-0.5-0.4c-1.1-0.9-2.2-2-3.1-3.2c2,0.6,4.2,0.9,6.3,0.9c0.7,0,1.2,0,1.2,0l0.9-0.1l-0.8-0.4
	c-1.4-1-2.6-2.1-3.7-3.4c1.9,0.9,4,1.3,6.1,1.3c1.1,0,2.3-0.1,3.4-0.4l1-0.3l-1-0.3c-1.4-0.4-4.3-2.7-6-4.1c1.8,0.4,3.6,0.7,5.5,0.7
	c2.1,0,4.3-0.3,6.3-0.9l1.2-0.4l-1.3-0.1c-1.4-0.1-3.9-1.3-7.3-3.3h0.3c6,0,11-3.9,11-4l0.7-0.6l-0.9,0.1c-0.9,0.1-1.7,0.1-2.6,0.2
	c-1.8,0-3.6-0.3-5.4-0.9c7.8-1.4,14.6-7.7,14.7-7.7l0.7-0.7l-1,0.2l-15.7,3.3l0,0c1.6-1.1,3-2.3,4.3-3.7
	c10.4-1.9,17.9-11.6,17.9-11.7l1.3-1.8l-1.7,1.4c-4.1,3.3-14.3,6.4-18,7.4c0.2-0.3,0.5-0.5,0.7-0.8c0.1,0.1,0.2,0.2,0.3,0.3l0.1,0.1
	l0.1-0.1c2.9-1.3,6.1-5.8,6.6-6.4c4.9-1.5,9.3-4.4,12.7-8.3c1.5-1.7,2.7-3.5,3.6-5.5l0.5-1.2l-0.9,0.9c-4,3.8-13.4,8.2-17.5,10
	c1.3-1.5,2.3-3.3,3-5.2C152.1,30,156.9,16.1,157,16l0.7-2.1l-1.2,1.9c-4.1,6.5-15.1,16.1-20.5,20.6c1.6-2.1,2.8-4.5,3.4-7l1.3-1.2
	l0.1-0.1v-0.1l-0.1-1.6l0.2-0.4c0.2,0.4,0.5,0.7,0.9,0.9l0.2,0.1l0.1-0.1c5.5-6.3,9.7-13.8,12.3-21.8l0.4-1.5l-0.9,1.3
	c-9.7,14.1-16.4,20.3-18.9,22.4l0.2-0.5l0.1-0.3c0.2-0.3,0.3-0.7,0.3-1.1c9.8-12.8,11.2-23.4,11.2-23.5l0.2-1.7l-0.7,1.6
	c-3.6,7.9-8.3,15.1-14.1,21.5l0.1-0.1l1.1-2.6l-1.6,2.3c-2,2.9-6.8,7.4-9.6,9.8c1.7-2.7,2.9-5.7,3.6-8.8l0.3-1.8l-0.8,1.7
	c-1.3,2.9-4.6,6.8-9,10.7c-2,1.9-3.9,3.9-5.6,6l0,0c-0.4,0.5-0.8,1-1.2,1.5l-0.1,0.1l-0.3,0.4c-1.8,2.8-3.2,5.9-3.9,9.1
	c-0.3,1.2-0.3,2.5-0.2,3.7l0,0c0.3,0.8,0.8,1.6,1.5,2.1c0.1,0.1,0.2,0.3,0.3,0.5c0.1,0.1,0.1,0.3,0.2,0.4c0,0,0,0,0.1,0.1l0.2,0.4
	c0.3,4.2-1.4,8.3-4.6,11.1c-2.3,1.8-5.6,1.9-7.4,2c-0.4,0-0.7,0-1.1,0.1c-0.8,0.2-1.4,0.7-1.9,1.3c-1.1,0.2-2.1,0.6-3.1,1.2
	c-1.7,1.3-2.9,3.1-3.3,5.2c0,0.2-0.1,0.3-0.1,0.5v0.1l0,0c-0.1,0.1-0.1,0.1-0.2,0.2c-0.2,0.2-0.4,0.4-0.5,0.6l-0.1,0.1
	c-0.1,0-0.3,0-0.4,0l0,0l-0.4-0.4c-0.8,0.9-1.3,2-1.3,3.2c-0.1,0.5-0.1,0.9,0,1.4L81.2,82.8z M86.1,86c0.4,0,0.8-0.1,1.1-0.3
	c-0.5,0.6-1.6,1.6-2.9,1.1c-1.7-1.4-0.7-4.2-0.2-5.2c0.2-0.2,0.5-0.3,0.8-0.2c0.1,0,0.4,0.1,0,1.3c0,0,0.7-0.8,0.5-1.3
	c0.2-0.4,0.4-0.8,0.7-1.2c0.2,0.5,0.4,1,0.7,1.4c-1-2.8,0.1-3.9,1.2-5.7c0.8-1.2,2-2,3.4-2.2c0.2-0.1,0.4-0.1,0.6,0
	c-0.3,0.4-0.4,0.9-0.6,1.3c1.6-3,2.8-2.8,3.7-2.9h0.4c-1,0.8-1.6,2-1.7,3.3c-0.5-0.1-0.9-0.3-1.3-0.7c0.3,0.4,0.8,0.7,1.3,0.9
	c0,0.4,0,0.9,0.1,1.3c0-0.4,0-0.9,0-1.3c2.4,0.8,5.5-1.7,5.5-1.7c-2.6,1.6-4.4,1.7-5.4,1.5c0.2-1.4,1-2.7,2.2-3.4
	c0.6,0,1.2-0.1,1.9-0.1l0.4-0.1c3.2-0.2,6.2-1.7,8.3-4.1c-1.3,1.3-2.9,2.2-4.6,2.8c1.4-0.9,2.6-2.1,3.6-3.5c1.7-1.9,2.9-4.3,3.4-6.9
	c-0.5,1.5-1.2,3-2.1,4.3c0.7-1.9,0.9-3.9,0.8-5.9c0-0.4-0.2-0.9-0.4-1.2c0.4,0.2,0.8,0.2,1.3,0.2c-1.6-0.3-2.8-2.2-3-2.8
	c-0.1-0.7-0.2-1.3-0.2-2c0.1-0.8,0.3-1.5,0.4-2.3c1.2-2.7,3.7-7.4,3.7-7.4l-2.8,4.6c0.5-1.2,1-2.4,1.7-3.6l0,0
	c2.1-3.2,4.6-6.2,7.4-8.8c1-0.9,2.1-1.9,3-2.8c-1.1,1.5-2.3,2.9-3.7,4.2c2.7-2.5,5.1-5.3,7.3-8.3c0.5-0.6,1-1.2,1.3-1.7
	c-1.1,2.2-2.4,4.3-4,6.2c1.8-1.9,3.3-4.1,4.6-6.4c-0.9,2.7-2.3,5.2-4,7.5l-1.2,1.2l0.9-0.7c-1,1.4-2.1,2.7-3.2,4
	c1.2-1.1,2.3-2.2,3.3-3.5c1.2-0.9,2.4-1.9,3.5-2.9l-0.4,1.2l1.1-1.8c2.1-1.9,4.2-4,5.3-5.2c-2.2,3.3-4.7,6.4-7.5,9.2
	c2.9-2.7,5.6-5.7,7.9-9c-1.3,2.6-2.9,5.1-4.7,7.4l-1.7,1.4l1.4-1c-1,1.2-1.8,2.3-2.3,2.9c-3.4,2.5-6.1,4.2-6.1,4.2
	c1.5-0.8,3-1.7,4.3-2.7l-0.5,0.8l0.8-1.1c3-2.2,5.9-4.5,8.7-7c-2,2.7-4.2,5.3-6.6,7.7c2.7-2.3,5.1-4.9,7.1-7.8
	c-1.9,3.5-4.4,6.7-7.3,9.5l-0.4-0.6l0.3,0.8l-0.1,0.1l-0.2-0.3v0.4c-1,1-1.9,1.8-2.5,2.3c-1.8,1.1-3.7,2.2-5.7,3.1
	c1.9-0.7,3.7-1.6,5.5-2.6l-0.4,1l0.7-1.1c1.3-0.8,2.6-1.6,3.8-2.4l-0.6,0.9l0.8-1.1c2-1.4,3.9-2.9,5.8-4.5c-3.2,3.7-6.9,7-11.1,9.7
	c4.2-2.5,8.1-5.6,11.4-9.2c-2.6,3.9-5.9,7.4-9.5,10.3c-3.3,1.4-6.2,2.5-6.2,2.5c2-0.4,10.2-3.9,13-5.1c-3.1,2.5-6.5,4.5-10.1,6
	c3.8-1.4,7.3-3.3,10.5-5.7c-3,3.7-6.8,6.7-11.1,8.6l-1.3,0.6l-1.2,0.3c2.8,0.1,8-1.5,10.2-2.2c-2,1.4-4.3,2.4-6.7,2.9
	c2.4-0.3,4.7-1.2,6.8-2.4c-3.2,2.9-7,5-11.1,6.1c0.5-0.1,1-0.1,1.5-0.2c2.7,0.2,5.4,0.2,8.1,0c-1.8,0.9-3.7,1.4-5.7,1.5
	c1.9,0.1,3.7-0.2,5.5-0.8c-2.5,1.5-5.3,2.5-8.2,3.1l-2,0.1c0.2,0.1,1.4,0.6,2.8,1h-0.8l0.6,0.3l-0.6,0.1l-1.1,0.1l1.2,0.2l1.5-0.3
	l4.3,1.4c-2.1,0.4-4.2,0.4-6.2,0c1.9,0.6,4,0.8,6,0.7c-1.6,0.7-3.4,1.1-5.2,1.2l-0.2-0.4l-1.5-0.7l1,0.7l0.2,0.2l0.1,0.2
	c-1.5,0-3-0.2-4.4-0.8c0.8,0.4,1.7,0.8,2.6,1c1.5,2.6,3.3,4.9,5.5,7c-1.8-0.2-3.5-1-4.9-2.2c1.1,1.3,2.6,2.2,4.2,2.7
	c-4.1,0.5-6.3-1.2-7.1-1.9c-0.9-1.6-1.6-2.8-1.6-2.8c1.2,3.1,2.8,6,4.8,8.7c-1.2-0.5-2.4-1.3-3.3-2.3c0.8,1,1.7,2,2.8,2.7
	c-2-0.2-3.8-1.1-5.3-2.5c-0.9-1.1-1.6-2.3-2-3.7c0.2,1.1,0.5,2.2,1.1,3.2c0.4,1.6,1.3,4.6,1.6,5.9c-1-0.9-1.8-1.9-2.5-3
	c0.5,1.2,1.2,2.4,2.1,3.5c-3.7-1.1-5.8-5.1-5.8-5.1c0.2,0.5,0.4,1.1,0.7,1.6c-0.1,1.2,0.1,4.4,0.1,5.6c-0.7-0.9-1.2-1.8-1.7-2.9
	c0.3,1.1,0.7,2.2,1.2,3.2c-2.4-1.2-3.8-5.4-3.8-5.4c0.2,0.9,0.5,1.8,0.9,2.7c-0.1,0.7-0.3,2.3-0.3,3.1c-0.6-1-1.1-2.1-1.3-3.2
	c0.1,1.1,0.3,2.1,0.7,3.1c-1.7-1.5-2.8-3.5-3.2-5.6c0,0.8,0.2,1.5,0.4,2.3c-0.4,1-0.7,2-0.9,3.1c-0.5-1-0.8-2.1-0.9-3.2
	c0,1.1,0.1,2.2,0.4,3.3c-1.4-1.4-2.2-3.3-2-5.3c-0.3,1.1-0.2,2.3,0.1,3.3c-1.2,1.2-3.1,1.2-4.3,0c0,0,0,0,0,0
	c0.1-0.3,0.3-0.5,0.4-0.8c0.1-0.4,0.1-0.8-0.2-1.2C89.1,82,89.6,84.3,86.1,86L86.1,86z M98.6,87.6c0.2,0.9,0.6,1.7,1,2.5
	c-1.7-1.4-2.8-3.4-3.3-5.5c0.1-0.7,0.3-1.3,0.4-1.7c0.6,1.6,1.6,3.1,3,4.2c0.1,0.8,0.3,2.1,0.4,2.9C99.5,89.2,99,88.4,98.6,87.6
	L98.6,87.6z M102.3,87.6c0.6,1.2,1.4,2.3,2.3,3.2c-1.7-0.6-3.1-1.7-4-3.2l0,0c-0.2-1.4-0.2-2.9,0-4.3c0.6,1.2,1.5,2.2,2.5,2.9
	c0.2,0.4,0.4,0.8,0.7,1.2c0.3,0.8,0.9,2.2,1.2,3C104,89.6,103.1,88.7,102.3,87.6L102.3,87.6z M105.8,86.7c0.8,1.1,1.7,2.2,2.7,3.2
	c-2.1-0.6-3.9-1.9-5.2-3.6c0.4,0.3,0.9,0.5,1.4,0.7c-0.5-2.2-0.7-4.4-0.6-6.7c1.4,2.2,3.8,3.6,6.3,3.9c-0.3-0.6-0.6-1.1-0.8-1.7
	c0.6,0.6,1.3,1,2,1.4c0.8,1.2,1.6,2.3,2.6,3.4c-1.3-0.4-2.5-0.9-3.7-1.6c1.1,0.8,2.2,1.6,3.4,2.2c-5.2-0.2-9.3-4.3-9.3-4.3
	c0.7,0.8,1.5,1.6,2.4,2.2c0.5,1.3,1.1,2.6,1.7,3.8C107.7,88.6,106.7,87.7,105.8,86.7L105.8,86.7z M113.6,83.3l0.3,0.9
	c-1.6-0.5-3.1-1.2-4.4-2.3c-0.6-1.6-1.1-3.5-1.3-4.2c0.5,0.6,1.1,1.1,1.8,1.4c1.6,1,3.4,1.5,5.3,1.6c1.1,1.3,2.2,2.5,3.4,3.7
	c-1.4-0.4-2.8-0.9-4.1-1.6c1.2,0.9,2.5,1.6,3.8,2.2c-1.4,0-2.8-0.2-4.1-0.6L113.6,83.3z M118.2,79.8c1.9,1,3.8,1.9,5.9,2.5
	c-1.8,0.1-3.6-0.2-5.3-0.7l-0.4-0.8l0.2,0.7c-0.9-0.3-1.8-0.6-2.6-1c-1.5-1.9-2.9-3.9-4.1-6c1.3,1,3,1.5,4.7,1.6
	c0.6,0.3,1.3,0.6,1.9,0.8c1.7,1.8,3.7,3.4,5.9,4.7C122.1,81.2,120.1,80.6,118.2,79.8L118.2,79.8z M121.8,75.2c2.2,1.2,4.5,2,7,2.5
	c-1.4,0.2-2.8,0.3-4.3,0.2l-1.2-0.9l0.7,0.8c-2.3-0.2-4.5-0.8-6.6-1.7c0.9-0.1,1.7-0.3,2.5-0.6c-0.9-0.9-2.4-2.6-3.7-4.2
	c0.9,0.1,1.9,0.1,2.8-0.1c3.2,2.2,6.6,4.2,10.2,5.8C126.8,76.9,124.2,76.3,121.8,75.2L121.8,75.2z M126.5,72.4l0.5,0.6
	c-1.3,0.2-2.6,0.2-3.9,0.2c-1.5-0.9-2.6-1.7-3.2-2c1.1-0.3,2.2-0.7,3.2-1.4l0,0c0.5-0.3,0.9-0.6,1.3-1l0,0c0.6,0,1.1,0,1.7,0
	c2.1,1.1,4.5,1.7,6.8,1.8c-2.5,0.9-5.2,1.2-7.9,0.7c2.3,0.7,4.8,0.8,7.2,0.3c-1.6,0.7-3.3,1.2-5.1,1.5L126.5,72.4z M127.1,65.3
	l6.7-2.2l6.5-1.3c-3.4,2-7.1,3.4-11,4.1c3.8-0.4,7.5-1.6,10.8-3.4c-5.5,4.1-10,5.3-12.8,5.7l-0.3-0.4l0.1,0.5
	c-0.8,0.1-1.5,0.1-2.3,0.1c0.3-0.3,0.4-0.7,0.5-1.2c-0.6,1.4-2.8,2.5-2.8,2.5l0,0h-0.1l-0.4-0.7l0.2,0.7c-2,1-4.2,1.4-6.4,1.2
	c-1-1.2-1.8-2.3-2.2-2.8c5,1,9.1-2.4,9.1-2.4l-1-0.1l8.9-1.9L127.1,65.3z M125.4,62.7l0.1,0.9c-0.7,0.4-1.3,0.8-1.7,1l-3.1,0.6
	c-2-0.5-4-1.2-5.9-2.1h0.1c3.9-0.2,7.6-2.4,9.6-3.8c1.6-0.8,3.1-1.7,4.5-2.8c1.8-0.4,3.5-0.9,5-1.4l0.1,0.6l0.1-0.6
	c3.9-1.2,7.7-2.7,11.3-4.5c-3,2.4-6.4,4.2-10,5.5c3.6-1,6.9-2.6,9.9-4.8c-3.8,4-8.6,6.8-14,8l0.2-1.6c-0.8,1.5-2,2.9-3.4,3.9
	c0.6-0.7,1-1.5,1.2-2.4c-0.6,1.3-1.5,2.4-2.5,3.4c-0.4,0.3-0.8,0.6-1.2,0.8L125.4,62.7z M129.8,54.3l0.3,0.8
	c-1.3,1.3-2.7,2.4-4.3,3.2l0,0c-2.1,0.9-7.7,0.8-9.5,0.7c5.2-1.5,9.3-5.6,10.8-7.2c3-1.7,5.8-3.8,8.2-6.3c1.5-0.5,3-1.1,4.4-1.7
	c1.6-0.5,3.1-1.1,4.5-1.9c0,0-0.8,0.3-1.7,0.5c3.5-1.8,6.9-3.8,10.1-6c-3.2,3.3-7,6.1-11.1,8.1c3.9-1.8,7.5-4.1,10.7-7
	c-1.7,2.6-3.9,4.9-6.5,6.7c0.8-0.8,1.6-1.6,2.2-2.5c-1.1,1.3-2.4,2.5-3.9,3.5c-1.7,1-3.4,1.8-5.3,2.3l0.2-1
	c-0.8,1.2-1.6,2.4-2.6,3.5l0.9-1.7l-0.7,1.1c0,0-0.6,1-0.5,0.6s0.4-1.6,0.4-1.6c-0.4,1.1-1,2.2-1.7,3.2c-0.9,0.9-1.8,1.7-2.8,2.4
	c-0.8,0-1.1-2.4-1.1-2.4c-0.1,0.7,0,1.4,0.2,2c-0.2,0.4-0.5,0.8-0.8,1.1L129.8,54.3z M136.7,42.1l0.3,0.6c-0.7,0.9-1.4,1.8-2.2,2.6
	v-0.6l0.1-0.6h-0.1c3.4-3.8,3.9-6.5,3.9-6.5c-0.9,2.4-2.3,4.6-4.1,6.4l-0.6-0.3l0.5,0.4c-2.1,2.3-4.4,4.3-6.9,6.1
	c2.6-1.7,5-3.7,7.1-6l-0.1,1l-0.2,0.6c-2.3,2.3-5,4.3-7.8,5.9l0,0c-2.5,1-6.8,2.1-9.5,2.8c8.5-3.3,13.3-11,13.3-11
	c-2.6,1.4-5.4,2.7-8.1,3.8c9.2-7.6,10.2-12.7,10.2-12.7c-3.1,3-6.5,5.7-10.1,8c8.8-8.4,9.9-13.8,9.9-13.8c-2.6,2.9-5.5,5.6-8.7,7.9
	l0.7-0.7c2.8-2.8,5.3-7.6,6.8-10.5c1.1-1,2.1-2,3-3.1l1.8-1.5l-1,0.7l0.6-0.6l-0.3,0.1c3.2-3.8,6.1-8,8.5-12.4
	c-0.9,1.9-1.8,3.7-2.9,5.5c-1.7,3.1-3.8,6-6.3,8.5c2.6-2.5,4.8-5.3,6.6-8.4c1.5-2.5,2.9-5.2,4.1-7.9c-1.5,4.2-3.4,8.2-5.7,12.1v-0.4
	l0.1-0.2l0.6-0.8l-0.2,0.1l-0.3,0.4l0.4-1.5l-0.9,2.5l-0.3-0.4l0.2,0.6l0,0v0.2c-0.3,0.5-0.6,1-0.9,1.4l-0.3-0.3l0.2,0.5
	c-1.3,1.9-2.3,3.3-2.8,3.9c-0.1-0.3-0.3-0.5-0.6-0.6c0.2,0.4,0.3,0.8,0.2,1.2c-0.2,0.9-0.5,1.8-0.9,2.6l-0.1-0.3v-0.2l0.1-0.6
	l-0.1,0.5l-0.4-1.4l0.4,1.6l0.1,0.5c-1.2,2.5-2.8,4.9-4.6,7.1c1.9-1.7,3.5-3.8,4.7-6.1c6.4-5.4,12.1-11.6,16.9-18.5
	c-1.8,2.9-3.7,5.6-5.8,8.3l-0.1-0.1l0.1,0.1c-2.1,2.7-4.4,5.1-6.9,7.4c2.6-2.2,4.9-4.6,7.1-7.2l0.4,0.7l0.1,0.3l-0.2,0.8l0.5-0.8
	l0.3-0.2v0.6c-2.2,3.3-4,5.7-4,5.7c-0.1,0-0.3,0-0.4,0V25l-0.1,0.7c-0.6-0.3-0.8-1.5-0.8-1.5c0,0.2,0,0.5,0,0.7l-0.7,1.3v1.4
	l-0.3,0.2l-0.4-0.5l0.1,0.7l-1.9,1.6l1-0.4c-0.7,2.1-1.7,4-2.9,5.8l-1-0.9l0.7,1.1c-2.7,3.7-5.8,7.1-9.3,9.9
	c2.4-1.7,4.6-3.6,6.6-5.7c4-3,7.5-5.9,10.4-8.6l-0.3,0.6l1.1-1.3l-0.7,1.4l1.7-2.4c2.8-2.6,5.5-5.4,8.1-8.4
	c-5.4,7.4-12.1,13.7-19.7,18.7c8.1-5,15.1-11.5,20.7-19.2c-1,1.8-1.9,3.5-2.9,5l-1.1,0.7l0.8-0.3c-0.3,0.5-0.7,1-1,1.4l-0.8,0.6
	l-1.1,1l-1.1,1.1l0.6-0.4l0.6-0.6l-2.7,2.7l2.3-2.1l0.7-0.7l0.2-0.4l0.2-0.2l-0.1,0.4l0.3-0.6l0.1-0.1l0.4-0.3
	c-2.1,2.9-4.4,5.5-7,7.9v-0.3l0.2-0.4l-0.4-1.3l0.2,1.3l-0.3,0.5v0.4c-0.9,0.8-1.8,1.6-2.8,2.3c0-0.4-0.2-0.9-0.4-1.2
	c0.1,0.8,0,1.6-0.3,2.3c-0.3,0.8-0.7,1.5-1.2,2.2l-0.6-0.4l0.4,0.7c-0.2,0.3-0.3,0.5-0.5,0.8L136.7,42.1z M147,17.7l-0.4,1.2
	l-0.3,0.7l-0.2-0.2h-0.3v-0.6l-0.1,0.6l-0.6-0.6c2.7-3.3,5.2-6.8,7.5-10.4c-1.3,3.2-2.8,6.2-4.6,9.1l-0.3-0.4l0.1,0.5
	c-0.4,0.7-0.9,1.4-1.3,2l0,0l0.1-0.6l0.4-0.6l-0.3,0.3L147,17.7z"/>
<path class="st1" d="M113.9,44.5c-0.3,0.7-0.8,1.2-1.4,1.5c0.2,1.3-0.5,2.6-1.7,3.3c1.5-1.5,1.3-2.7,1.2-3.1
	c-0.1-0.2-0.3-0.4-0.5-0.5c0.2-0.1,0.5,0,0.7,0.1c0.7-0.4,1.2-1.1,1.5-1.8c0.2-0.6,0-1.1-0.3-1.6c0.2,0.1,0.3,0.2,0.4,0.4
	c1.1-1,1.7-2.5,1.5-3.9c0.4,1.6-0.2,3.2-1.3,4.3C114.1,43.7,114.1,44.2,113.9,44.5z"/>
<path class="st1" d="M112.8,57.2c-0.3-1.8-1.2-2.1-1.6-2.2c-0.2,0.3-0.5,0.6-0.9,0.8c0.3-0.4,0.5-0.7,0.7-1.1l0,0
	c0.3-0.5,0.4-0.9,0.5-1c0.4-1,0.7-2.6-0.7-3.5c0.6,0.1,1.1,0.4,1.3,1c1.1-0.9,1.5-2.4,0.9-3.6c0.1,0.1,0.2,0.2,0.2,0.3
	c0.9-0.5,1.4-1.4,1.5-2.5c0,0,0.6,1.1-1.4,2.8c0.3,0.7,0.5,2-1.2,3.6c0,0.7-0.1,1.4-0.3,2c-0.1,0.3-0.2,0.6-0.4,0.9l0,0
	c1.1,0.5,1.7,1.7,1.6,2.9c-0.1,1.7-0.9,3.3-2.3,4.3C110.9,61.7,113.2,59.4,112.8,57.2z"/>
<path class="st1" d="M110.6,62c1.9,2.8-1.9,4.5-1.9,4.5C111.8,64.2,110.6,62,110.6,62z"/>
<path class="st1" d="M102.2,73c-0.2-0.1-0.3-0.2-0.5-0.3c3.2,1.2,5.2-2.4,5.2-2.4c-1.7,3.5-3.4,3.4-4.4,2.9c0,0.4-0.3,1.7-2.3,2.8
	C100.2,76,102.3,74.4,102.2,73z"/>
<path class="st1" d="M91,79.5c-0.1-0.2-0.2-0.3-0.2-0.5c1.1,1.8,3-0.1,3.3-0.3c-0.1-0.2-0.2-0.4-0.2-0.6c0.1,0.2,0.1,0.3,0.2,0.5
	l0,0v0.1c0.5,0.6,1.2,1,2,1c1.7-0.3,3-1.5,3.6-3.1c-0.3,2.6-3.1,3.3-3.1,3.3c-0.9,0.3-1.9,0-2.4-0.8c-1.6,1.3-2.5,1.2-3,0.8
	c-0.4,0.8-1.1,1.3-2,1.3C90.1,81,90.8,80.4,91,79.5z"/>
<path class="st2" d="M113.5,38.9L113.5,38.9L113.5,38.9z"/>
<path class="st1" d="M110.8,52.1c-0.8-0.4-1.6-0.4-2.4,0c0,1,0,2.1,0.2,3.1c-0.3-1-0.5-2-0.5-3c-0.7,0.4-1.4,0.9-1.9,1.5
	c0.5-0.8,1.1-1.4,1.9-1.8c0-2.8,1-7.3,5.3-12.8c-0.8,1.1-4.6,6.4-4.9,12.7C109.3,51.5,110.1,51.6,110.8,52.1z"/>
<path class="st2" d="M113.5,39L113.5,39L113.5,39z"/>
<path class="st1" d="M108.7,78.6c1.8,1.6,4.1,2.5,6.5,2.3C112.7,82,109.9,81,108.7,78.6z"/>
<path class="st1" d="M110.6,84.5c0,0-4.8,0.6-6.2-3.3C104.4,81.2,105.6,83.8,110.6,84.5z"/>
<path class="st1" d="M100.8,83.9c0.3,1.1,1.1,2.1,2.2,2.6C102.9,86.5,100.8,86.6,100.8,83.9z"/>
<path class="st1" d="M96.8,83.4c0,0,0.3,1.8,2.7,3.7C97.9,86.7,96.8,85.1,96.8,83.4z"/>
<path class="st1" d="M96.4,82.6c-1-0.7-0.5-2.3-0.5-2.3C95.9,81.1,96.1,81.9,96.4,82.6z"/>
<path class="st1" d="M112.6,75.7c0,0,2.6,1,3.6,0.8c0.6,0.3,1.2,0.6,1.9,0.8C118.1,77.2,114.2,77.4,112.6,75.7z"/>
<polygon class="st1" points="117.4,72.2 117.1,71.8 119,71.6 121.3,73.2 118.9,72 "/>
<path class="st1" d="M114.6,68.7c2.9,0.3,5.9-0.6,8.1-2.5C122.7,66.2,119.4,70.7,114.6,68.7z"/>
<path class="st1" d="M115.8,63.4c0,0,5.8-0.2,8.8-3.8c1.7-0.5,3.3-1.4,4.4-2.8c0,0,0,1.2-4.2,3.3C124.9,60.1,120.2,64.6,115.8,63.4z
	"/>
<path class="st1" d="M117.3,58.7c3.8-1.1,7.1-3.4,9.6-6.5c3.3-1.5,6.3-3.8,8.6-6.5c0,0-2,3.8-8.3,7.1
	C124.7,55.9,121.2,58,117.3,58.7z"/>
<path class="st1" d="M119.2,53.7c4.7-2.2,8.6-5.7,11.3-10.1C130.5,43.6,128.5,50.6,119.2,53.7z"/>
<path class="st1" d="M128.6,43.9c1.7-1.3,3.2-2.7,4.6-4.2C132.2,41.6,130.6,43.1,128.6,43.9z"/>
<path class="st1" d="M132.5,34.6c0,0-0.4,6.2-7.9,10.8C124.6,45.4,130.4,41.2,132.5,34.6z"/>
<path class="st1" d="M125.9,34.3c0,0,3.8-4.9,5.1-8.7c1.3-1.1,2.2-2.1,2.2-2.1l-1.9,2.2C131.2,25.7,129.1,31.3,125.9,34.3z"/>
<path class="st1" d="M134.4,49.2l0.3-0.2l0.4-0.4l0.7-1.6l-0.5,1.3l0.3-0.3l0.3-0.4v0.2l0.3-0.3l1.5-1.6l-0.3,1.5l0.1-1.1l-0.3,0.7
	c0,0-0.1-0.2,0-0.3l-1.3,1.4l-1.6,1.4l-1.3,0.1l1.1-0.3L134.4,49.2z"/>
<path class="st1" d="M124,36.9l0.2-0.2l0.9-0.5l-0.8,0.5l-0.5,1c0,0,2.3-2.1,2.4-2.1s-3.1,3-3.1,3l-0.4,0.7l-0.4,0.3l0.8-1.2
	l0.9-1.2l-2.1,1.2L124,36.9z"/>
<path class="st1" d="M124.6,69.4c-1.1,1-2.4,1.6-3.8,1.9c1.4-0.4,2.7-1.2,3.8-2.3c0.6,0.1,1.1,0.1,1.7,0
	C125.7,69.3,125.1,69.4,124.6,69.4z"/>
<path class="st2" d="M113.6,74.5l0.4,0.2C113.9,74.7,113.7,74.6,113.6,74.5z"/>
<path class="st1" d="M113.6,74.5c-0.7-0.3-1.9-0.9-2.1-1.1c-0.6-0.8-1.1-1.7-1.5-2.6C110.8,72.3,112.1,73.6,113.6,74.5z"/>
<path class="st1" d="M108,79c-0.9-1.5-1.5-3.2-1.6-5c0.2,1.2,0.6,2.3,1.1,3.3L108,79z"/>
<path class="st1" d="M103.5,79.9c0.1,1.1,0,2.6,0,2.6c-0.1-1.3-0.3-2.6-0.7-3.9C102.8,78.5,103.3,79.8,103.5,79.9z"/>
<path class="st1" d="M100.3,83c0,0-1.1,0.1-0.8-2.6C99.6,81.3,99.9,82.2,100.3,83z"/>
<polyline class="st2" points="113,68.3 113,68.3 113,68.3 "/>
<polyline class="st2" points="113.1,68.2 113,68.3 113.1,68.2 "/>
<path class="st1" d="M110.6,67.3c0.8,0.4,1.6,0.8,2.4,1C112.1,68.3,111.2,68,110.6,67.3z"/>
<path class="st3" d="M71.3,90.1h15.1c0.7,0,1.3,0.6,1.3,1.3l0,0c0,0.7-0.6,1.3-1.3,1.3H71.3c-0.7,0-1.3-0.6-1.3-1.3l0,0
	C70,90.7,70.6,90.1,71.3,90.1z"/>
<image style="overflow:visible;" width="842" height="544" xlink:href="../../../../../../../Creative Cloud Files/1x/KAI - IA Logo No Text.png"  transform="matrix(9.268916e-02 0 0 9.268916e-02 34.8579 38.6782)">
</image>
</svg>
